<?xml version="1.0" encoding="utf-8" standalone="no"?>
<!DOCTYPE svg PUBLIC "-//W3C//DTD SVG 1.1//EN"
  "http://www.w3.org/Graphics/SVG/1.1/DTD/svg11.dtd">
<!-- Created with matplotlib (https://matplotlib.org/) -->
<svg height="648pt" version="1.1" viewBox="0 0 648 648" width="648pt" xmlns="http://www.w3.org/2000/svg" xmlns:xlink="http://www.w3.org/1999/xlink">
 <defs>
  <style type="text/css">
*{stroke-linecap:butt;stroke-linejoin:round;}
  </style>
 </defs>
 <g id="figure_1">
  <g id="patch_1">
   <path d="M 0 648 
L 648 648 
L 648 0 
L 0 0 
z
" style="fill:#ffffff;"/>
  </g>
  <g id="axes_1">
   <g id="patch_2">
    <path d="M 42.1 620.12 
L 579.297377 620.12 
L 579.297377 25.44 
L 42.1 25.44 
z
" style="fill:#ffffff;"/>
   </g>
   <g id="PathCollection_1">
    <defs>
     <path d="M 0 3 
C 0.795609 3 1.55874 2.683901 2.12132 2.12132 
C 2.683901 1.55874 3 0.795609 3 0 
C 3 -0.795609 2.683901 -1.55874 2.12132 -2.12132 
C 1.55874 -2.683901 0.795609 -3 0 -3 
C -0.795609 -3 -1.55874 -2.683901 -2.12132 -2.12132 
C -2.683901 -1.55874 -3 -0.795609 -3 0 
C -3 0.795609 -2.683901 1.55874 -2.12132 2.12132 
C -1.55874 2.683901 -0.795609 3 0 3 
z
" id="me878ba448b" style="stroke:#000000;"/>
    </defs>
    <g clip-path="url(#p8a15ecdaed)">
     <use style="stroke:#000000;" x="228.693386" xlink:href="#me878ba448b" y="52.470909"/>
     <use style="stroke:#000000;" x="554.879315" xlink:href="#me878ba448b" y="381.376559"/>
     <use style="stroke:#000000;" x="504.020835" xlink:href="#me878ba448b" y="217.776617"/>
     <use style="stroke:#000000;" x="201.065971" xlink:href="#me878ba448b" y="68.76571"/>
     <use style="stroke:#000000;" x="510.512728" xlink:href="#me878ba448b" y="195.949509"/>
     <use style="stroke:#000000;" x="454.642644" xlink:href="#me878ba448b" y="120.005701"/>
     <use style="stroke:#000000;" x="242.705398" xlink:href="#me878ba448b" y="114.000302"/>
     <use style="stroke:#000000;" x="211.415676" xlink:href="#me878ba448b" y="53.281778"/>
     <use style="stroke:#000000;" x="114.04397" xlink:href="#me878ba448b" y="283.696021"/>
     <use style="stroke:#000000;" x="537.683938" xlink:href="#me878ba448b" y="401.003489"/>
     <use style="stroke:#000000;" x="350.93062" xlink:href="#me878ba448b" y="527.551194"/>
     <use style="stroke:#000000;" x="141.606906" xlink:href="#me878ba448b" y="225.231072"/>
     <use style="stroke:#000000;" x="510.962934" xlink:href="#me878ba448b" y="189.307607"/>
     <use style="stroke:#000000;" x="281.940793" xlink:href="#me878ba448b" y="537.505547"/>
     <use style="stroke:#000000;" x="466.405298" xlink:href="#me878ba448b" y="493.089481"/>
     <use style="stroke:#000000;" x="486.532197" xlink:href="#me878ba448b" y="478.649913"/>
     <use style="stroke:#000000;" x="127.388376" xlink:href="#me878ba448b" y="232.906538"/>
     <use style="stroke:#000000;" x="66.518063" xlink:href="#me878ba448b" y="456.856434"/>
     <use style="stroke:#000000;" x="505.599485" xlink:href="#me878ba448b" y="214.578002"/>
     <use style="stroke:#000000;" x="229.99514" xlink:href="#me878ba448b" y="99.205949"/>
     <use style="stroke:#000000;" x="208.058676" xlink:href="#me878ba448b" y="110.259849"/>
     <use style="stroke:#000000;" x="133.752513" xlink:href="#me878ba448b" y="271.8159"/>
     <use style="stroke:#000000;" x="309.43244" xlink:href="#me878ba448b" y="584.819357"/>
     <use style="stroke:#000000;" x="146.977391" xlink:href="#me878ba448b" y="141.203561"/>
     <use style="stroke:#000000;" x="101.515444" xlink:href="#me878ba448b" y="240.78207"/>
     <use style="stroke:#000000;" x="83.999098" xlink:href="#me878ba448b" y="335.92592"/>
     <use style="stroke:#000000;" x="333.789727" xlink:href="#me878ba448b" y="169.289314"/>
     <use style="stroke:#000000;" x="119.191722" xlink:href="#me878ba448b" y="395.698085"/>
     <use style="stroke:#000000;" x="332.829722" xlink:href="#me878ba448b" y="566.410636"/>
     <use style="stroke:#000000;" x="134.225753" xlink:href="#me878ba448b" y="471.715964"/>
     <use style="stroke:#000000;" x="496.542659" xlink:href="#me878ba448b" y="99.748107"/>
     <use style="stroke:#000000;" x="119.085836" xlink:href="#me878ba448b" y="418.488392"/>
     <use style="stroke:#000000;" x="290.844604" xlink:href="#me878ba448b" y="593.089091"/>
     <use style="stroke:#000000;" x="102.717934" xlink:href="#me878ba448b" y="384.564743"/>
     <use style="stroke:#000000;" x="350.93062" xlink:href="#me878ba448b" y="527.551194"/>
     <use style="stroke:#000000;" x="350.93062" xlink:href="#me878ba448b" y="527.551194"/>
     <use style="stroke:#000000;" x="140.979329" xlink:href="#me878ba448b" y="417.064179"/>
     <use style="stroke:#000000;" x="137.764829" xlink:href="#me878ba448b" y="406.653534"/>
     <use style="stroke:#000000;" x="290.210303" xlink:href="#me878ba448b" y="248.721568"/>
     <use style="stroke:#000000;" x="269.361701" xlink:href="#me878ba448b" y="253.937901"/>
     <use style="stroke:#000000;" x="79.866571" xlink:href="#me878ba448b" y="404.037338"/>
     <use style="stroke:#000000;" x="352.021805" xlink:href="#me878ba448b" y="510.41253"/>
     <use style="stroke:#000000;" x="118.665349" xlink:href="#me878ba448b" y="417.407245"/>
    </g>
   </g>
   <g id="matplotlib.axis_1">
    <g id="xtick_1">
     <g id="line2d_1">
      <defs>
       <path d="M 0 0 
L 0 3.5 
" id="m0b4669823a" style="stroke:#000000;stroke-width:0.8;"/>
      </defs>
      <g>
       <use style="stroke:#000000;stroke-width:0.8;" x="65.112644" xlink:href="#m0b4669823a" y="620.12"/>
      </g>
     </g>
     <g id="text_1">
      <!-- −0.4 -->
      <defs>
       <path d="M 10.59375 35.5 
L 73.1875 35.5 
L 73.1875 27.203125 
L 10.59375 27.203125 
z
" id="DejaVuSans-8722"/>
       <path d="M 31.78125 66.40625 
Q 24.171875 66.40625 20.328125 58.90625 
Q 16.5 51.421875 16.5 36.375 
Q 16.5 21.390625 20.328125 13.890625 
Q 24.171875 6.390625 31.78125 6.390625 
Q 39.453125 6.390625 43.28125 13.890625 
Q 47.125 21.390625 47.125 36.375 
Q 47.125 51.421875 43.28125 58.90625 
Q 39.453125 66.40625 31.78125 66.40625 
z
M 31.78125 74.21875 
Q 44.046875 74.21875 50.515625 64.515625 
Q 56.984375 54.828125 56.984375 36.375 
Q 56.984375 17.96875 50.515625 8.265625 
Q 44.046875 -1.421875 31.78125 -1.421875 
Q 19.53125 -1.421875 13.0625 8.265625 
Q 6.59375 17.96875 6.59375 36.375 
Q 6.59375 54.828125 13.0625 64.515625 
Q 19.53125 74.21875 31.78125 74.21875 
z
" id="DejaVuSans-48"/>
       <path d="M 10.6875 12.40625 
L 21 12.40625 
L 21 0 
L 10.6875 0 
z
" id="DejaVuSans-46"/>
       <path d="M 37.796875 64.3125 
L 12.890625 25.390625 
L 37.796875 25.390625 
z
M 35.203125 72.90625 
L 47.609375 72.90625 
L 47.609375 25.390625 
L 58.015625 25.390625 
L 58.015625 17.1875 
L 47.609375 17.1875 
L 47.609375 0 
L 37.796875 0 
L 37.796875 17.1875 
L 4.890625 17.1875 
L 4.890625 26.703125 
z
" id="DejaVuSans-52"/>
      </defs>
      <g transform="translate(52.971238 634.718438)scale(0.1 -0.1)">
       <use xlink:href="#DejaVuSans-8722"/>
       <use x="83.789062" xlink:href="#DejaVuSans-48"/>
       <use x="147.412109" xlink:href="#DejaVuSans-46"/>
       <use x="179.199219" xlink:href="#DejaVuSans-52"/>
      </g>
     </g>
    </g>
    <g id="xtick_2">
     <g id="line2d_2">
      <g>
       <use style="stroke:#000000;stroke-width:0.8;" x="168.96607" xlink:href="#m0b4669823a" y="620.12"/>
      </g>
     </g>
     <g id="text_2">
      <!-- −0.2 -->
      <defs>
       <path d="M 19.1875 8.296875 
L 53.609375 8.296875 
L 53.609375 0 
L 7.328125 0 
L 7.328125 8.296875 
Q 12.9375 14.109375 22.625 23.890625 
Q 32.328125 33.6875 34.8125 36.53125 
Q 39.546875 41.84375 41.421875 45.53125 
Q 43.3125 49.21875 43.3125 52.78125 
Q 43.3125 58.59375 39.234375 62.25 
Q 35.15625 65.921875 28.609375 65.921875 
Q 23.96875 65.921875 18.8125 64.3125 
Q 13.671875 62.703125 7.8125 59.421875 
L 7.8125 69.390625 
Q 13.765625 71.78125 18.9375 73 
Q 24.125 74.21875 28.421875 74.21875 
Q 39.75 74.21875 46.484375 68.546875 
Q 53.21875 62.890625 53.21875 53.421875 
Q 53.21875 48.921875 51.53125 44.890625 
Q 49.859375 40.875 45.40625 35.40625 
Q 44.1875 33.984375 37.640625 27.21875 
Q 31.109375 20.453125 19.1875 8.296875 
z
" id="DejaVuSans-50"/>
      </defs>
      <g transform="translate(156.824664 634.718438)scale(0.1 -0.1)">
       <use xlink:href="#DejaVuSans-8722"/>
       <use x="83.789062" xlink:href="#DejaVuSans-48"/>
       <use x="147.412109" xlink:href="#DejaVuSans-46"/>
       <use x="179.199219" xlink:href="#DejaVuSans-50"/>
      </g>
     </g>
    </g>
    <g id="xtick_3">
     <g id="line2d_3">
      <g>
       <use style="stroke:#000000;stroke-width:0.8;" x="272.819496" xlink:href="#m0b4669823a" y="620.12"/>
      </g>
     </g>
     <g id="text_3">
      <!-- 0.0 -->
      <g transform="translate(264.867933 634.718438)scale(0.1 -0.1)">
       <use xlink:href="#DejaVuSans-48"/>
       <use x="63.623047" xlink:href="#DejaVuSans-46"/>
       <use x="95.410156" xlink:href="#DejaVuSans-48"/>
      </g>
     </g>
    </g>
    <g id="xtick_4">
     <g id="line2d_4">
      <g>
       <use style="stroke:#000000;stroke-width:0.8;" x="376.672921" xlink:href="#m0b4669823a" y="620.12"/>
      </g>
     </g>
     <g id="text_4">
      <!-- 0.2 -->
      <g transform="translate(368.721359 634.718438)scale(0.1 -0.1)">
       <use xlink:href="#DejaVuSans-48"/>
       <use x="63.623047" xlink:href="#DejaVuSans-46"/>
       <use x="95.410156" xlink:href="#DejaVuSans-50"/>
      </g>
     </g>
    </g>
    <g id="xtick_5">
     <g id="line2d_5">
      <g>
       <use style="stroke:#000000;stroke-width:0.8;" x="480.526347" xlink:href="#m0b4669823a" y="620.12"/>
      </g>
     </g>
     <g id="text_5">
      <!-- 0.4 -->
      <g transform="translate(472.574785 634.718438)scale(0.1 -0.1)">
       <use xlink:href="#DejaVuSans-48"/>
       <use x="63.623047" xlink:href="#DejaVuSans-46"/>
       <use x="95.410156" xlink:href="#DejaVuSans-52"/>
      </g>
     </g>
    </g>
   </g>
   <g id="matplotlib.axis_2">
    <g id="ytick_1">
     <g id="line2d_6">
      <defs>
       <path d="M 0 0 
L -3.5 0 
" id="m24bfeb015e" style="stroke:#000000;stroke-width:0.8;"/>
      </defs>
      <g>
       <use style="stroke:#000000;stroke-width:0.8;" x="42.1" xlink:href="#m24bfeb015e" y="618.832878"/>
      </g>
     </g>
     <g id="text_6">
      <!-- −0.4 -->
      <g transform="translate(10.817188 622.632097)scale(0.1 -0.1)">
       <use xlink:href="#DejaVuSans-8722"/>
       <use x="83.789062" xlink:href="#DejaVuSans-48"/>
       <use x="147.412109" xlink:href="#DejaVuSans-46"/>
       <use x="179.199219" xlink:href="#DejaVuSans-52"/>
      </g>
     </g>
    </g>
    <g id="ytick_2">
     <g id="line2d_7">
      <g>
       <use style="stroke:#000000;stroke-width:0.8;" x="42.1" xlink:href="#m24bfeb015e" y="544.591845"/>
      </g>
     </g>
     <g id="text_7">
      <!-- −0.3 -->
      <defs>
       <path d="M 40.578125 39.3125 
Q 47.65625 37.796875 51.625 33 
Q 55.609375 28.21875 55.609375 21.1875 
Q 55.609375 10.40625 48.1875 4.484375 
Q 40.765625 -1.421875 27.09375 -1.421875 
Q 22.515625 -1.421875 17.65625 -0.515625 
Q 12.796875 0.390625 7.625 2.203125 
L 7.625 11.71875 
Q 11.71875 9.328125 16.59375 8.109375 
Q 21.484375 6.890625 26.8125 6.890625 
Q 36.078125 6.890625 40.9375 10.546875 
Q 45.796875 14.203125 45.796875 21.1875 
Q 45.796875 27.640625 41.28125 31.265625 
Q 36.765625 34.90625 28.71875 34.90625 
L 20.21875 34.90625 
L 20.21875 43.015625 
L 29.109375 43.015625 
Q 36.375 43.015625 40.234375 45.921875 
Q 44.09375 48.828125 44.09375 54.296875 
Q 44.09375 59.90625 40.109375 62.90625 
Q 36.140625 65.921875 28.71875 65.921875 
Q 24.65625 65.921875 20.015625 65.03125 
Q 15.375 64.15625 9.8125 62.3125 
L 9.8125 71.09375 
Q 15.4375 72.65625 20.34375 73.4375 
Q 25.25 74.21875 29.59375 74.21875 
Q 40.828125 74.21875 47.359375 69.109375 
Q 53.90625 64.015625 53.90625 55.328125 
Q 53.90625 49.265625 50.4375 45.09375 
Q 46.96875 40.921875 40.578125 39.3125 
z
" id="DejaVuSans-51"/>
      </defs>
      <g transform="translate(10.817188 548.391064)scale(0.1 -0.1)">
       <use xlink:href="#DejaVuSans-8722"/>
       <use x="83.789062" xlink:href="#DejaVuSans-48"/>
       <use x="147.412109" xlink:href="#DejaVuSans-46"/>
       <use x="179.199219" xlink:href="#DejaVuSans-51"/>
      </g>
     </g>
    </g>
    <g id="ytick_3">
     <g id="line2d_8">
      <g>
       <use style="stroke:#000000;stroke-width:0.8;" x="42.1" xlink:href="#m24bfeb015e" y="470.350811"/>
      </g>
     </g>
     <g id="text_8">
      <!-- −0.2 -->
      <g transform="translate(10.817188 474.15003)scale(0.1 -0.1)">
       <use xlink:href="#DejaVuSans-8722"/>
       <use x="83.789062" xlink:href="#DejaVuSans-48"/>
       <use x="147.412109" xlink:href="#DejaVuSans-46"/>
       <use x="179.199219" xlink:href="#DejaVuSans-50"/>
      </g>
     </g>
    </g>
    <g id="ytick_4">
     <g id="line2d_9">
      <g>
       <use style="stroke:#000000;stroke-width:0.8;" x="42.1" xlink:href="#m24bfeb015e" y="396.109778"/>
      </g>
     </g>
     <g id="text_9">
      <!-- −0.1 -->
      <defs>
       <path d="M 12.40625 8.296875 
L 28.515625 8.296875 
L 28.515625 63.921875 
L 10.984375 60.40625 
L 10.984375 69.390625 
L 28.421875 72.90625 
L 38.28125 72.90625 
L 38.28125 8.296875 
L 54.390625 8.296875 
L 54.390625 0 
L 12.40625 0 
z
" id="DejaVuSans-49"/>
      </defs>
      <g transform="translate(10.817188 399.908997)scale(0.1 -0.1)">
       <use xlink:href="#DejaVuSans-8722"/>
       <use x="83.789062" xlink:href="#DejaVuSans-48"/>
       <use x="147.412109" xlink:href="#DejaVuSans-46"/>
       <use x="179.199219" xlink:href="#DejaVuSans-49"/>
      </g>
     </g>
    </g>
    <g id="ytick_5">
     <g id="line2d_10">
      <g>
       <use style="stroke:#000000;stroke-width:0.8;" x="42.1" xlink:href="#m24bfeb015e" y="321.868744"/>
      </g>
     </g>
     <g id="text_10">
      <!-- 0.0 -->
      <g transform="translate(19.196875 325.667963)scale(0.1 -0.1)">
       <use xlink:href="#DejaVuSans-48"/>
       <use x="63.623047" xlink:href="#DejaVuSans-46"/>
       <use x="95.410156" xlink:href="#DejaVuSans-48"/>
      </g>
     </g>
    </g>
    <g id="ytick_6">
     <g id="line2d_11">
      <g>
       <use style="stroke:#000000;stroke-width:0.8;" x="42.1" xlink:href="#m24bfeb015e" y="247.627711"/>
      </g>
     </g>
     <g id="text_11">
      <!-- 0.1 -->
      <g transform="translate(19.196875 251.426929)scale(0.1 -0.1)">
       <use xlink:href="#DejaVuSans-48"/>
       <use x="63.623047" xlink:href="#DejaVuSans-46"/>
       <use x="95.410156" xlink:href="#DejaVuSans-49"/>
      </g>
     </g>
    </g>
    <g id="ytick_7">
     <g id="line2d_12">
      <g>
       <use style="stroke:#000000;stroke-width:0.8;" x="42.1" xlink:href="#m24bfeb015e" y="173.386677"/>
      </g>
     </g>
     <g id="text_12">
      <!-- 0.2 -->
      <g transform="translate(19.196875 177.185896)scale(0.1 -0.1)">
       <use xlink:href="#DejaVuSans-48"/>
       <use x="63.623047" xlink:href="#DejaVuSans-46"/>
       <use x="95.410156" xlink:href="#DejaVuSans-50"/>
      </g>
     </g>
    </g>
    <g id="ytick_8">
     <g id="line2d_13">
      <g>
       <use style="stroke:#000000;stroke-width:0.8;" x="42.1" xlink:href="#m24bfeb015e" y="99.145644"/>
      </g>
     </g>
     <g id="text_13">
      <!-- 0.3 -->
      <g transform="translate(19.196875 102.944862)scale(0.1 -0.1)">
       <use xlink:href="#DejaVuSans-48"/>
       <use x="63.623047" xlink:href="#DejaVuSans-46"/>
       <use x="95.410156" xlink:href="#DejaVuSans-51"/>
      </g>
     </g>
    </g>
   </g>
   <g id="patch_3">
    <path d="M 42.1 620.12 
L 42.1 25.44 
" style="fill:none;stroke:#000000;stroke-linecap:square;stroke-linejoin:miter;stroke-width:0.8;"/>
   </g>
   <g id="patch_4">
    <path d="M 579.297377 620.12 
L 579.297377 25.44 
" style="fill:none;stroke:#000000;stroke-linecap:square;stroke-linejoin:miter;stroke-width:0.8;"/>
   </g>
   <g id="patch_5">
    <path d="M 42.1 620.12 
L 579.297377 620.12 
" style="fill:none;stroke:#000000;stroke-linecap:square;stroke-linejoin:miter;stroke-width:0.8;"/>
   </g>
   <g id="patch_6">
    <path d="M 42.1 25.44 
L 579.297377 25.44 
" style="fill:none;stroke:#000000;stroke-linecap:square;stroke-linejoin:miter;stroke-width:0.8;"/>
   </g>
   <g id="text_14">
    <!-- C3/C1-C3v-C1q-C1n-C1cq -->
    <defs>
     <path d="M 64.40625 67.28125 
L 64.40625 56.890625 
Q 59.421875 61.53125 53.78125 63.8125 
Q 48.140625 66.109375 41.796875 66.109375 
Q 29.296875 66.109375 22.65625 58.46875 
Q 16.015625 50.828125 16.015625 36.375 
Q 16.015625 21.96875 22.65625 14.328125 
Q 29.296875 6.6875 41.796875 6.6875 
Q 48.140625 6.6875 53.78125 8.984375 
Q 59.421875 11.28125 64.40625 15.921875 
L 64.40625 5.609375 
Q 59.234375 2.09375 53.4375 0.328125 
Q 47.65625 -1.421875 41.21875 -1.421875 
Q 24.65625 -1.421875 15.125 8.703125 
Q 5.609375 18.84375 5.609375 36.375 
Q 5.609375 53.953125 15.125 64.078125 
Q 24.65625 74.21875 41.21875 74.21875 
Q 47.75 74.21875 53.53125 72.484375 
Q 59.328125 70.75 64.40625 67.28125 
z
" id="DejaVuSans-67"/>
     <path d="M 25.390625 72.90625 
L 33.6875 72.90625 
L 8.296875 -9.28125 
L 0 -9.28125 
z
" id="DejaVuSans-47"/>
     <path d="M 4.890625 31.390625 
L 31.203125 31.390625 
L 31.203125 23.390625 
L 4.890625 23.390625 
z
" id="DejaVuSans-45"/>
     <path d="M 2.984375 54.6875 
L 12.5 54.6875 
L 29.59375 8.796875 
L 46.6875 54.6875 
L 56.203125 54.6875 
L 35.6875 0 
L 23.484375 0 
z
" id="DejaVuSans-118"/>
     <path d="M 14.796875 27.296875 
Q 14.796875 17.390625 18.875 11.75 
Q 22.953125 6.109375 30.078125 6.109375 
Q 37.203125 6.109375 41.296875 11.75 
Q 45.40625 17.390625 45.40625 27.296875 
Q 45.40625 37.203125 41.296875 42.84375 
Q 37.203125 48.484375 30.078125 48.484375 
Q 22.953125 48.484375 18.875 42.84375 
Q 14.796875 37.203125 14.796875 27.296875 
z
M 45.40625 8.203125 
Q 42.578125 3.328125 38.25 0.953125 
Q 33.9375 -1.421875 27.875 -1.421875 
Q 17.96875 -1.421875 11.734375 6.484375 
Q 5.515625 14.40625 5.515625 27.296875 
Q 5.515625 40.1875 11.734375 48.09375 
Q 17.96875 56 27.875 56 
Q 33.9375 56 38.25 53.625 
Q 42.578125 51.265625 45.40625 46.390625 
L 45.40625 54.6875 
L 54.390625 54.6875 
L 54.390625 -20.796875 
L 45.40625 -20.796875 
z
" id="DejaVuSans-113"/>
     <path d="M 54.890625 33.015625 
L 54.890625 0 
L 45.90625 0 
L 45.90625 32.71875 
Q 45.90625 40.484375 42.875 44.328125 
Q 39.84375 48.1875 33.796875 48.1875 
Q 26.515625 48.1875 22.3125 43.546875 
Q 18.109375 38.921875 18.109375 30.90625 
L 18.109375 0 
L 9.078125 0 
L 9.078125 54.6875 
L 18.109375 54.6875 
L 18.109375 46.1875 
Q 21.34375 51.125 25.703125 53.5625 
Q 30.078125 56 35.796875 56 
Q 45.21875 56 50.046875 50.171875 
Q 54.890625 44.34375 54.890625 33.015625 
z
" id="DejaVuSans-110"/>
     <path d="M 48.78125 52.59375 
L 48.78125 44.1875 
Q 44.96875 46.296875 41.140625 47.34375 
Q 37.3125 48.390625 33.40625 48.390625 
Q 24.65625 48.390625 19.8125 42.84375 
Q 14.984375 37.3125 14.984375 27.296875 
Q 14.984375 17.28125 19.8125 11.734375 
Q 24.65625 6.203125 33.40625 6.203125 
Q 37.3125 6.203125 41.140625 7.25 
Q 44.96875 8.296875 48.78125 10.40625 
L 48.78125 2.09375 
Q 45.015625 0.34375 40.984375 -0.53125 
Q 36.96875 -1.421875 32.421875 -1.421875 
Q 20.0625 -1.421875 12.78125 6.34375 
Q 5.515625 14.109375 5.515625 27.296875 
Q 5.515625 40.671875 12.859375 48.328125 
Q 20.21875 56 33.015625 56 
Q 37.15625 56 41.109375 55.140625 
Q 45.0625 54.296875 48.78125 52.59375 
z
" id="DejaVuSans-99"/>
    </defs>
    <g transform="translate(228.693386 52.470909)scale(0.1 -0.1)">
     <use xlink:href="#DejaVuSans-67"/>
     <use x="69.824219" xlink:href="#DejaVuSans-51"/>
     <use x="133.447266" xlink:href="#DejaVuSans-47"/>
     <use x="167.138672" xlink:href="#DejaVuSans-67"/>
     <use x="236.962891" xlink:href="#DejaVuSans-49"/>
     <use x="300.585938" xlink:href="#DejaVuSans-45"/>
     <use x="336.669922" xlink:href="#DejaVuSans-67"/>
     <use x="406.494141" xlink:href="#DejaVuSans-51"/>
     <use x="470.117188" xlink:href="#DejaVuSans-118"/>
     <use x="526.671875" xlink:href="#DejaVuSans-45"/>
     <use x="562.755859" xlink:href="#DejaVuSans-67"/>
     <use x="632.580078" xlink:href="#DejaVuSans-49"/>
     <use x="696.203125" xlink:href="#DejaVuSans-113"/>
     <use x="759.679688" xlink:href="#DejaVuSans-45"/>
     <use x="795.763672" xlink:href="#DejaVuSans-67"/>
     <use x="865.587891" xlink:href="#DejaVuSans-49"/>
     <use x="929.210938" xlink:href="#DejaVuSans-110"/>
     <use x="992.589844" xlink:href="#DejaVuSans-45"/>
     <use x="1028.673828" xlink:href="#DejaVuSans-67"/>
     <use x="1098.498047" xlink:href="#DejaVuSans-49"/>
     <use x="1162.121094" xlink:href="#DejaVuSans-99"/>
     <use x="1217.101562" xlink:href="#DejaVuSans-113"/>
    </g>
   </g>
   <g id="text_15">
    <!-- C21 -->
    <g transform="translate(554.879315 381.376559)scale(0.1 -0.1)">
     <use xlink:href="#DejaVuSans-67"/>
     <use x="69.824219" xlink:href="#DejaVuSans-50"/>
     <use x="133.447266" xlink:href="#DejaVuSans-49"/>
    </g>
   </g>
   <g id="text_16">
    <!-- C21-C21u-C3-C21w-C21v -->
    <defs>
     <path d="M 8.5 21.578125 
L 8.5 54.6875 
L 17.484375 54.6875 
L 17.484375 21.921875 
Q 17.484375 14.15625 20.5 10.265625 
Q 23.53125 6.390625 29.59375 6.390625 
Q 36.859375 6.390625 41.078125 11.03125 
Q 45.3125 15.671875 45.3125 23.6875 
L 45.3125 54.6875 
L 54.296875 54.6875 
L 54.296875 0 
L 45.3125 0 
L 45.3125 8.40625 
Q 42.046875 3.421875 37.71875 1 
Q 33.40625 -1.421875 27.6875 -1.421875 
Q 18.265625 -1.421875 13.375 4.4375 
Q 8.5 10.296875 8.5 21.578125 
z
M 31.109375 56 
z
" id="DejaVuSans-117"/>
     <path d="M 4.203125 54.6875 
L 13.1875 54.6875 
L 24.421875 12.015625 
L 35.59375 54.6875 
L 46.1875 54.6875 
L 57.421875 12.015625 
L 68.609375 54.6875 
L 77.59375 54.6875 
L 63.28125 0 
L 52.6875 0 
L 40.921875 44.828125 
L 29.109375 0 
L 18.5 0 
z
" id="DejaVuSans-119"/>
    </defs>
    <g transform="translate(504.020835 217.776617)scale(0.1 -0.1)">
     <use xlink:href="#DejaVuSans-67"/>
     <use x="69.824219" xlink:href="#DejaVuSans-50"/>
     <use x="133.447266" xlink:href="#DejaVuSans-49"/>
     <use x="197.070312" xlink:href="#DejaVuSans-45"/>
     <use x="233.154297" xlink:href="#DejaVuSans-67"/>
     <use x="302.978516" xlink:href="#DejaVuSans-50"/>
     <use x="366.601562" xlink:href="#DejaVuSans-49"/>
     <use x="430.224609" xlink:href="#DejaVuSans-117"/>
     <use x="493.603516" xlink:href="#DejaVuSans-45"/>
     <use x="529.6875" xlink:href="#DejaVuSans-67"/>
     <use x="599.511719" xlink:href="#DejaVuSans-51"/>
     <use x="663.134766" xlink:href="#DejaVuSans-45"/>
     <use x="699.21875" xlink:href="#DejaVuSans-67"/>
     <use x="769.042969" xlink:href="#DejaVuSans-50"/>
     <use x="832.666016" xlink:href="#DejaVuSans-49"/>
     <use x="896.289062" xlink:href="#DejaVuSans-119"/>
     <use x="978.076172" xlink:href="#DejaVuSans-45"/>
     <use x="1014.160156" xlink:href="#DejaVuSans-67"/>
     <use x="1083.984375" xlink:href="#DejaVuSans-50"/>
     <use x="1147.607422" xlink:href="#DejaVuSans-49"/>
     <use x="1211.230469" xlink:href="#DejaVuSans-118"/>
    </g>
   </g>
   <g id="text_17">
    <!-- C3/C3v/C1-C1q-C1n -->
    <g transform="translate(201.065971 68.76571)scale(0.1 -0.1)">
     <use xlink:href="#DejaVuSans-67"/>
     <use x="69.824219" xlink:href="#DejaVuSans-51"/>
     <use x="133.447266" xlink:href="#DejaVuSans-47"/>
     <use x="167.138672" xlink:href="#DejaVuSans-67"/>
     <use x="236.962891" xlink:href="#DejaVuSans-51"/>
     <use x="300.585938" xlink:href="#DejaVuSans-118"/>
     <use x="359.765625" xlink:href="#DejaVuSans-47"/>
     <use x="393.457031" xlink:href="#DejaVuSans-67"/>
     <use x="463.28125" xlink:href="#DejaVuSans-49"/>
     <use x="526.904297" xlink:href="#DejaVuSans-45"/>
     <use x="562.988281" xlink:href="#DejaVuSans-67"/>
     <use x="632.8125" xlink:href="#DejaVuSans-49"/>
     <use x="696.435547" xlink:href="#DejaVuSans-113"/>
     <use x="759.912109" xlink:href="#DejaVuSans-45"/>
     <use x="795.996094" xlink:href="#DejaVuSans-67"/>
     <use x="865.820312" xlink:href="#DejaVuSans-49"/>
     <use x="929.443359" xlink:href="#DejaVuSans-110"/>
    </g>
   </g>
   <g id="text_18">
    <!-- C21-C3-C21ag-C21af -->
    <defs>
     <path d="M 34.28125 27.484375 
Q 23.390625 27.484375 19.1875 25 
Q 14.984375 22.515625 14.984375 16.5 
Q 14.984375 11.71875 18.140625 8.90625 
Q 21.296875 6.109375 26.703125 6.109375 
Q 34.1875 6.109375 38.703125 11.40625 
Q 43.21875 16.703125 43.21875 25.484375 
L 43.21875 27.484375 
z
M 52.203125 31.203125 
L 52.203125 0 
L 43.21875 0 
L 43.21875 8.296875 
Q 40.140625 3.328125 35.546875 0.953125 
Q 30.953125 -1.421875 24.3125 -1.421875 
Q 15.921875 -1.421875 10.953125 3.296875 
Q 6 8.015625 6 15.921875 
Q 6 25.140625 12.171875 29.828125 
Q 18.359375 34.515625 30.609375 34.515625 
L 43.21875 34.515625 
L 43.21875 35.40625 
Q 43.21875 41.609375 39.140625 45 
Q 35.0625 48.390625 27.6875 48.390625 
Q 23 48.390625 18.546875 47.265625 
Q 14.109375 46.140625 10.015625 43.890625 
L 10.015625 52.203125 
Q 14.9375 54.109375 19.578125 55.046875 
Q 24.21875 56 28.609375 56 
Q 40.484375 56 46.34375 49.84375 
Q 52.203125 43.703125 52.203125 31.203125 
z
" id="DejaVuSans-97"/>
     <path d="M 45.40625 27.984375 
Q 45.40625 37.75 41.375 43.109375 
Q 37.359375 48.484375 30.078125 48.484375 
Q 22.859375 48.484375 18.828125 43.109375 
Q 14.796875 37.75 14.796875 27.984375 
Q 14.796875 18.265625 18.828125 12.890625 
Q 22.859375 7.515625 30.078125 7.515625 
Q 37.359375 7.515625 41.375 12.890625 
Q 45.40625 18.265625 45.40625 27.984375 
z
M 54.390625 6.78125 
Q 54.390625 -7.171875 48.1875 -13.984375 
Q 42 -20.796875 29.203125 -20.796875 
Q 24.46875 -20.796875 20.265625 -20.09375 
Q 16.0625 -19.390625 12.109375 -17.921875 
L 12.109375 -9.1875 
Q 16.0625 -11.328125 19.921875 -12.34375 
Q 23.78125 -13.375 27.78125 -13.375 
Q 36.625 -13.375 41.015625 -8.765625 
Q 45.40625 -4.15625 45.40625 5.171875 
L 45.40625 9.625 
Q 42.625 4.78125 38.28125 2.390625 
Q 33.9375 0 27.875 0 
Q 17.828125 0 11.671875 7.65625 
Q 5.515625 15.328125 5.515625 27.984375 
Q 5.515625 40.671875 11.671875 48.328125 
Q 17.828125 56 27.875 56 
Q 33.9375 56 38.28125 53.609375 
Q 42.625 51.21875 45.40625 46.390625 
L 45.40625 54.6875 
L 54.390625 54.6875 
z
" id="DejaVuSans-103"/>
     <path d="M 37.109375 75.984375 
L 37.109375 68.5 
L 28.515625 68.5 
Q 23.6875 68.5 21.796875 66.546875 
Q 19.921875 64.59375 19.921875 59.515625 
L 19.921875 54.6875 
L 34.71875 54.6875 
L 34.71875 47.703125 
L 19.921875 47.703125 
L 19.921875 0 
L 10.890625 0 
L 10.890625 47.703125 
L 2.296875 47.703125 
L 2.296875 54.6875 
L 10.890625 54.6875 
L 10.890625 58.5 
Q 10.890625 67.625 15.140625 71.796875 
Q 19.390625 75.984375 28.609375 75.984375 
z
" id="DejaVuSans-102"/>
    </defs>
    <g transform="translate(510.512728 195.949509)scale(0.1 -0.1)">
     <use xlink:href="#DejaVuSans-67"/>
     <use x="69.824219" xlink:href="#DejaVuSans-50"/>
     <use x="133.447266" xlink:href="#DejaVuSans-49"/>
     <use x="197.070312" xlink:href="#DejaVuSans-45"/>
     <use x="233.154297" xlink:href="#DejaVuSans-67"/>
     <use x="302.978516" xlink:href="#DejaVuSans-51"/>
     <use x="366.601562" xlink:href="#DejaVuSans-45"/>
     <use x="402.685547" xlink:href="#DejaVuSans-67"/>
     <use x="472.509766" xlink:href="#DejaVuSans-50"/>
     <use x="536.132812" xlink:href="#DejaVuSans-49"/>
     <use x="599.755859" xlink:href="#DejaVuSans-97"/>
     <use x="661.035156" xlink:href="#DejaVuSans-103"/>
     <use x="724.511719" xlink:href="#DejaVuSans-45"/>
     <use x="760.595703" xlink:href="#DejaVuSans-67"/>
     <use x="830.419922" xlink:href="#DejaVuSans-50"/>
     <use x="894.042969" xlink:href="#DejaVuSans-49"/>
     <use x="957.666016" xlink:href="#DejaVuSans-97"/>
     <use x="1018.945312" xlink:href="#DejaVuSans-102"/>
    </g>
   </g>
   <g id="text_19">
    <!-- C3/C21/C3av-C3at-C3b-C3dp -->
    <defs>
     <path d="M 18.3125 70.21875 
L 18.3125 54.6875 
L 36.8125 54.6875 
L 36.8125 47.703125 
L 18.3125 47.703125 
L 18.3125 18.015625 
Q 18.3125 11.328125 20.140625 9.421875 
Q 21.96875 7.515625 27.59375 7.515625 
L 36.8125 7.515625 
L 36.8125 0 
L 27.59375 0 
Q 17.1875 0 13.234375 3.875 
Q 9.28125 7.765625 9.28125 18.015625 
L 9.28125 47.703125 
L 2.6875 47.703125 
L 2.6875 54.6875 
L 9.28125 54.6875 
L 9.28125 70.21875 
z
" id="DejaVuSans-116"/>
     <path d="M 48.6875 27.296875 
Q 48.6875 37.203125 44.609375 42.84375 
Q 40.53125 48.484375 33.40625 48.484375 
Q 26.265625 48.484375 22.1875 42.84375 
Q 18.109375 37.203125 18.109375 27.296875 
Q 18.109375 17.390625 22.1875 11.75 
Q 26.265625 6.109375 33.40625 6.109375 
Q 40.53125 6.109375 44.609375 11.75 
Q 48.6875 17.390625 48.6875 27.296875 
z
M 18.109375 46.390625 
Q 20.953125 51.265625 25.265625 53.625 
Q 29.59375 56 35.59375 56 
Q 45.5625 56 51.78125 48.09375 
Q 58.015625 40.1875 58.015625 27.296875 
Q 58.015625 14.40625 51.78125 6.484375 
Q 45.5625 -1.421875 35.59375 -1.421875 
Q 29.59375 -1.421875 25.265625 0.953125 
Q 20.953125 3.328125 18.109375 8.203125 
L 18.109375 0 
L 9.078125 0 
L 9.078125 75.984375 
L 18.109375 75.984375 
z
" id="DejaVuSans-98"/>
     <path d="M 45.40625 46.390625 
L 45.40625 75.984375 
L 54.390625 75.984375 
L 54.390625 0 
L 45.40625 0 
L 45.40625 8.203125 
Q 42.578125 3.328125 38.25 0.953125 
Q 33.9375 -1.421875 27.875 -1.421875 
Q 17.96875 -1.421875 11.734375 6.484375 
Q 5.515625 14.40625 5.515625 27.296875 
Q 5.515625 40.1875 11.734375 48.09375 
Q 17.96875 56 27.875 56 
Q 33.9375 56 38.25 53.625 
Q 42.578125 51.265625 45.40625 46.390625 
z
M 14.796875 27.296875 
Q 14.796875 17.390625 18.875 11.75 
Q 22.953125 6.109375 30.078125 6.109375 
Q 37.203125 6.109375 41.296875 11.75 
Q 45.40625 17.390625 45.40625 27.296875 
Q 45.40625 37.203125 41.296875 42.84375 
Q 37.203125 48.484375 30.078125 48.484375 
Q 22.953125 48.484375 18.875 42.84375 
Q 14.796875 37.203125 14.796875 27.296875 
z
" id="DejaVuSans-100"/>
     <path d="M 18.109375 8.203125 
L 18.109375 -20.796875 
L 9.078125 -20.796875 
L 9.078125 54.6875 
L 18.109375 54.6875 
L 18.109375 46.390625 
Q 20.953125 51.265625 25.265625 53.625 
Q 29.59375 56 35.59375 56 
Q 45.5625 56 51.78125 48.09375 
Q 58.015625 40.1875 58.015625 27.296875 
Q 58.015625 14.40625 51.78125 6.484375 
Q 45.5625 -1.421875 35.59375 -1.421875 
Q 29.59375 -1.421875 25.265625 0.953125 
Q 20.953125 3.328125 18.109375 8.203125 
z
M 48.6875 27.296875 
Q 48.6875 37.203125 44.609375 42.84375 
Q 40.53125 48.484375 33.40625 48.484375 
Q 26.265625 48.484375 22.1875 42.84375 
Q 18.109375 37.203125 18.109375 27.296875 
Q 18.109375 17.390625 22.1875 11.75 
Q 26.265625 6.109375 33.40625 6.109375 
Q 40.53125 6.109375 44.609375 11.75 
Q 48.6875 17.390625 48.6875 27.296875 
z
" id="DejaVuSans-112"/>
    </defs>
    <g transform="translate(454.642644 120.005701)scale(0.1 -0.1)">
     <use xlink:href="#DejaVuSans-67"/>
     <use x="69.824219" xlink:href="#DejaVuSans-51"/>
     <use x="133.447266" xlink:href="#DejaVuSans-47"/>
     <use x="167.138672" xlink:href="#DejaVuSans-67"/>
     <use x="236.962891" xlink:href="#DejaVuSans-50"/>
     <use x="300.585938" xlink:href="#DejaVuSans-49"/>
     <use x="364.208984" xlink:href="#DejaVuSans-47"/>
     <use x="397.900391" xlink:href="#DejaVuSans-67"/>
     <use x="467.724609" xlink:href="#DejaVuSans-51"/>
     <use x="531.347656" xlink:href="#DejaVuSans-97"/>
     <use x="592.626953" xlink:href="#DejaVuSans-118"/>
     <use x="649.181641" xlink:href="#DejaVuSans-45"/>
     <use x="685.265625" xlink:href="#DejaVuSans-67"/>
     <use x="755.089844" xlink:href="#DejaVuSans-51"/>
     <use x="818.712891" xlink:href="#DejaVuSans-97"/>
     <use x="879.992188" xlink:href="#DejaVuSans-116"/>
     <use x="919.201172" xlink:href="#DejaVuSans-45"/>
     <use x="955.285156" xlink:href="#DejaVuSans-67"/>
     <use x="1025.109375" xlink:href="#DejaVuSans-51"/>
     <use x="1088.732422" xlink:href="#DejaVuSans-98"/>
     <use x="1152.208984" xlink:href="#DejaVuSans-45"/>
     <use x="1188.292969" xlink:href="#DejaVuSans-67"/>
     <use x="1258.117188" xlink:href="#DejaVuSans-51"/>
     <use x="1321.740234" xlink:href="#DejaVuSans-100"/>
     <use x="1385.216797" xlink:href="#DejaVuSans-112"/>
    </g>
   </g>
   <g id="text_20">
    <!-- C3/C1n/C3v/C1-C1q-C89-C3az-C1aa -->
    <defs>
     <path d="M 31.78125 34.625 
Q 24.75 34.625 20.71875 30.859375 
Q 16.703125 27.09375 16.703125 20.515625 
Q 16.703125 13.921875 20.71875 10.15625 
Q 24.75 6.390625 31.78125 6.390625 
Q 38.8125 6.390625 42.859375 10.171875 
Q 46.921875 13.96875 46.921875 20.515625 
Q 46.921875 27.09375 42.890625 30.859375 
Q 38.875 34.625 31.78125 34.625 
z
M 21.921875 38.8125 
Q 15.578125 40.375 12.03125 44.71875 
Q 8.5 49.078125 8.5 55.328125 
Q 8.5 64.0625 14.71875 69.140625 
Q 20.953125 74.21875 31.78125 74.21875 
Q 42.671875 74.21875 48.875 69.140625 
Q 55.078125 64.0625 55.078125 55.328125 
Q 55.078125 49.078125 51.53125 44.71875 
Q 48 40.375 41.703125 38.8125 
Q 48.828125 37.15625 52.796875 32.3125 
Q 56.78125 27.484375 56.78125 20.515625 
Q 56.78125 9.90625 50.3125 4.234375 
Q 43.84375 -1.421875 31.78125 -1.421875 
Q 19.734375 -1.421875 13.25 4.234375 
Q 6.78125 9.90625 6.78125 20.515625 
Q 6.78125 27.484375 10.78125 32.3125 
Q 14.796875 37.15625 21.921875 38.8125 
z
M 18.3125 54.390625 
Q 18.3125 48.734375 21.84375 45.5625 
Q 25.390625 42.390625 31.78125 42.390625 
Q 38.140625 42.390625 41.71875 45.5625 
Q 45.3125 48.734375 45.3125 54.390625 
Q 45.3125 60.0625 41.71875 63.234375 
Q 38.140625 66.40625 31.78125 66.40625 
Q 25.390625 66.40625 21.84375 63.234375 
Q 18.3125 60.0625 18.3125 54.390625 
z
" id="DejaVuSans-56"/>
     <path d="M 10.984375 1.515625 
L 10.984375 10.5 
Q 14.703125 8.734375 18.5 7.8125 
Q 22.3125 6.890625 25.984375 6.890625 
Q 35.75 6.890625 40.890625 13.453125 
Q 46.046875 20.015625 46.78125 33.40625 
Q 43.953125 29.203125 39.59375 26.953125 
Q 35.25 24.703125 29.984375 24.703125 
Q 19.046875 24.703125 12.671875 31.3125 
Q 6.296875 37.9375 6.296875 49.421875 
Q 6.296875 60.640625 12.9375 67.421875 
Q 19.578125 74.21875 30.609375 74.21875 
Q 43.265625 74.21875 49.921875 64.515625 
Q 56.59375 54.828125 56.59375 36.375 
Q 56.59375 19.140625 48.40625 8.859375 
Q 40.234375 -1.421875 26.421875 -1.421875 
Q 22.703125 -1.421875 18.890625 -0.6875 
Q 15.09375 0.046875 10.984375 1.515625 
z
M 30.609375 32.421875 
Q 37.25 32.421875 41.125 36.953125 
Q 45.015625 41.5 45.015625 49.421875 
Q 45.015625 57.28125 41.125 61.84375 
Q 37.25 66.40625 30.609375 66.40625 
Q 23.96875 66.40625 20.09375 61.84375 
Q 16.21875 57.28125 16.21875 49.421875 
Q 16.21875 41.5 20.09375 36.953125 
Q 23.96875 32.421875 30.609375 32.421875 
z
" id="DejaVuSans-57"/>
     <path d="M 5.515625 54.6875 
L 48.1875 54.6875 
L 48.1875 46.484375 
L 14.40625 7.171875 
L 48.1875 7.171875 
L 48.1875 0 
L 4.296875 0 
L 4.296875 8.203125 
L 38.09375 47.515625 
L 5.515625 47.515625 
z
" id="DejaVuSans-122"/>
    </defs>
    <g transform="translate(242.705398 114.000302)scale(0.1 -0.1)">
     <use xlink:href="#DejaVuSans-67"/>
     <use x="69.824219" xlink:href="#DejaVuSans-51"/>
     <use x="133.447266" xlink:href="#DejaVuSans-47"/>
     <use x="167.138672" xlink:href="#DejaVuSans-67"/>
     <use x="236.962891" xlink:href="#DejaVuSans-49"/>
     <use x="300.585938" xlink:href="#DejaVuSans-110"/>
     <use x="363.964844" xlink:href="#DejaVuSans-47"/>
     <use x="397.65625" xlink:href="#DejaVuSans-67"/>
     <use x="467.480469" xlink:href="#DejaVuSans-51"/>
     <use x="531.103516" xlink:href="#DejaVuSans-118"/>
     <use x="590.283203" xlink:href="#DejaVuSans-47"/>
     <use x="623.974609" xlink:href="#DejaVuSans-67"/>
     <use x="693.798828" xlink:href="#DejaVuSans-49"/>
     <use x="757.421875" xlink:href="#DejaVuSans-45"/>
     <use x="793.505859" xlink:href="#DejaVuSans-67"/>
     <use x="863.330078" xlink:href="#DejaVuSans-49"/>
     <use x="926.953125" xlink:href="#DejaVuSans-113"/>
     <use x="990.429688" xlink:href="#DejaVuSans-45"/>
     <use x="1026.513672" xlink:href="#DejaVuSans-67"/>
     <use x="1096.337891" xlink:href="#DejaVuSans-56"/>
     <use x="1159.960938" xlink:href="#DejaVuSans-57"/>
     <use x="1223.583984" xlink:href="#DejaVuSans-45"/>
     <use x="1259.667969" xlink:href="#DejaVuSans-67"/>
     <use x="1329.492188" xlink:href="#DejaVuSans-51"/>
     <use x="1393.115234" xlink:href="#DejaVuSans-97"/>
     <use x="1454.394531" xlink:href="#DejaVuSans-122"/>
     <use x="1506.884766" xlink:href="#DejaVuSans-45"/>
     <use x="1542.96875" xlink:href="#DejaVuSans-67"/>
     <use x="1612.792969" xlink:href="#DejaVuSans-49"/>
     <use x="1676.416016" xlink:href="#DejaVuSans-97"/>
     <use x="1737.695312" xlink:href="#DejaVuSans-97"/>
    </g>
   </g>
   <g id="text_21">
    <!-- C3/C1-C1n-C3v-C1q-C3fh -->
    <defs>
     <path d="M 54.890625 33.015625 
L 54.890625 0 
L 45.90625 0 
L 45.90625 32.71875 
Q 45.90625 40.484375 42.875 44.328125 
Q 39.84375 48.1875 33.796875 48.1875 
Q 26.515625 48.1875 22.3125 43.546875 
Q 18.109375 38.921875 18.109375 30.90625 
L 18.109375 0 
L 9.078125 0 
L 9.078125 75.984375 
L 18.109375 75.984375 
L 18.109375 46.1875 
Q 21.34375 51.125 25.703125 53.5625 
Q 30.078125 56 35.796875 56 
Q 45.21875 56 50.046875 50.171875 
Q 54.890625 44.34375 54.890625 33.015625 
z
" id="DejaVuSans-104"/>
    </defs>
    <g transform="translate(211.415676 53.281778)scale(0.1 -0.1)">
     <use xlink:href="#DejaVuSans-67"/>
     <use x="69.824219" xlink:href="#DejaVuSans-51"/>
     <use x="133.447266" xlink:href="#DejaVuSans-47"/>
     <use x="167.138672" xlink:href="#DejaVuSans-67"/>
     <use x="236.962891" xlink:href="#DejaVuSans-49"/>
     <use x="300.585938" xlink:href="#DejaVuSans-45"/>
     <use x="336.669922" xlink:href="#DejaVuSans-67"/>
     <use x="406.494141" xlink:href="#DejaVuSans-49"/>
     <use x="470.117188" xlink:href="#DejaVuSans-110"/>
     <use x="533.496094" xlink:href="#DejaVuSans-45"/>
     <use x="569.580078" xlink:href="#DejaVuSans-67"/>
     <use x="639.404297" xlink:href="#DejaVuSans-51"/>
     <use x="703.027344" xlink:href="#DejaVuSans-118"/>
     <use x="759.582031" xlink:href="#DejaVuSans-45"/>
     <use x="795.666016" xlink:href="#DejaVuSans-67"/>
     <use x="865.490234" xlink:href="#DejaVuSans-49"/>
     <use x="929.113281" xlink:href="#DejaVuSans-113"/>
     <use x="992.589844" xlink:href="#DejaVuSans-45"/>
     <use x="1028.673828" xlink:href="#DejaVuSans-67"/>
     <use x="1098.498047" xlink:href="#DejaVuSans-51"/>
     <use x="1162.121094" xlink:href="#DejaVuSans-102"/>
     <use x="1197.326172" xlink:href="#DejaVuSans-104"/>
    </g>
   </g>
   <g id="text_22">
    <!-- C1/C42.2/C3-C1b -->
    <g transform="translate(114.04397 283.696021)scale(0.1 -0.1)">
     <use xlink:href="#DejaVuSans-67"/>
     <use x="69.824219" xlink:href="#DejaVuSans-49"/>
     <use x="133.447266" xlink:href="#DejaVuSans-47"/>
     <use x="167.138672" xlink:href="#DejaVuSans-67"/>
     <use x="236.962891" xlink:href="#DejaVuSans-52"/>
     <use x="300.585938" xlink:href="#DejaVuSans-50"/>
     <use x="364.208984" xlink:href="#DejaVuSans-46"/>
     <use x="395.996094" xlink:href="#DejaVuSans-50"/>
     <use x="459.619141" xlink:href="#DejaVuSans-47"/>
     <use x="493.310547" xlink:href="#DejaVuSans-67"/>
     <use x="563.134766" xlink:href="#DejaVuSans-51"/>
     <use x="626.757812" xlink:href="#DejaVuSans-45"/>
     <use x="662.841797" xlink:href="#DejaVuSans-67"/>
     <use x="732.666016" xlink:href="#DejaVuSans-49"/>
     <use x="796.289062" xlink:href="#DejaVuSans-98"/>
    </g>
   </g>
   <g id="text_23">
    <!-- C21ai/C21 -->
    <defs>
     <path d="M 9.421875 54.6875 
L 18.40625 54.6875 
L 18.40625 0 
L 9.421875 0 
z
M 9.421875 75.984375 
L 18.40625 75.984375 
L 18.40625 64.59375 
L 9.421875 64.59375 
z
" id="DejaVuSans-105"/>
    </defs>
    <g transform="translate(537.683938 401.003489)scale(0.1 -0.1)">
     <use xlink:href="#DejaVuSans-67"/>
     <use x="69.824219" xlink:href="#DejaVuSans-50"/>
     <use x="133.447266" xlink:href="#DejaVuSans-49"/>
     <use x="197.070312" xlink:href="#DejaVuSans-97"/>
     <use x="258.349609" xlink:href="#DejaVuSans-105"/>
     <use x="286.132812" xlink:href="#DejaVuSans-47"/>
     <use x="319.824219" xlink:href="#DejaVuSans-67"/>
     <use x="389.648438" xlink:href="#DejaVuSans-50"/>
     <use x="453.271484" xlink:href="#DejaVuSans-49"/>
    </g>
   </g>
   <g id="text_24">
    <!-- C3fn -->
    <g transform="translate(350.93062 527.551194)scale(0.1 -0.1)">
     <use xlink:href="#DejaVuSans-67"/>
     <use x="69.824219" xlink:href="#DejaVuSans-51"/>
     <use x="133.447266" xlink:href="#DejaVuSans-102"/>
     <use x="168.652344" xlink:href="#DejaVuSans-110"/>
    </g>
   </g>
   <g id="text_25">
    <!-- C1/C1b/C3-C1u-C1bo -->
    <defs>
     <path d="M 30.609375 48.390625 
Q 23.390625 48.390625 19.1875 42.75 
Q 14.984375 37.109375 14.984375 27.296875 
Q 14.984375 17.484375 19.15625 11.84375 
Q 23.34375 6.203125 30.609375 6.203125 
Q 37.796875 6.203125 41.984375 11.859375 
Q 46.1875 17.53125 46.1875 27.296875 
Q 46.1875 37.015625 41.984375 42.703125 
Q 37.796875 48.390625 30.609375 48.390625 
z
M 30.609375 56 
Q 42.328125 56 49.015625 48.375 
Q 55.71875 40.765625 55.71875 27.296875 
Q 55.71875 13.875 49.015625 6.21875 
Q 42.328125 -1.421875 30.609375 -1.421875 
Q 18.84375 -1.421875 12.171875 6.21875 
Q 5.515625 13.875 5.515625 27.296875 
Q 5.515625 40.765625 12.171875 48.375 
Q 18.84375 56 30.609375 56 
z
" id="DejaVuSans-111"/>
    </defs>
    <g transform="translate(141.606906 225.231072)scale(0.1 -0.1)">
     <use xlink:href="#DejaVuSans-67"/>
     <use x="69.824219" xlink:href="#DejaVuSans-49"/>
     <use x="133.447266" xlink:href="#DejaVuSans-47"/>
     <use x="167.138672" xlink:href="#DejaVuSans-67"/>
     <use x="236.962891" xlink:href="#DejaVuSans-49"/>
     <use x="300.585938" xlink:href="#DejaVuSans-98"/>
     <use x="364.0625" xlink:href="#DejaVuSans-47"/>
     <use x="397.753906" xlink:href="#DejaVuSans-67"/>
     <use x="467.578125" xlink:href="#DejaVuSans-51"/>
     <use x="531.201172" xlink:href="#DejaVuSans-45"/>
     <use x="567.285156" xlink:href="#DejaVuSans-67"/>
     <use x="637.109375" xlink:href="#DejaVuSans-49"/>
     <use x="700.732422" xlink:href="#DejaVuSans-117"/>
     <use x="764.111328" xlink:href="#DejaVuSans-45"/>
     <use x="800.195312" xlink:href="#DejaVuSans-67"/>
     <use x="870.019531" xlink:href="#DejaVuSans-49"/>
     <use x="933.642578" xlink:href="#DejaVuSans-98"/>
     <use x="997.119141" xlink:href="#DejaVuSans-111"/>
    </g>
   </g>
   <g id="text_26">
    <!-- C21-C21am-C3 -->
    <defs>
     <path d="M 52 44.1875 
Q 55.375 50.25 60.0625 53.125 
Q 64.75 56 71.09375 56 
Q 79.640625 56 84.28125 50.015625 
Q 88.921875 44.046875 88.921875 33.015625 
L 88.921875 0 
L 79.890625 0 
L 79.890625 32.71875 
Q 79.890625 40.578125 77.09375 44.375 
Q 74.3125 48.1875 68.609375 48.1875 
Q 61.625 48.1875 57.5625 43.546875 
Q 53.515625 38.921875 53.515625 30.90625 
L 53.515625 0 
L 44.484375 0 
L 44.484375 32.71875 
Q 44.484375 40.625 41.703125 44.40625 
Q 38.921875 48.1875 33.109375 48.1875 
Q 26.21875 48.1875 22.15625 43.53125 
Q 18.109375 38.875 18.109375 30.90625 
L 18.109375 0 
L 9.078125 0 
L 9.078125 54.6875 
L 18.109375 54.6875 
L 18.109375 46.1875 
Q 21.1875 51.21875 25.484375 53.609375 
Q 29.78125 56 35.6875 56 
Q 41.65625 56 45.828125 52.96875 
Q 50 49.953125 52 44.1875 
z
" id="DejaVuSans-109"/>
    </defs>
    <g transform="translate(510.962934 189.307607)scale(0.1 -0.1)">
     <use xlink:href="#DejaVuSans-67"/>
     <use x="69.824219" xlink:href="#DejaVuSans-50"/>
     <use x="133.447266" xlink:href="#DejaVuSans-49"/>
     <use x="197.070312" xlink:href="#DejaVuSans-45"/>
     <use x="233.154297" xlink:href="#DejaVuSans-67"/>
     <use x="302.978516" xlink:href="#DejaVuSans-50"/>
     <use x="366.601562" xlink:href="#DejaVuSans-49"/>
     <use x="430.224609" xlink:href="#DejaVuSans-97"/>
     <use x="491.503906" xlink:href="#DejaVuSans-109"/>
     <use x="588.916016" xlink:href="#DejaVuSans-45"/>
     <use x="625" xlink:href="#DejaVuSans-67"/>
     <use x="694.824219" xlink:href="#DejaVuSans-51"/>
    </g>
   </g>
   <g id="text_27">
    <!-- C1b -->
    <g transform="translate(281.940793 537.505547)scale(0.1 -0.1)">
     <use xlink:href="#DejaVuSans-67"/>
     <use x="69.824219" xlink:href="#DejaVuSans-49"/>
     <use x="133.447266" xlink:href="#DejaVuSans-98"/>
    </g>
   </g>
   <g id="text_28">
    <!-- C17d/C31-C21-C17f-C17e-C21ac -->
    <defs>
     <path d="M 8.203125 72.90625 
L 55.078125 72.90625 
L 55.078125 68.703125 
L 28.609375 0 
L 18.3125 0 
L 43.21875 64.59375 
L 8.203125 64.59375 
z
" id="DejaVuSans-55"/>
     <path d="M 56.203125 29.59375 
L 56.203125 25.203125 
L 14.890625 25.203125 
Q 15.484375 15.921875 20.484375 11.0625 
Q 25.484375 6.203125 34.421875 6.203125 
Q 39.59375 6.203125 44.453125 7.46875 
Q 49.3125 8.734375 54.109375 11.28125 
L 54.109375 2.78125 
Q 49.265625 0.734375 44.1875 -0.34375 
Q 39.109375 -1.421875 33.890625 -1.421875 
Q 20.796875 -1.421875 13.15625 6.1875 
Q 5.515625 13.8125 5.515625 26.8125 
Q 5.515625 40.234375 12.765625 48.109375 
Q 20.015625 56 32.328125 56 
Q 43.359375 56 49.78125 48.890625 
Q 56.203125 41.796875 56.203125 29.59375 
z
M 47.21875 32.234375 
Q 47.125 39.59375 43.09375 43.984375 
Q 39.0625 48.390625 32.421875 48.390625 
Q 24.90625 48.390625 20.390625 44.140625 
Q 15.875 39.890625 15.1875 32.171875 
z
" id="DejaVuSans-101"/>
    </defs>
    <g transform="translate(466.405298 493.089481)scale(0.1 -0.1)">
     <use xlink:href="#DejaVuSans-67"/>
     <use x="69.824219" xlink:href="#DejaVuSans-49"/>
     <use x="133.447266" xlink:href="#DejaVuSans-55"/>
     <use x="197.070312" xlink:href="#DejaVuSans-100"/>
     <use x="260.546875" xlink:href="#DejaVuSans-47"/>
     <use x="294.238281" xlink:href="#DejaVuSans-67"/>
     <use x="364.0625" xlink:href="#DejaVuSans-51"/>
     <use x="427.685547" xlink:href="#DejaVuSans-49"/>
     <use x="491.308594" xlink:href="#DejaVuSans-45"/>
     <use x="527.392578" xlink:href="#DejaVuSans-67"/>
     <use x="597.216797" xlink:href="#DejaVuSans-50"/>
     <use x="660.839844" xlink:href="#DejaVuSans-49"/>
     <use x="724.462891" xlink:href="#DejaVuSans-45"/>
     <use x="760.546875" xlink:href="#DejaVuSans-67"/>
     <use x="830.371094" xlink:href="#DejaVuSans-49"/>
     <use x="893.994141" xlink:href="#DejaVuSans-55"/>
     <use x="957.617188" xlink:href="#DejaVuSans-102"/>
     <use x="987.322266" xlink:href="#DejaVuSans-45"/>
     <use x="1023.40625" xlink:href="#DejaVuSans-67"/>
     <use x="1093.230469" xlink:href="#DejaVuSans-49"/>
     <use x="1156.853516" xlink:href="#DejaVuSans-55"/>
     <use x="1220.476562" xlink:href="#DejaVuSans-101"/>
     <use x="1282" xlink:href="#DejaVuSans-45"/>
     <use x="1318.083984" xlink:href="#DejaVuSans-67"/>
     <use x="1387.908203" xlink:href="#DejaVuSans-50"/>
     <use x="1451.53125" xlink:href="#DejaVuSans-49"/>
     <use x="1515.154297" xlink:href="#DejaVuSans-97"/>
     <use x="1576.433594" xlink:href="#DejaVuSans-99"/>
    </g>
   </g>
   <g id="text_29">
    <!-- C31-C21-C31d-C21ac-C21aj -->
    <defs>
     <path d="M 9.421875 54.6875 
L 18.40625 54.6875 
L 18.40625 -0.984375 
Q 18.40625 -11.421875 14.421875 -16.109375 
Q 10.453125 -20.796875 1.609375 -20.796875 
L -1.8125 -20.796875 
L -1.8125 -13.1875 
L 0.59375 -13.1875 
Q 5.71875 -13.1875 7.5625 -10.8125 
Q 9.421875 -8.453125 9.421875 -0.984375 
z
M 9.421875 75.984375 
L 18.40625 75.984375 
L 18.40625 64.59375 
L 9.421875 64.59375 
z
" id="DejaVuSans-106"/>
    </defs>
    <g transform="translate(486.532197 478.649913)scale(0.1 -0.1)">
     <use xlink:href="#DejaVuSans-67"/>
     <use x="69.824219" xlink:href="#DejaVuSans-51"/>
     <use x="133.447266" xlink:href="#DejaVuSans-49"/>
     <use x="197.070312" xlink:href="#DejaVuSans-45"/>
     <use x="233.154297" xlink:href="#DejaVuSans-67"/>
     <use x="302.978516" xlink:href="#DejaVuSans-50"/>
     <use x="366.601562" xlink:href="#DejaVuSans-49"/>
     <use x="430.224609" xlink:href="#DejaVuSans-45"/>
     <use x="466.308594" xlink:href="#DejaVuSans-67"/>
     <use x="536.132812" xlink:href="#DejaVuSans-51"/>
     <use x="599.755859" xlink:href="#DejaVuSans-49"/>
     <use x="663.378906" xlink:href="#DejaVuSans-100"/>
     <use x="726.855469" xlink:href="#DejaVuSans-45"/>
     <use x="762.939453" xlink:href="#DejaVuSans-67"/>
     <use x="832.763672" xlink:href="#DejaVuSans-50"/>
     <use x="896.386719" xlink:href="#DejaVuSans-49"/>
     <use x="960.009766" xlink:href="#DejaVuSans-97"/>
     <use x="1021.289062" xlink:href="#DejaVuSans-99"/>
     <use x="1076.269531" xlink:href="#DejaVuSans-45"/>
     <use x="1112.353516" xlink:href="#DejaVuSans-67"/>
     <use x="1182.177734" xlink:href="#DejaVuSans-50"/>
     <use x="1245.800781" xlink:href="#DejaVuSans-49"/>
     <use x="1309.423828" xlink:href="#DejaVuSans-97"/>
     <use x="1370.703125" xlink:href="#DejaVuSans-106"/>
    </g>
   </g>
   <g id="text_30">
    <!-- C50b/C1/C3-C1c-C1b -->
    <defs>
     <path d="M 10.796875 72.90625 
L 49.515625 72.90625 
L 49.515625 64.59375 
L 19.828125 64.59375 
L 19.828125 46.734375 
Q 21.96875 47.46875 24.109375 47.828125 
Q 26.265625 48.1875 28.421875 48.1875 
Q 40.625 48.1875 47.75 41.5 
Q 54.890625 34.8125 54.890625 23.390625 
Q 54.890625 11.625 47.5625 5.09375 
Q 40.234375 -1.421875 26.90625 -1.421875 
Q 22.3125 -1.421875 17.546875 -0.640625 
Q 12.796875 0.140625 7.71875 1.703125 
L 7.71875 11.625 
Q 12.109375 9.234375 16.796875 8.0625 
Q 21.484375 6.890625 26.703125 6.890625 
Q 35.15625 6.890625 40.078125 11.328125 
Q 45.015625 15.765625 45.015625 23.390625 
Q 45.015625 31 40.078125 35.4375 
Q 35.15625 39.890625 26.703125 39.890625 
Q 22.75 39.890625 18.8125 39.015625 
Q 14.890625 38.140625 10.796875 36.28125 
z
" id="DejaVuSans-53"/>
    </defs>
    <g transform="translate(127.388376 232.906538)scale(0.1 -0.1)">
     <use xlink:href="#DejaVuSans-67"/>
     <use x="69.824219" xlink:href="#DejaVuSans-53"/>
     <use x="133.447266" xlink:href="#DejaVuSans-48"/>
     <use x="197.070312" xlink:href="#DejaVuSans-98"/>
     <use x="260.546875" xlink:href="#DejaVuSans-47"/>
     <use x="294.238281" xlink:href="#DejaVuSans-67"/>
     <use x="364.0625" xlink:href="#DejaVuSans-49"/>
     <use x="427.685547" xlink:href="#DejaVuSans-47"/>
     <use x="461.376953" xlink:href="#DejaVuSans-67"/>
     <use x="531.201172" xlink:href="#DejaVuSans-51"/>
     <use x="594.824219" xlink:href="#DejaVuSans-45"/>
     <use x="630.908203" xlink:href="#DejaVuSans-67"/>
     <use x="700.732422" xlink:href="#DejaVuSans-49"/>
     <use x="764.355469" xlink:href="#DejaVuSans-99"/>
     <use x="819.335938" xlink:href="#DejaVuSans-45"/>
     <use x="855.419922" xlink:href="#DejaVuSans-67"/>
     <use x="925.244141" xlink:href="#DejaVuSans-49"/>
     <use x="988.867188" xlink:href="#DejaVuSans-98"/>
    </g>
   </g>
   <g id="text_31">
    <!-- C1/C1c-C1b-C1al-C42.2 -->
    <defs>
     <path d="M 9.421875 75.984375 
L 18.40625 75.984375 
L 18.40625 0 
L 9.421875 0 
z
" id="DejaVuSans-108"/>
    </defs>
    <g transform="translate(66.518063 456.856434)scale(0.1 -0.1)">
     <use xlink:href="#DejaVuSans-67"/>
     <use x="69.824219" xlink:href="#DejaVuSans-49"/>
     <use x="133.447266" xlink:href="#DejaVuSans-47"/>
     <use x="167.138672" xlink:href="#DejaVuSans-67"/>
     <use x="236.962891" xlink:href="#DejaVuSans-49"/>
     <use x="300.585938" xlink:href="#DejaVuSans-99"/>
     <use x="355.566406" xlink:href="#DejaVuSans-45"/>
     <use x="391.650391" xlink:href="#DejaVuSans-67"/>
     <use x="461.474609" xlink:href="#DejaVuSans-49"/>
     <use x="525.097656" xlink:href="#DejaVuSans-98"/>
     <use x="588.574219" xlink:href="#DejaVuSans-45"/>
     <use x="624.658203" xlink:href="#DejaVuSans-67"/>
     <use x="694.482422" xlink:href="#DejaVuSans-49"/>
     <use x="758.105469" xlink:href="#DejaVuSans-97"/>
     <use x="819.384766" xlink:href="#DejaVuSans-108"/>
     <use x="847.167969" xlink:href="#DejaVuSans-45"/>
     <use x="883.251953" xlink:href="#DejaVuSans-67"/>
     <use x="953.076172" xlink:href="#DejaVuSans-52"/>
     <use x="1016.699219" xlink:href="#DejaVuSans-50"/>
     <use x="1080.322266" xlink:href="#DejaVuSans-46"/>
     <use x="1112.109375" xlink:href="#DejaVuSans-50"/>
    </g>
   </g>
   <g id="text_32">
    <!-- C21-C21an-C21ao-C3 -->
    <g transform="translate(505.599485 214.578002)scale(0.1 -0.1)">
     <use xlink:href="#DejaVuSans-67"/>
     <use x="69.824219" xlink:href="#DejaVuSans-50"/>
     <use x="133.447266" xlink:href="#DejaVuSans-49"/>
     <use x="197.070312" xlink:href="#DejaVuSans-45"/>
     <use x="233.154297" xlink:href="#DejaVuSans-67"/>
     <use x="302.978516" xlink:href="#DejaVuSans-50"/>
     <use x="366.601562" xlink:href="#DejaVuSans-49"/>
     <use x="430.224609" xlink:href="#DejaVuSans-97"/>
     <use x="491.503906" xlink:href="#DejaVuSans-110"/>
     <use x="554.882812" xlink:href="#DejaVuSans-45"/>
     <use x="590.966797" xlink:href="#DejaVuSans-67"/>
     <use x="660.791016" xlink:href="#DejaVuSans-50"/>
     <use x="724.414062" xlink:href="#DejaVuSans-49"/>
     <use x="788.037109" xlink:href="#DejaVuSans-97"/>
     <use x="849.316406" xlink:href="#DejaVuSans-111"/>
     <use x="912.373047" xlink:href="#DejaVuSans-45"/>
     <use x="948.457031" xlink:href="#DejaVuSans-67"/>
     <use x="1018.28125" xlink:href="#DejaVuSans-51"/>
    </g>
   </g>
   <g id="text_33">
    <!-- C3/C3u/C3fq/C115-C1 -->
    <g transform="translate(229.99514 99.205949)scale(0.1 -0.1)">
     <use xlink:href="#DejaVuSans-67"/>
     <use x="69.824219" xlink:href="#DejaVuSans-51"/>
     <use x="133.447266" xlink:href="#DejaVuSans-47"/>
     <use x="167.138672" xlink:href="#DejaVuSans-67"/>
     <use x="236.962891" xlink:href="#DejaVuSans-51"/>
     <use x="300.585938" xlink:href="#DejaVuSans-117"/>
     <use x="363.964844" xlink:href="#DejaVuSans-47"/>
     <use x="397.65625" xlink:href="#DejaVuSans-67"/>
     <use x="467.480469" xlink:href="#DejaVuSans-51"/>
     <use x="531.103516" xlink:href="#DejaVuSans-102"/>
     <use x="566.308594" xlink:href="#DejaVuSans-113"/>
     <use x="629.785156" xlink:href="#DejaVuSans-47"/>
     <use x="663.476562" xlink:href="#DejaVuSans-67"/>
     <use x="733.300781" xlink:href="#DejaVuSans-49"/>
     <use x="796.923828" xlink:href="#DejaVuSans-49"/>
     <use x="860.546875" xlink:href="#DejaVuSans-53"/>
     <use x="924.169922" xlink:href="#DejaVuSans-45"/>
     <use x="960.253906" xlink:href="#DejaVuSans-67"/>
     <use x="1030.078125" xlink:href="#DejaVuSans-49"/>
    </g>
   </g>
   <g id="text_34">
    <!-- C3u/C3-C115-C1 -->
    <g transform="translate(208.058676 110.259849)scale(0.1 -0.1)">
     <use xlink:href="#DejaVuSans-67"/>
     <use x="69.824219" xlink:href="#DejaVuSans-51"/>
     <use x="133.447266" xlink:href="#DejaVuSans-117"/>
     <use x="196.826172" xlink:href="#DejaVuSans-47"/>
     <use x="230.517578" xlink:href="#DejaVuSans-67"/>
     <use x="300.341797" xlink:href="#DejaVuSans-51"/>
     <use x="363.964844" xlink:href="#DejaVuSans-45"/>
     <use x="400.048828" xlink:href="#DejaVuSans-67"/>
     <use x="469.873047" xlink:href="#DejaVuSans-49"/>
     <use x="533.496094" xlink:href="#DejaVuSans-49"/>
     <use x="597.119141" xlink:href="#DejaVuSans-53"/>
     <use x="660.742188" xlink:href="#DejaVuSans-45"/>
     <use x="696.826172" xlink:href="#DejaVuSans-67"/>
     <use x="766.650391" xlink:href="#DejaVuSans-49"/>
    </g>
   </g>
   <g id="text_35">
    <!-- C1-C1av-C1aw-C3ct-C3-C1c -->
    <g transform="translate(133.752513 271.8159)scale(0.1 -0.1)">
     <use xlink:href="#DejaVuSans-67"/>
     <use x="69.824219" xlink:href="#DejaVuSans-49"/>
     <use x="133.447266" xlink:href="#DejaVuSans-45"/>
     <use x="169.53125" xlink:href="#DejaVuSans-67"/>
     <use x="239.355469" xlink:href="#DejaVuSans-49"/>
     <use x="302.978516" xlink:href="#DejaVuSans-97"/>
     <use x="364.257812" xlink:href="#DejaVuSans-118"/>
     <use x="420.8125" xlink:href="#DejaVuSans-45"/>
     <use x="456.896484" xlink:href="#DejaVuSans-67"/>
     <use x="526.720703" xlink:href="#DejaVuSans-49"/>
     <use x="590.34375" xlink:href="#DejaVuSans-97"/>
     <use x="651.623047" xlink:href="#DejaVuSans-119"/>
     <use x="733.410156" xlink:href="#DejaVuSans-45"/>
     <use x="769.494141" xlink:href="#DejaVuSans-67"/>
     <use x="839.318359" xlink:href="#DejaVuSans-51"/>
     <use x="902.941406" xlink:href="#DejaVuSans-99"/>
     <use x="957.921875" xlink:href="#DejaVuSans-116"/>
     <use x="997.130859" xlink:href="#DejaVuSans-45"/>
     <use x="1033.214844" xlink:href="#DejaVuSans-67"/>
     <use x="1103.039062" xlink:href="#DejaVuSans-51"/>
     <use x="1166.662109" xlink:href="#DejaVuSans-45"/>
     <use x="1202.746094" xlink:href="#DejaVuSans-67"/>
     <use x="1272.570312" xlink:href="#DejaVuSans-49"/>
     <use x="1336.193359" xlink:href="#DejaVuSans-99"/>
    </g>
   </g>
   <g id="text_36">
    <!-- C8c/C8f-C42.2-C8e-C8 -->
    <g transform="translate(309.43244 584.819357)scale(0.1 -0.1)">
     <use xlink:href="#DejaVuSans-67"/>
     <use x="69.824219" xlink:href="#DejaVuSans-56"/>
     <use x="133.447266" xlink:href="#DejaVuSans-99"/>
     <use x="188.427734" xlink:href="#DejaVuSans-47"/>
     <use x="222.119141" xlink:href="#DejaVuSans-67"/>
     <use x="291.943359" xlink:href="#DejaVuSans-56"/>
     <use x="355.566406" xlink:href="#DejaVuSans-102"/>
     <use x="385.271484" xlink:href="#DejaVuSans-45"/>
     <use x="421.355469" xlink:href="#DejaVuSans-67"/>
     <use x="491.179688" xlink:href="#DejaVuSans-52"/>
     <use x="554.802734" xlink:href="#DejaVuSans-50"/>
     <use x="618.425781" xlink:href="#DejaVuSans-46"/>
     <use x="650.212891" xlink:href="#DejaVuSans-50"/>
     <use x="713.835938" xlink:href="#DejaVuSans-45"/>
     <use x="749.919922" xlink:href="#DejaVuSans-67"/>
     <use x="819.744141" xlink:href="#DejaVuSans-56"/>
     <use x="883.367188" xlink:href="#DejaVuSans-101"/>
     <use x="944.890625" xlink:href="#DejaVuSans-45"/>
     <use x="980.974609" xlink:href="#DejaVuSans-67"/>
     <use x="1050.798828" xlink:href="#DejaVuSans-56"/>
    </g>
   </g>
   <g id="text_37">
    <!-- C1/C3 -->
    <g transform="translate(146.977391 141.203561)scale(0.1 -0.1)">
     <use xlink:href="#DejaVuSans-67"/>
     <use x="69.824219" xlink:href="#DejaVuSans-49"/>
     <use x="133.447266" xlink:href="#DejaVuSans-47"/>
     <use x="167.138672" xlink:href="#DejaVuSans-67"/>
     <use x="236.962891" xlink:href="#DejaVuSans-51"/>
    </g>
   </g>
   <g id="text_38">
    <!-- C1/C3/C1c-C1b-C72k -->
    <defs>
     <path d="M 9.078125 75.984375 
L 18.109375 75.984375 
L 18.109375 31.109375 
L 44.921875 54.6875 
L 56.390625 54.6875 
L 27.390625 29.109375 
L 57.625 0 
L 45.90625 0 
L 18.109375 26.703125 
L 18.109375 0 
L 9.078125 0 
z
" id="DejaVuSans-107"/>
    </defs>
    <g transform="translate(101.515444 240.78207)scale(0.1 -0.1)">
     <use xlink:href="#DejaVuSans-67"/>
     <use x="69.824219" xlink:href="#DejaVuSans-49"/>
     <use x="133.447266" xlink:href="#DejaVuSans-47"/>
     <use x="167.138672" xlink:href="#DejaVuSans-67"/>
     <use x="236.962891" xlink:href="#DejaVuSans-51"/>
     <use x="300.585938" xlink:href="#DejaVuSans-47"/>
     <use x="334.277344" xlink:href="#DejaVuSans-67"/>
     <use x="404.101562" xlink:href="#DejaVuSans-49"/>
     <use x="467.724609" xlink:href="#DejaVuSans-99"/>
     <use x="522.705078" xlink:href="#DejaVuSans-45"/>
     <use x="558.789062" xlink:href="#DejaVuSans-67"/>
     <use x="628.613281" xlink:href="#DejaVuSans-49"/>
     <use x="692.236328" xlink:href="#DejaVuSans-98"/>
     <use x="755.712891" xlink:href="#DejaVuSans-45"/>
     <use x="791.796875" xlink:href="#DejaVuSans-67"/>
     <use x="861.621094" xlink:href="#DejaVuSans-55"/>
     <use x="925.244141" xlink:href="#DejaVuSans-50"/>
     <use x="988.867188" xlink:href="#DejaVuSans-107"/>
    </g>
   </g>
   <g id="text_39">
    <!-- C1/C3-C1c-C1b-C72k-C1w -->
    <g transform="translate(83.999098 335.92592)scale(0.1 -0.1)">
     <use xlink:href="#DejaVuSans-67"/>
     <use x="69.824219" xlink:href="#DejaVuSans-49"/>
     <use x="133.447266" xlink:href="#DejaVuSans-47"/>
     <use x="167.138672" xlink:href="#DejaVuSans-67"/>
     <use x="236.962891" xlink:href="#DejaVuSans-51"/>
     <use x="300.585938" xlink:href="#DejaVuSans-45"/>
     <use x="336.669922" xlink:href="#DejaVuSans-67"/>
     <use x="406.494141" xlink:href="#DejaVuSans-49"/>
     <use x="470.117188" xlink:href="#DejaVuSans-99"/>
     <use x="525.097656" xlink:href="#DejaVuSans-45"/>
     <use x="561.181641" xlink:href="#DejaVuSans-67"/>
     <use x="631.005859" xlink:href="#DejaVuSans-49"/>
     <use x="694.628906" xlink:href="#DejaVuSans-98"/>
     <use x="758.105469" xlink:href="#DejaVuSans-45"/>
     <use x="794.189453" xlink:href="#DejaVuSans-67"/>
     <use x="864.013672" xlink:href="#DejaVuSans-55"/>
     <use x="927.636719" xlink:href="#DejaVuSans-50"/>
     <use x="991.259766" xlink:href="#DejaVuSans-107"/>
     <use x="1049.169922" xlink:href="#DejaVuSans-45"/>
     <use x="1085.253906" xlink:href="#DejaVuSans-67"/>
     <use x="1155.078125" xlink:href="#DejaVuSans-49"/>
     <use x="1218.701172" xlink:href="#DejaVuSans-119"/>
    </g>
   </g>
   <g id="text_40">
    <!-- C3-C3de-C3bb-C21ae-C3an-C3s-C3dk -->
    <defs>
     <path d="M 44.28125 53.078125 
L 44.28125 44.578125 
Q 40.484375 46.53125 36.375 47.5 
Q 32.28125 48.484375 27.875 48.484375 
Q 21.1875 48.484375 17.84375 46.4375 
Q 14.5 44.390625 14.5 40.28125 
Q 14.5 37.15625 16.890625 35.375 
Q 19.28125 33.59375 26.515625 31.984375 
L 29.59375 31.296875 
Q 39.15625 29.25 43.1875 25.515625 
Q 47.21875 21.78125 47.21875 15.09375 
Q 47.21875 7.46875 41.1875 3.015625 
Q 35.15625 -1.421875 24.609375 -1.421875 
Q 20.21875 -1.421875 15.453125 -0.5625 
Q 10.6875 0.296875 5.421875 2 
L 5.421875 11.28125 
Q 10.40625 8.6875 15.234375 7.390625 
Q 20.0625 6.109375 24.8125 6.109375 
Q 31.15625 6.109375 34.5625 8.28125 
Q 37.984375 10.453125 37.984375 14.40625 
Q 37.984375 18.0625 35.515625 20.015625 
Q 33.0625 21.96875 24.703125 23.78125 
L 21.578125 24.515625 
Q 13.234375 26.265625 9.515625 29.90625 
Q 5.8125 33.546875 5.8125 39.890625 
Q 5.8125 47.609375 11.28125 51.796875 
Q 16.75 56 26.8125 56 
Q 31.78125 56 36.171875 55.265625 
Q 40.578125 54.546875 44.28125 53.078125 
z
" id="DejaVuSans-115"/>
    </defs>
    <g transform="translate(333.789727 169.289314)scale(0.1 -0.1)">
     <use xlink:href="#DejaVuSans-67"/>
     <use x="69.824219" xlink:href="#DejaVuSans-51"/>
     <use x="133.447266" xlink:href="#DejaVuSans-45"/>
     <use x="169.53125" xlink:href="#DejaVuSans-67"/>
     <use x="239.355469" xlink:href="#DejaVuSans-51"/>
     <use x="302.978516" xlink:href="#DejaVuSans-100"/>
     <use x="366.455078" xlink:href="#DejaVuSans-101"/>
     <use x="427.978516" xlink:href="#DejaVuSans-45"/>
     <use x="464.0625" xlink:href="#DejaVuSans-67"/>
     <use x="533.886719" xlink:href="#DejaVuSans-51"/>
     <use x="597.509766" xlink:href="#DejaVuSans-98"/>
     <use x="660.986328" xlink:href="#DejaVuSans-98"/>
     <use x="724.462891" xlink:href="#DejaVuSans-45"/>
     <use x="760.546875" xlink:href="#DejaVuSans-67"/>
     <use x="830.371094" xlink:href="#DejaVuSans-50"/>
     <use x="893.994141" xlink:href="#DejaVuSans-49"/>
     <use x="957.617188" xlink:href="#DejaVuSans-97"/>
     <use x="1018.896484" xlink:href="#DejaVuSans-101"/>
     <use x="1080.419922" xlink:href="#DejaVuSans-45"/>
     <use x="1116.503906" xlink:href="#DejaVuSans-67"/>
     <use x="1186.328125" xlink:href="#DejaVuSans-51"/>
     <use x="1249.951172" xlink:href="#DejaVuSans-97"/>
     <use x="1311.230469" xlink:href="#DejaVuSans-110"/>
     <use x="1374.609375" xlink:href="#DejaVuSans-45"/>
     <use x="1410.693359" xlink:href="#DejaVuSans-67"/>
     <use x="1480.517578" xlink:href="#DejaVuSans-51"/>
     <use x="1544.140625" xlink:href="#DejaVuSans-115"/>
     <use x="1596.240234" xlink:href="#DejaVuSans-45"/>
     <use x="1632.324219" xlink:href="#DejaVuSans-67"/>
     <use x="1702.148438" xlink:href="#DejaVuSans-51"/>
     <use x="1765.771484" xlink:href="#DejaVuSans-100"/>
     <use x="1829.248047" xlink:href="#DejaVuSans-107"/>
    </g>
   </g>
   <g id="text_41">
    <!-- C1d/C1/C42.2-C1b-C3cg-C3 -->
    <g transform="translate(119.191722 395.698085)scale(0.1 -0.1)">
     <use xlink:href="#DejaVuSans-67"/>
     <use x="69.824219" xlink:href="#DejaVuSans-49"/>
     <use x="133.447266" xlink:href="#DejaVuSans-100"/>
     <use x="196.923828" xlink:href="#DejaVuSans-47"/>
     <use x="230.615234" xlink:href="#DejaVuSans-67"/>
     <use x="300.439453" xlink:href="#DejaVuSans-49"/>
     <use x="364.0625" xlink:href="#DejaVuSans-47"/>
     <use x="397.753906" xlink:href="#DejaVuSans-67"/>
     <use x="467.578125" xlink:href="#DejaVuSans-52"/>
     <use x="531.201172" xlink:href="#DejaVuSans-50"/>
     <use x="594.824219" xlink:href="#DejaVuSans-46"/>
     <use x="626.611328" xlink:href="#DejaVuSans-50"/>
     <use x="690.234375" xlink:href="#DejaVuSans-45"/>
     <use x="726.318359" xlink:href="#DejaVuSans-67"/>
     <use x="796.142578" xlink:href="#DejaVuSans-49"/>
     <use x="859.765625" xlink:href="#DejaVuSans-98"/>
     <use x="923.242188" xlink:href="#DejaVuSans-45"/>
     <use x="959.326172" xlink:href="#DejaVuSans-67"/>
     <use x="1029.150391" xlink:href="#DejaVuSans-51"/>
     <use x="1092.773438" xlink:href="#DejaVuSans-99"/>
     <use x="1147.753906" xlink:href="#DejaVuSans-103"/>
     <use x="1211.230469" xlink:href="#DejaVuSans-45"/>
     <use x="1247.314453" xlink:href="#DejaVuSans-67"/>
     <use x="1317.138672" xlink:href="#DejaVuSans-51"/>
    </g>
   </g>
   <g id="text_42">
    <!-- C15-C15ed-C15ax -->
    <defs>
     <path d="M 54.890625 54.6875 
L 35.109375 28.078125 
L 55.90625 0 
L 45.3125 0 
L 29.390625 21.484375 
L 13.484375 0 
L 2.875 0 
L 24.125 28.609375 
L 4.6875 54.6875 
L 15.28125 54.6875 
L 29.78125 35.203125 
L 44.28125 54.6875 
z
" id="DejaVuSans-120"/>
    </defs>
    <g transform="translate(332.829722 566.410636)scale(0.1 -0.1)">
     <use xlink:href="#DejaVuSans-67"/>
     <use x="69.824219" xlink:href="#DejaVuSans-49"/>
     <use x="133.447266" xlink:href="#DejaVuSans-53"/>
     <use x="197.070312" xlink:href="#DejaVuSans-45"/>
     <use x="233.154297" xlink:href="#DejaVuSans-67"/>
     <use x="302.978516" xlink:href="#DejaVuSans-49"/>
     <use x="366.601562" xlink:href="#DejaVuSans-53"/>
     <use x="430.224609" xlink:href="#DejaVuSans-101"/>
     <use x="491.748047" xlink:href="#DejaVuSans-100"/>
     <use x="555.224609" xlink:href="#DejaVuSans-45"/>
     <use x="591.308594" xlink:href="#DejaVuSans-67"/>
     <use x="661.132812" xlink:href="#DejaVuSans-49"/>
     <use x="724.755859" xlink:href="#DejaVuSans-53"/>
     <use x="788.378906" xlink:href="#DejaVuSans-97"/>
     <use x="849.658203" xlink:href="#DejaVuSans-120"/>
    </g>
   </g>
   <g id="text_43">
    <!-- C15/C1 -->
    <g transform="translate(134.225753 471.715964)scale(0.1 -0.1)">
     <use xlink:href="#DejaVuSans-67"/>
     <use x="69.824219" xlink:href="#DejaVuSans-49"/>
     <use x="133.447266" xlink:href="#DejaVuSans-53"/>
     <use x="197.070312" xlink:href="#DejaVuSans-47"/>
     <use x="230.761719" xlink:href="#DejaVuSans-67"/>
     <use x="300.585938" xlink:href="#DejaVuSans-49"/>
    </g>
   </g>
   <g id="text_44">
    <!-- C21/C3 -->
    <g transform="translate(496.542659 99.748107)scale(0.1 -0.1)">
     <use xlink:href="#DejaVuSans-67"/>
     <use x="69.824219" xlink:href="#DejaVuSans-50"/>
     <use x="133.447266" xlink:href="#DejaVuSans-49"/>
     <use x="197.070312" xlink:href="#DejaVuSans-47"/>
     <use x="230.761719" xlink:href="#DejaVuSans-67"/>
     <use x="300.585938" xlink:href="#DejaVuSans-51"/>
    </g>
   </g>
   <g id="text_45">
    <!-- C1/C93a -->
    <g transform="translate(119.085836 418.488392)scale(0.1 -0.1)">
     <use xlink:href="#DejaVuSans-67"/>
     <use x="69.824219" xlink:href="#DejaVuSans-49"/>
     <use x="133.447266" xlink:href="#DejaVuSans-47"/>
     <use x="167.138672" xlink:href="#DejaVuSans-67"/>
     <use x="236.962891" xlink:href="#DejaVuSans-57"/>
     <use x="300.585938" xlink:href="#DejaVuSans-51"/>
     <use x="364.208984" xlink:href="#DejaVuSans-97"/>
    </g>
   </g>
   <g id="text_46">
    <!-- C42.2 -->
    <g transform="translate(290.844604 593.089091)scale(0.1 -0.1)">
     <use xlink:href="#DejaVuSans-67"/>
     <use x="69.824219" xlink:href="#DejaVuSans-52"/>
     <use x="133.447266" xlink:href="#DejaVuSans-50"/>
     <use x="197.070312" xlink:href="#DejaVuSans-46"/>
     <use x="228.857422" xlink:href="#DejaVuSans-50"/>
    </g>
   </g>
   <g id="text_47">
    <!-- C42.2/C1-C1b-C3-C1au -->
    <g transform="translate(102.717934 384.564743)scale(0.1 -0.1)">
     <use xlink:href="#DejaVuSans-67"/>
     <use x="69.824219" xlink:href="#DejaVuSans-52"/>
     <use x="133.447266" xlink:href="#DejaVuSans-50"/>
     <use x="197.070312" xlink:href="#DejaVuSans-46"/>
     <use x="228.857422" xlink:href="#DejaVuSans-50"/>
     <use x="292.480469" xlink:href="#DejaVuSans-47"/>
     <use x="326.171875" xlink:href="#DejaVuSans-67"/>
     <use x="395.996094" xlink:href="#DejaVuSans-49"/>
     <use x="459.619141" xlink:href="#DejaVuSans-45"/>
     <use x="495.703125" xlink:href="#DejaVuSans-67"/>
     <use x="565.527344" xlink:href="#DejaVuSans-49"/>
     <use x="629.150391" xlink:href="#DejaVuSans-98"/>
     <use x="692.626953" xlink:href="#DejaVuSans-45"/>
     <use x="728.710938" xlink:href="#DejaVuSans-67"/>
     <use x="798.535156" xlink:href="#DejaVuSans-51"/>
     <use x="862.158203" xlink:href="#DejaVuSans-45"/>
     <use x="898.242188" xlink:href="#DejaVuSans-67"/>
     <use x="968.066406" xlink:href="#DejaVuSans-49"/>
     <use x="1031.689453" xlink:href="#DejaVuSans-97"/>
     <use x="1092.96875" xlink:href="#DejaVuSans-117"/>
    </g>
   </g>
   <g id="text_48">
    <!-- C62 -->
    <defs>
     <path d="M 33.015625 40.375 
Q 26.375 40.375 22.484375 35.828125 
Q 18.609375 31.296875 18.609375 23.390625 
Q 18.609375 15.53125 22.484375 10.953125 
Q 26.375 6.390625 33.015625 6.390625 
Q 39.65625 6.390625 43.53125 10.953125 
Q 47.40625 15.53125 47.40625 23.390625 
Q 47.40625 31.296875 43.53125 35.828125 
Q 39.65625 40.375 33.015625 40.375 
z
M 52.59375 71.296875 
L 52.59375 62.3125 
Q 48.875 64.0625 45.09375 64.984375 
Q 41.3125 65.921875 37.59375 65.921875 
Q 27.828125 65.921875 22.671875 59.328125 
Q 17.53125 52.734375 16.796875 39.40625 
Q 19.671875 43.65625 24.015625 45.921875 
Q 28.375 48.1875 33.59375 48.1875 
Q 44.578125 48.1875 50.953125 41.515625 
Q 57.328125 34.859375 57.328125 23.390625 
Q 57.328125 12.15625 50.6875 5.359375 
Q 44.046875 -1.421875 33.015625 -1.421875 
Q 20.359375 -1.421875 13.671875 8.265625 
Q 6.984375 17.96875 6.984375 36.375 
Q 6.984375 53.65625 15.1875 63.9375 
Q 23.390625 74.21875 37.203125 74.21875 
Q 40.921875 74.21875 44.703125 73.484375 
Q 48.484375 72.75 52.59375 71.296875 
z
" id="DejaVuSans-54"/>
    </defs>
    <g transform="translate(350.93062 527.551194)scale(0.1 -0.1)">
     <use xlink:href="#DejaVuSans-67"/>
     <use x="69.824219" xlink:href="#DejaVuSans-54"/>
     <use x="133.447266" xlink:href="#DejaVuSans-50"/>
    </g>
   </g>
   <g id="text_49">
    <!-- C65 -->
    <g transform="translate(350.93062 527.551194)scale(0.1 -0.1)">
     <use xlink:href="#DejaVuSans-67"/>
     <use x="69.824219" xlink:href="#DejaVuSans-54"/>
     <use x="133.447266" xlink:href="#DejaVuSans-53"/>
    </g>
   </g>
   <g id="text_50">
    <!-- C1d/C1/C42.2/C3-C1b-C3cg-C45c-C115k-C1au-C41p -->
    <g transform="translate(140.979329 417.064179)scale(0.1 -0.1)">
     <use xlink:href="#DejaVuSans-67"/>
     <use x="69.824219" xlink:href="#DejaVuSans-49"/>
     <use x="133.447266" xlink:href="#DejaVuSans-100"/>
     <use x="196.923828" xlink:href="#DejaVuSans-47"/>
     <use x="230.615234" xlink:href="#DejaVuSans-67"/>
     <use x="300.439453" xlink:href="#DejaVuSans-49"/>
     <use x="364.0625" xlink:href="#DejaVuSans-47"/>
     <use x="397.753906" xlink:href="#DejaVuSans-67"/>
     <use x="467.578125" xlink:href="#DejaVuSans-52"/>
     <use x="531.201172" xlink:href="#DejaVuSans-50"/>
     <use x="594.824219" xlink:href="#DejaVuSans-46"/>
     <use x="626.611328" xlink:href="#DejaVuSans-50"/>
     <use x="690.234375" xlink:href="#DejaVuSans-47"/>
     <use x="723.925781" xlink:href="#DejaVuSans-67"/>
     <use x="793.75" xlink:href="#DejaVuSans-51"/>
     <use x="857.373047" xlink:href="#DejaVuSans-45"/>
     <use x="893.457031" xlink:href="#DejaVuSans-67"/>
     <use x="963.28125" xlink:href="#DejaVuSans-49"/>
     <use x="1026.904297" xlink:href="#DejaVuSans-98"/>
     <use x="1090.380859" xlink:href="#DejaVuSans-45"/>
     <use x="1126.464844" xlink:href="#DejaVuSans-67"/>
     <use x="1196.289062" xlink:href="#DejaVuSans-51"/>
     <use x="1259.912109" xlink:href="#DejaVuSans-99"/>
     <use x="1314.892578" xlink:href="#DejaVuSans-103"/>
     <use x="1378.369141" xlink:href="#DejaVuSans-45"/>
     <use x="1414.453125" xlink:href="#DejaVuSans-67"/>
     <use x="1484.277344" xlink:href="#DejaVuSans-52"/>
     <use x="1547.900391" xlink:href="#DejaVuSans-53"/>
     <use x="1611.523438" xlink:href="#DejaVuSans-99"/>
     <use x="1666.503906" xlink:href="#DejaVuSans-45"/>
     <use x="1702.587891" xlink:href="#DejaVuSans-67"/>
     <use x="1772.412109" xlink:href="#DejaVuSans-49"/>
     <use x="1836.035156" xlink:href="#DejaVuSans-49"/>
     <use x="1899.658203" xlink:href="#DejaVuSans-53"/>
     <use x="1963.28125" xlink:href="#DejaVuSans-107"/>
     <use x="2021.191406" xlink:href="#DejaVuSans-45"/>
     <use x="2057.275391" xlink:href="#DejaVuSans-67"/>
     <use x="2127.099609" xlink:href="#DejaVuSans-49"/>
     <use x="2190.722656" xlink:href="#DejaVuSans-97"/>
     <use x="2252.001953" xlink:href="#DejaVuSans-117"/>
     <use x="2315.380859" xlink:href="#DejaVuSans-45"/>
     <use x="2351.464844" xlink:href="#DejaVuSans-67"/>
     <use x="2421.289062" xlink:href="#DejaVuSans-52"/>
     <use x="2484.912109" xlink:href="#DejaVuSans-49"/>
     <use x="2548.535156" xlink:href="#DejaVuSans-112"/>
    </g>
   </g>
   <g id="text_51">
    <!-- C42a/C42.2/C1/C1b/C1j/C3-C1au -->
    <g transform="translate(137.764829 406.653534)scale(0.1 -0.1)">
     <use xlink:href="#DejaVuSans-67"/>
     <use x="69.824219" xlink:href="#DejaVuSans-52"/>
     <use x="133.447266" xlink:href="#DejaVuSans-50"/>
     <use x="197.070312" xlink:href="#DejaVuSans-97"/>
     <use x="258.349609" xlink:href="#DejaVuSans-47"/>
     <use x="292.041016" xlink:href="#DejaVuSans-67"/>
     <use x="361.865234" xlink:href="#DejaVuSans-52"/>
     <use x="425.488281" xlink:href="#DejaVuSans-50"/>
     <use x="489.111328" xlink:href="#DejaVuSans-46"/>
     <use x="520.898438" xlink:href="#DejaVuSans-50"/>
     <use x="584.521484" xlink:href="#DejaVuSans-47"/>
     <use x="618.212891" xlink:href="#DejaVuSans-67"/>
     <use x="688.037109" xlink:href="#DejaVuSans-49"/>
     <use x="751.660156" xlink:href="#DejaVuSans-47"/>
     <use x="785.351562" xlink:href="#DejaVuSans-67"/>
     <use x="855.175781" xlink:href="#DejaVuSans-49"/>
     <use x="918.798828" xlink:href="#DejaVuSans-98"/>
     <use x="982.275391" xlink:href="#DejaVuSans-47"/>
     <use x="1015.966797" xlink:href="#DejaVuSans-67"/>
     <use x="1085.791016" xlink:href="#DejaVuSans-49"/>
     <use x="1149.414062" xlink:href="#DejaVuSans-106"/>
     <use x="1177.197266" xlink:href="#DejaVuSans-47"/>
     <use x="1210.888672" xlink:href="#DejaVuSans-67"/>
     <use x="1280.712891" xlink:href="#DejaVuSans-51"/>
     <use x="1344.335938" xlink:href="#DejaVuSans-45"/>
     <use x="1380.419922" xlink:href="#DejaVuSans-67"/>
     <use x="1450.244141" xlink:href="#DejaVuSans-49"/>
     <use x="1513.867188" xlink:href="#DejaVuSans-97"/>
     <use x="1575.146484" xlink:href="#DejaVuSans-117"/>
    </g>
   </g>
   <g id="text_52">
    <!-- C50c/C50a/C3/C1-C50f-C3b-C50u -->
    <g transform="translate(290.210303 248.721568)scale(0.1 -0.1)">
     <use xlink:href="#DejaVuSans-67"/>
     <use x="69.824219" xlink:href="#DejaVuSans-53"/>
     <use x="133.447266" xlink:href="#DejaVuSans-48"/>
     <use x="197.070312" xlink:href="#DejaVuSans-99"/>
     <use x="252.050781" xlink:href="#DejaVuSans-47"/>
     <use x="285.742188" xlink:href="#DejaVuSans-67"/>
     <use x="355.566406" xlink:href="#DejaVuSans-53"/>
     <use x="419.189453" xlink:href="#DejaVuSans-48"/>
     <use x="482.8125" xlink:href="#DejaVuSans-97"/>
     <use x="544.091797" xlink:href="#DejaVuSans-47"/>
     <use x="577.783203" xlink:href="#DejaVuSans-67"/>
     <use x="647.607422" xlink:href="#DejaVuSans-51"/>
     <use x="711.230469" xlink:href="#DejaVuSans-47"/>
     <use x="744.921875" xlink:href="#DejaVuSans-67"/>
     <use x="814.746094" xlink:href="#DejaVuSans-49"/>
     <use x="878.369141" xlink:href="#DejaVuSans-45"/>
     <use x="914.453125" xlink:href="#DejaVuSans-67"/>
     <use x="984.277344" xlink:href="#DejaVuSans-53"/>
     <use x="1047.900391" xlink:href="#DejaVuSans-48"/>
     <use x="1111.523438" xlink:href="#DejaVuSans-102"/>
     <use x="1141.228516" xlink:href="#DejaVuSans-45"/>
     <use x="1177.3125" xlink:href="#DejaVuSans-67"/>
     <use x="1247.136719" xlink:href="#DejaVuSans-51"/>
     <use x="1310.759766" xlink:href="#DejaVuSans-98"/>
     <use x="1374.236328" xlink:href="#DejaVuSans-45"/>
     <use x="1410.320312" xlink:href="#DejaVuSans-67"/>
     <use x="1480.144531" xlink:href="#DejaVuSans-53"/>
     <use x="1543.767578" xlink:href="#DejaVuSans-48"/>
     <use x="1607.390625" xlink:href="#DejaVuSans-117"/>
    </g>
   </g>
   <g id="text_53">
    <!-- C3k/C50a/C3-C3ba-C1-C50y-C3dq-C50f -->
    <defs>
     <path d="M 32.171875 -5.078125 
Q 28.375 -14.84375 24.75 -17.8125 
Q 21.140625 -20.796875 15.09375 -20.796875 
L 7.90625 -20.796875 
L 7.90625 -13.28125 
L 13.1875 -13.28125 
Q 16.890625 -13.28125 18.9375 -11.515625 
Q 21 -9.765625 23.484375 -3.21875 
L 25.09375 0.875 
L 2.984375 54.6875 
L 12.5 54.6875 
L 29.59375 11.921875 
L 46.6875 54.6875 
L 56.203125 54.6875 
z
" id="DejaVuSans-121"/>
    </defs>
    <g transform="translate(269.361701 253.937901)scale(0.1 -0.1)">
     <use xlink:href="#DejaVuSans-67"/>
     <use x="69.824219" xlink:href="#DejaVuSans-51"/>
     <use x="133.447266" xlink:href="#DejaVuSans-107"/>
     <use x="191.357422" xlink:href="#DejaVuSans-47"/>
     <use x="225.048828" xlink:href="#DejaVuSans-67"/>
     <use x="294.873047" xlink:href="#DejaVuSans-53"/>
     <use x="358.496094" xlink:href="#DejaVuSans-48"/>
     <use x="422.119141" xlink:href="#DejaVuSans-97"/>
     <use x="483.398438" xlink:href="#DejaVuSans-47"/>
     <use x="517.089844" xlink:href="#DejaVuSans-67"/>
     <use x="586.914062" xlink:href="#DejaVuSans-51"/>
     <use x="650.537109" xlink:href="#DejaVuSans-45"/>
     <use x="686.621094" xlink:href="#DejaVuSans-67"/>
     <use x="756.445312" xlink:href="#DejaVuSans-51"/>
     <use x="820.068359" xlink:href="#DejaVuSans-98"/>
     <use x="883.544922" xlink:href="#DejaVuSans-97"/>
     <use x="944.824219" xlink:href="#DejaVuSans-45"/>
     <use x="980.908203" xlink:href="#DejaVuSans-67"/>
     <use x="1050.732422" xlink:href="#DejaVuSans-49"/>
     <use x="1114.355469" xlink:href="#DejaVuSans-45"/>
     <use x="1150.439453" xlink:href="#DejaVuSans-67"/>
     <use x="1220.263672" xlink:href="#DejaVuSans-53"/>
     <use x="1283.886719" xlink:href="#DejaVuSans-48"/>
     <use x="1347.509766" xlink:href="#DejaVuSans-121"/>
     <use x="1404.939453" xlink:href="#DejaVuSans-45"/>
     <use x="1441.023438" xlink:href="#DejaVuSans-67"/>
     <use x="1510.847656" xlink:href="#DejaVuSans-51"/>
     <use x="1574.470703" xlink:href="#DejaVuSans-100"/>
     <use x="1637.947266" xlink:href="#DejaVuSans-113"/>
     <use x="1701.423828" xlink:href="#DejaVuSans-45"/>
     <use x="1737.507812" xlink:href="#DejaVuSans-67"/>
     <use x="1807.332031" xlink:href="#DejaVuSans-53"/>
     <use x="1870.955078" xlink:href="#DejaVuSans-48"/>
     <use x="1934.578125" xlink:href="#DejaVuSans-102"/>
    </g>
   </g>
   <g id="text_54">
    <!-- C1-C1b-C1c-C42.2-C1br-C1bh-C1cb-C3 -->
    <defs>
     <path d="M 41.109375 46.296875 
Q 39.59375 47.171875 37.8125 47.578125 
Q 36.03125 48 33.890625 48 
Q 26.265625 48 22.1875 43.046875 
Q 18.109375 38.09375 18.109375 28.8125 
L 18.109375 0 
L 9.078125 0 
L 9.078125 54.6875 
L 18.109375 54.6875 
L 18.109375 46.1875 
Q 20.953125 51.171875 25.484375 53.578125 
Q 30.03125 56 36.53125 56 
Q 37.453125 56 38.578125 55.875 
Q 39.703125 55.765625 41.0625 55.515625 
z
" id="DejaVuSans-114"/>
    </defs>
    <g transform="translate(79.866571 404.037338)scale(0.1 -0.1)">
     <use xlink:href="#DejaVuSans-67"/>
     <use x="69.824219" xlink:href="#DejaVuSans-49"/>
     <use x="133.447266" xlink:href="#DejaVuSans-45"/>
     <use x="169.53125" xlink:href="#DejaVuSans-67"/>
     <use x="239.355469" xlink:href="#DejaVuSans-49"/>
     <use x="302.978516" xlink:href="#DejaVuSans-98"/>
     <use x="366.455078" xlink:href="#DejaVuSans-45"/>
     <use x="402.539062" xlink:href="#DejaVuSans-67"/>
     <use x="472.363281" xlink:href="#DejaVuSans-49"/>
     <use x="535.986328" xlink:href="#DejaVuSans-99"/>
     <use x="590.966797" xlink:href="#DejaVuSans-45"/>
     <use x="627.050781" xlink:href="#DejaVuSans-67"/>
     <use x="696.875" xlink:href="#DejaVuSans-52"/>
     <use x="760.498047" xlink:href="#DejaVuSans-50"/>
     <use x="824.121094" xlink:href="#DejaVuSans-46"/>
     <use x="855.908203" xlink:href="#DejaVuSans-50"/>
     <use x="919.53125" xlink:href="#DejaVuSans-45"/>
     <use x="955.615234" xlink:href="#DejaVuSans-67"/>
     <use x="1025.439453" xlink:href="#DejaVuSans-49"/>
     <use x="1089.0625" xlink:href="#DejaVuSans-98"/>
     <use x="1152.539062" xlink:href="#DejaVuSans-114"/>
     <use x="1187.277344" xlink:href="#DejaVuSans-45"/>
     <use x="1223.361328" xlink:href="#DejaVuSans-67"/>
     <use x="1293.185547" xlink:href="#DejaVuSans-49"/>
     <use x="1356.808594" xlink:href="#DejaVuSans-98"/>
     <use x="1420.285156" xlink:href="#DejaVuSans-104"/>
     <use x="1483.664062" xlink:href="#DejaVuSans-45"/>
     <use x="1519.748047" xlink:href="#DejaVuSans-67"/>
     <use x="1589.572266" xlink:href="#DejaVuSans-49"/>
     <use x="1653.195312" xlink:href="#DejaVuSans-99"/>
     <use x="1708.175781" xlink:href="#DejaVuSans-98"/>
     <use x="1771.652344" xlink:href="#DejaVuSans-45"/>
     <use x="1807.736328" xlink:href="#DejaVuSans-67"/>
     <use x="1877.560547" xlink:href="#DejaVuSans-51"/>
    </g>
   </g>
   <g id="text_55">
    <!-- C50a -->
    <g transform="translate(352.021805 510.41253)scale(0.1 -0.1)">
     <use xlink:href="#DejaVuSans-67"/>
     <use x="69.824219" xlink:href="#DejaVuSans-53"/>
     <use x="133.447266" xlink:href="#DejaVuSans-48"/>
     <use x="197.070312" xlink:href="#DejaVuSans-97"/>
    </g>
   </g>
   <g id="text_56">
    <!-- C1 -->
    <g transform="translate(118.665349 417.407245)scale(0.1 -0.1)">
     <use xlink:href="#DejaVuSans-67"/>
     <use x="69.824219" xlink:href="#DejaVuSans-49"/>
    </g>
   </g>
   <g id="text_57">
    <!-- between its2 type profile distances clade C braycurtis sqrt -->
    <defs>
     <path id="DejaVuSans-32"/>
    </defs>
    <g transform="translate(135.328064 19.44)scale(0.12 -0.12)">
     <use xlink:href="#DejaVuSans-98"/>
     <use x="63.476562" xlink:href="#DejaVuSans-101"/>
     <use x="125" xlink:href="#DejaVuSans-116"/>
     <use x="164.208984" xlink:href="#DejaVuSans-119"/>
     <use x="245.996094" xlink:href="#DejaVuSans-101"/>
     <use x="307.519531" xlink:href="#DejaVuSans-101"/>
     <use x="369.042969" xlink:href="#DejaVuSans-110"/>
     <use x="432.421875" xlink:href="#DejaVuSans-32"/>
     <use x="464.208984" xlink:href="#DejaVuSans-105"/>
     <use x="491.992188" xlink:href="#DejaVuSans-116"/>
     <use x="531.201172" xlink:href="#DejaVuSans-115"/>
     <use x="583.300781" xlink:href="#DejaVuSans-50"/>
     <use x="646.923828" xlink:href="#DejaVuSans-32"/>
     <use x="678.710938" xlink:href="#DejaVuSans-116"/>
     <use x="717.919922" xlink:href="#DejaVuSans-121"/>
     <use x="777.099609" xlink:href="#DejaVuSans-112"/>
     <use x="840.576172" xlink:href="#DejaVuSans-101"/>
     <use x="902.099609" xlink:href="#DejaVuSans-32"/>
     <use x="933.886719" xlink:href="#DejaVuSans-112"/>
     <use x="997.363281" xlink:href="#DejaVuSans-114"/>
     <use x="1036.226562" xlink:href="#DejaVuSans-111"/>
     <use x="1097.408203" xlink:href="#DejaVuSans-102"/>
     <use x="1132.613281" xlink:href="#DejaVuSans-105"/>
     <use x="1160.396484" xlink:href="#DejaVuSans-108"/>
     <use x="1188.179688" xlink:href="#DejaVuSans-101"/>
     <use x="1249.703125" xlink:href="#DejaVuSans-32"/>
     <use x="1281.490234" xlink:href="#DejaVuSans-100"/>
     <use x="1344.966797" xlink:href="#DejaVuSans-105"/>
     <use x="1372.75" xlink:href="#DejaVuSans-115"/>
     <use x="1424.849609" xlink:href="#DejaVuSans-116"/>
     <use x="1464.058594" xlink:href="#DejaVuSans-97"/>
     <use x="1525.337891" xlink:href="#DejaVuSans-110"/>
     <use x="1588.716797" xlink:href="#DejaVuSans-99"/>
     <use x="1643.697266" xlink:href="#DejaVuSans-101"/>
     <use x="1705.220703" xlink:href="#DejaVuSans-115"/>
     <use x="1757.320312" xlink:href="#DejaVuSans-32"/>
     <use x="1789.107422" xlink:href="#DejaVuSans-99"/>
     <use x="1844.087891" xlink:href="#DejaVuSans-108"/>
     <use x="1871.871094" xlink:href="#DejaVuSans-97"/>
     <use x="1933.150391" xlink:href="#DejaVuSans-100"/>
     <use x="1996.626953" xlink:href="#DejaVuSans-101"/>
     <use x="2058.150391" xlink:href="#DejaVuSans-32"/>
     <use x="2089.9375" xlink:href="#DejaVuSans-67"/>
     <use x="2159.761719" xlink:href="#DejaVuSans-32"/>
     <use x="2191.548828" xlink:href="#DejaVuSans-98"/>
     <use x="2255.025391" xlink:href="#DejaVuSans-114"/>
     <use x="2296.138672" xlink:href="#DejaVuSans-97"/>
     <use x="2357.417969" xlink:href="#DejaVuSans-121"/>
     <use x="2416.597656" xlink:href="#DejaVuSans-99"/>
     <use x="2471.578125" xlink:href="#DejaVuSans-117"/>
     <use x="2534.957031" xlink:href="#DejaVuSans-114"/>
     <use x="2576.070312" xlink:href="#DejaVuSans-116"/>
     <use x="2615.279297" xlink:href="#DejaVuSans-105"/>
     <use x="2643.0625" xlink:href="#DejaVuSans-115"/>
     <use x="2695.162109" xlink:href="#DejaVuSans-32"/>
     <use x="2726.949219" xlink:href="#DejaVuSans-115"/>
     <use x="2779.048828" xlink:href="#DejaVuSans-113"/>
     <use x="2842.525391" xlink:href="#DejaVuSans-114"/>
     <use x="2883.638672" xlink:href="#DejaVuSans-116"/>
    </g>
   </g>
  </g>
 </g>
 <defs>
  <clipPath id="p8a15ecdaed">
   <rect height="594.68" width="537.197377" x="42.1" y="25.44"/>
  </clipPath>
 </defs>
</svg>
