<?xml version="1.0" encoding="utf-8" standalone="no"?>
<!DOCTYPE svg PUBLIC "-//W3C//DTD SVG 1.1//EN"
  "http://www.w3.org/Graphics/SVG/1.1/DTD/svg11.dtd">
<!-- Created with matplotlib (https://matplotlib.org/) -->
<svg height="648pt" version="1.1" viewBox="0 0 648 648" width="648pt" xmlns="http://www.w3.org/2000/svg" xmlns:xlink="http://www.w3.org/1999/xlink">
 <defs>
  <style type="text/css">
*{stroke-linecap:butt;stroke-linejoin:round;}
  </style>
 </defs>
 <g id="figure_1">
  <g id="patch_1">
   <path d="M 0 648 
L 648 648 
L 648 0 
L 0 0 
z
" style="fill:#ffffff;"/>
  </g>
  <g id="axes_1">
   <g id="patch_2">
    <path d="M 48.49 620.12 
L 620.697273 620.12 
L 620.697273 25.44 
L 48.49 25.44 
z
" style="fill:#ffffff;"/>
   </g>
   <g id="PathCollection_1">
    <defs>
     <path d="M 0 3 
C 0.795609 3 1.55874 2.683901 2.12132 2.12132 
C 2.683901 1.55874 3 0.795609 3 0 
C 3 -0.795609 2.683901 -1.55874 2.12132 -2.12132 
C 1.55874 -2.683901 0.795609 -3 0 -3 
C -0.795609 -3 -1.55874 -2.683901 -2.12132 -2.12132 
C -2.683901 -1.55874 -3 -0.795609 -3 0 
C -3 0.795609 -2.683901 1.55874 -2.12132 2.12132 
C -1.55874 2.683901 -0.795609 3 0 3 
z
" id="mdc898f11bc" style="stroke:#000000;"/>
    </defs>
    <g clip-path="url(#p3d74a78e62)">
     <use style="stroke:#000000;" x="98.458066" xlink:href="#mdc898f11bc" y="580.611001"/>
     <use style="stroke:#000000;" x="97.842276" xlink:href="#mdc898f11bc" y="578.589477"/>
     <use style="stroke:#000000;" x="92.879308" xlink:href="#mdc898f11bc" y="584.91681"/>
     <use style="stroke:#000000;" x="98.241123" xlink:href="#mdc898f11bc" y="585.064227"/>
     <use style="stroke:#000000;" x="263.827804" xlink:href="#mdc898f11bc" y="437.215471"/>
     <use style="stroke:#000000;" x="85.67237" xlink:href="#mdc898f11bc" y="592.983624"/>
     <use style="stroke:#000000;" x="161.520716" xlink:href="#mdc898f11bc" y="523.016697"/>
     <use style="stroke:#000000;" x="273.140986" xlink:href="#mdc898f11bc" y="417.229972"/>
     <use style="stroke:#000000;" x="113.340827" xlink:href="#mdc898f11bc" y="569.551538"/>
     <use style="stroke:#000000;" x="143.157429" xlink:href="#mdc898f11bc" y="534.651381"/>
     <use style="stroke:#000000;" x="93.748666" xlink:href="#mdc898f11bc" y="586.501619"/>
     <use style="stroke:#000000;" x="252.504381" xlink:href="#mdc898f11bc" y="440.421049"/>
     <use style="stroke:#000000;" x="245.837486" xlink:href="#mdc898f11bc" y="437.097354"/>
     <use style="stroke:#000000;" x="264.247752" xlink:href="#mdc898f11bc" y="427.402102"/>
     <use style="stroke:#000000;" x="260.822083" xlink:href="#mdc898f11bc" y="428.608565"/>
     <use style="stroke:#000000;" x="257.492157" xlink:href="#mdc898f11bc" y="432.8755"/>
     <use style="stroke:#000000;" x="225.081919" xlink:href="#mdc898f11bc" y="436.886059"/>
     <use style="stroke:#000000;" x="255.838862" xlink:href="#mdc898f11bc" y="425.768509"/>
     <use style="stroke:#000000;" x="261.367645" xlink:href="#mdc898f11bc" y="423.41823"/>
     <use style="stroke:#000000;" x="240.879724" xlink:href="#mdc898f11bc" y="436.294414"/>
     <use style="stroke:#000000;" x="243.138892" xlink:href="#mdc898f11bc" y="436.584814"/>
     <use style="stroke:#000000;" x="255.748637" xlink:href="#mdc898f11bc" y="430.857002"/>
     <use style="stroke:#000000;" x="254.798298" xlink:href="#mdc898f11bc" y="436.138532"/>
     <use style="stroke:#000000;" x="253.928898" xlink:href="#mdc898f11bc" y="436.472066"/>
     <use style="stroke:#000000;" x="267.350913" xlink:href="#mdc898f11bc" y="426.568741"/>
     <use style="stroke:#000000;" x="257.230855" xlink:href="#mdc898f11bc" y="372.358831"/>
     <use style="stroke:#000000;" x="254.69517" xlink:href="#mdc898f11bc" y="435.511086"/>
     <use style="stroke:#000000;" x="336.678103" xlink:href="#mdc898f11bc" y="234.275465"/>
     <use style="stroke:#000000;" x="257.267063" xlink:href="#mdc898f11bc" y="430.607175"/>
     <use style="stroke:#000000;" x="276.921721" xlink:href="#mdc898f11bc" y="416.839684"/>
     <use style="stroke:#000000;" x="258.962993" xlink:href="#mdc898f11bc" y="429.902459"/>
     <use style="stroke:#000000;" x="235.550118" xlink:href="#mdc898f11bc" y="358.293073"/>
     <use style="stroke:#000000;" x="210.039833" xlink:href="#mdc898f11bc" y="460.909932"/>
     <use style="stroke:#000000;" x="232.622615" xlink:href="#mdc898f11bc" y="449.456729"/>
     <use style="stroke:#000000;" x="254.937246" xlink:href="#mdc898f11bc" y="435.217816"/>
     <use style="stroke:#000000;" x="242.58693" xlink:href="#mdc898f11bc" y="364.410741"/>
     <use style="stroke:#000000;" x="148.84568" xlink:href="#mdc898f11bc" y="400.731489"/>
     <use style="stroke:#000000;" x="247.328981" xlink:href="#mdc898f11bc" y="429.40523"/>
     <use style="stroke:#000000;" x="259.801265" xlink:href="#mdc898f11bc" y="426.866754"/>
     <use style="stroke:#000000;" x="254.210242" xlink:href="#mdc898f11bc" y="434.554701"/>
     <use style="stroke:#000000;" x="274.364922" xlink:href="#mdc898f11bc" y="415.881967"/>
     <use style="stroke:#000000;" x="274.796793" xlink:href="#mdc898f11bc" y="414.45915"/>
     <use style="stroke:#000000;" x="233.742081" xlink:href="#mdc898f11bc" y="356.160914"/>
     <use style="stroke:#000000;" x="139.691963" xlink:href="#mdc898f11bc" y="403.741944"/>
     <use style="stroke:#000000;" x="342.279351" xlink:href="#mdc898f11bc" y="305.084815"/>
     <use style="stroke:#000000;" x="74.499421" xlink:href="#mdc898f11bc" y="593.089091"/>
     <use style="stroke:#000000;" x="97.366692" xlink:href="#mdc898f11bc" y="579.680933"/>
     <use style="stroke:#000000;" x="255.007103" xlink:href="#mdc898f11bc" y="371.889352"/>
     <use style="stroke:#000000;" x="293.777732" xlink:href="#mdc898f11bc" y="320.805603"/>
     <use style="stroke:#000000;" x="318.420722" xlink:href="#mdc898f11bc" y="302.251328"/>
     <use style="stroke:#000000;" x="259.438542" xlink:href="#mdc898f11bc" y="410.098016"/>
     <use style="stroke:#000000;" x="261.625289" xlink:href="#mdc898f11bc" y="353.516059"/>
     <use style="stroke:#000000;" x="579.3746" xlink:href="#mdc898f11bc" y="568.084421"/>
     <use style="stroke:#000000;" x="594.687851" xlink:href="#mdc898f11bc" y="570.722559"/>
     <use style="stroke:#000000;" x="263.661611" xlink:href="#mdc898f11bc" y="425.21642"/>
     <use style="stroke:#000000;" x="268.652314" xlink:href="#mdc898f11bc" y="424.300744"/>
     <use style="stroke:#000000;" x="331.736766" xlink:href="#mdc898f11bc" y="251.234128"/>
     <use style="stroke:#000000;" x="345.42894" xlink:href="#mdc898f11bc" y="56.936136"/>
     <use style="stroke:#000000;" x="593.923783" xlink:href="#mdc898f11bc" y="576.604065"/>
     <use style="stroke:#000000;" x="246.644909" xlink:href="#mdc898f11bc" y="359.041691"/>
     <use style="stroke:#000000;" x="149.261239" xlink:href="#mdc898f11bc" y="532.393991"/>
     <use style="stroke:#000000;" x="278.483469" xlink:href="#mdc898f11bc" y="350.365028"/>
     <use style="stroke:#000000;" x="256.300319" xlink:href="#mdc898f11bc" y="388.382852"/>
     <use style="stroke:#000000;" x="586.864262" xlink:href="#mdc898f11bc" y="572.762782"/>
     <use style="stroke:#000000;" x="575.918889" xlink:href="#mdc898f11bc" y="550.260471"/>
     <use style="stroke:#000000;" x="342.028507" xlink:href="#mdc898f11bc" y="71.047909"/>
     <use style="stroke:#000000;" x="257.03281" xlink:href="#mdc898f11bc" y="384.393116"/>
     <use style="stroke:#000000;" x="343.448391" xlink:href="#mdc898f11bc" y="215.172086"/>
     <use style="stroke:#000000;" x="336.55221" xlink:href="#mdc898f11bc" y="240.229647"/>
     <use style="stroke:#000000;" x="576.783392" xlink:href="#mdc898f11bc" y="555.945231"/>
     <use style="stroke:#000000;" x="576.718652" xlink:href="#mdc898f11bc" y="565.770258"/>
     <use style="stroke:#000000;" x="329.314594" xlink:href="#mdc898f11bc" y="239.936927"/>
     <use style="stroke:#000000;" x="345.413882" xlink:href="#mdc898f11bc" y="265.191345"/>
     <use style="stroke:#000000;" x="336.143605" xlink:href="#mdc898f11bc" y="52.470909"/>
     <use style="stroke:#000000;" x="344.020255" xlink:href="#mdc898f11bc" y="62.020126"/>
     <use style="stroke:#000000;" x="331.812891" xlink:href="#mdc898f11bc" y="232.753757"/>
     <use style="stroke:#000000;" x="285.207389" xlink:href="#mdc898f11bc" y="422.44702"/>
     <use style="stroke:#000000;" x="330.38423" xlink:href="#mdc898f11bc" y="310.98693"/>
     <use style="stroke:#000000;" x="329.179823" xlink:href="#mdc898f11bc" y="301.606864"/>
     <use style="stroke:#000000;" x="338.667102" xlink:href="#mdc898f11bc" y="237.898767"/>
     <use style="stroke:#000000;" x="338.564982" xlink:href="#mdc898f11bc" y="230.644671"/>
     <use style="stroke:#000000;" x="342.280127" xlink:href="#mdc898f11bc" y="303.008057"/>
     <use style="stroke:#000000;" x="325.368068" xlink:href="#mdc898f11bc" y="303.902973"/>
     <use style="stroke:#000000;" x="322.262383" xlink:href="#mdc898f11bc" y="315.929393"/>
     <use style="stroke:#000000;" x="248.323126" xlink:href="#mdc898f11bc" y="404.265084"/>
     <use style="stroke:#000000;" x="255.91337" xlink:href="#mdc898f11bc" y="386.421329"/>
     <use style="stroke:#000000;" x="253.191877" xlink:href="#mdc898f11bc" y="389.747057"/>
     <use style="stroke:#000000;" x="329.909001" xlink:href="#mdc898f11bc" y="289.722693"/>
     <use style="stroke:#000000;" x="247.382466" xlink:href="#mdc898f11bc" y="402.837494"/>
     <use style="stroke:#000000;" x="323.663325" xlink:href="#mdc898f11bc" y="280.726297"/>
     <use style="stroke:#000000;" x="270.686832" xlink:href="#mdc898f11bc" y="427.696747"/>
     <use style="stroke:#000000;" x="330.645914" xlink:href="#mdc898f11bc" y="300.065049"/>
     <use style="stroke:#000000;" x="266.157497" xlink:href="#mdc898f11bc" y="425.072948"/>
     <use style="stroke:#000000;" x="216.725723" xlink:href="#mdc898f11bc" y="434.759561"/>
     <use style="stroke:#000000;" x="580.851198" xlink:href="#mdc898f11bc" y="569.915597"/>
     <use style="stroke:#000000;" x="576.516256" xlink:href="#mdc898f11bc" y="566.699856"/>
     <use style="stroke:#000000;" x="580.391464" xlink:href="#mdc898f11bc" y="569.196577"/>
     <use style="stroke:#000000;" x="577.108257" xlink:href="#mdc898f11bc" y="567.540018"/>
     <use style="stroke:#000000;" x="583.880049" xlink:href="#mdc898f11bc" y="572.372655"/>
     <use style="stroke:#000000;" x="262.651288" xlink:href="#mdc898f11bc" y="387.827734"/>
     <use style="stroke:#000000;" x="304.413372" xlink:href="#mdc898f11bc" y="305.015819"/>
    </g>
   </g>
   <g id="matplotlib.axis_1">
    <g id="xtick_1">
     <g id="line2d_1">
      <defs>
       <path d="M 0 0 
L 0 3.5 
" id="mda319bb471" style="stroke:#000000;stroke-width:0.8;"/>
      </defs>
      <g>
       <use style="stroke:#000000;stroke-width:0.8;" x="82.084636" xlink:href="#mda319bb471" y="620.12"/>
      </g>
     </g>
     <g id="text_1">
      <!-- −0.2 -->
      <defs>
       <path d="M 10.59375 35.5 
L 73.1875 35.5 
L 73.1875 27.203125 
L 10.59375 27.203125 
z
" id="DejaVuSans-8722"/>
       <path d="M 31.78125 66.40625 
Q 24.171875 66.40625 20.328125 58.90625 
Q 16.5 51.421875 16.5 36.375 
Q 16.5 21.390625 20.328125 13.890625 
Q 24.171875 6.390625 31.78125 6.390625 
Q 39.453125 6.390625 43.28125 13.890625 
Q 47.125 21.390625 47.125 36.375 
Q 47.125 51.421875 43.28125 58.90625 
Q 39.453125 66.40625 31.78125 66.40625 
z
M 31.78125 74.21875 
Q 44.046875 74.21875 50.515625 64.515625 
Q 56.984375 54.828125 56.984375 36.375 
Q 56.984375 17.96875 50.515625 8.265625 
Q 44.046875 -1.421875 31.78125 -1.421875 
Q 19.53125 -1.421875 13.0625 8.265625 
Q 6.59375 17.96875 6.59375 36.375 
Q 6.59375 54.828125 13.0625 64.515625 
Q 19.53125 74.21875 31.78125 74.21875 
z
" id="DejaVuSans-48"/>
       <path d="M 10.6875 12.40625 
L 21 12.40625 
L 21 0 
L 10.6875 0 
z
" id="DejaVuSans-46"/>
       <path d="M 19.1875 8.296875 
L 53.609375 8.296875 
L 53.609375 0 
L 7.328125 0 
L 7.328125 8.296875 
Q 12.9375 14.109375 22.625 23.890625 
Q 32.328125 33.6875 34.8125 36.53125 
Q 39.546875 41.84375 41.421875 45.53125 
Q 43.3125 49.21875 43.3125 52.78125 
Q 43.3125 58.59375 39.234375 62.25 
Q 35.15625 65.921875 28.609375 65.921875 
Q 23.96875 65.921875 18.8125 64.3125 
Q 13.671875 62.703125 7.8125 59.421875 
L 7.8125 69.390625 
Q 13.765625 71.78125 18.9375 73 
Q 24.125 74.21875 28.421875 74.21875 
Q 39.75 74.21875 46.484375 68.546875 
Q 53.21875 62.890625 53.21875 53.421875 
Q 53.21875 48.921875 51.53125 44.890625 
Q 49.859375 40.875 45.40625 35.40625 
Q 44.1875 33.984375 37.640625 27.21875 
Q 31.109375 20.453125 19.1875 8.296875 
z
" id="DejaVuSans-50"/>
      </defs>
      <g transform="translate(69.943229 634.718438)scale(0.1 -0.1)">
       <use xlink:href="#DejaVuSans-8722"/>
       <use x="83.789062" xlink:href="#DejaVuSans-48"/>
       <use x="147.412109" xlink:href="#DejaVuSans-46"/>
       <use x="179.199219" xlink:href="#DejaVuSans-50"/>
      </g>
     </g>
    </g>
    <g id="xtick_2">
     <g id="line2d_2">
      <g>
       <use style="stroke:#000000;stroke-width:0.8;" x="187.696228" xlink:href="#mda319bb471" y="620.12"/>
      </g>
     </g>
     <g id="text_2">
      <!-- −0.1 -->
      <defs>
       <path d="M 12.40625 8.296875 
L 28.515625 8.296875 
L 28.515625 63.921875 
L 10.984375 60.40625 
L 10.984375 69.390625 
L 28.421875 72.90625 
L 38.28125 72.90625 
L 38.28125 8.296875 
L 54.390625 8.296875 
L 54.390625 0 
L 12.40625 0 
z
" id="DejaVuSans-49"/>
      </defs>
      <g transform="translate(175.554822 634.718438)scale(0.1 -0.1)">
       <use xlink:href="#DejaVuSans-8722"/>
       <use x="83.789062" xlink:href="#DejaVuSans-48"/>
       <use x="147.412109" xlink:href="#DejaVuSans-46"/>
       <use x="179.199219" xlink:href="#DejaVuSans-49"/>
      </g>
     </g>
    </g>
    <g id="xtick_3">
     <g id="line2d_3">
      <g>
       <use style="stroke:#000000;stroke-width:0.8;" x="293.307821" xlink:href="#mda319bb471" y="620.12"/>
      </g>
     </g>
     <g id="text_3">
      <!-- 0.0 -->
      <g transform="translate(285.356258 634.718438)scale(0.1 -0.1)">
       <use xlink:href="#DejaVuSans-48"/>
       <use x="63.623047" xlink:href="#DejaVuSans-46"/>
       <use x="95.410156" xlink:href="#DejaVuSans-48"/>
      </g>
     </g>
    </g>
    <g id="xtick_4">
     <g id="line2d_4">
      <g>
       <use style="stroke:#000000;stroke-width:0.8;" x="398.919413" xlink:href="#mda319bb471" y="620.12"/>
      </g>
     </g>
     <g id="text_4">
      <!-- 0.1 -->
      <g transform="translate(390.967851 634.718438)scale(0.1 -0.1)">
       <use xlink:href="#DejaVuSans-48"/>
       <use x="63.623047" xlink:href="#DejaVuSans-46"/>
       <use x="95.410156" xlink:href="#DejaVuSans-49"/>
      </g>
     </g>
    </g>
    <g id="xtick_5">
     <g id="line2d_5">
      <g>
       <use style="stroke:#000000;stroke-width:0.8;" x="504.531006" xlink:href="#mda319bb471" y="620.12"/>
      </g>
     </g>
     <g id="text_5">
      <!-- 0.2 -->
      <g transform="translate(496.579443 634.718438)scale(0.1 -0.1)">
       <use xlink:href="#DejaVuSans-48"/>
       <use x="63.623047" xlink:href="#DejaVuSans-46"/>
       <use x="95.410156" xlink:href="#DejaVuSans-50"/>
      </g>
     </g>
    </g>
    <g id="xtick_6">
     <g id="line2d_6">
      <g>
       <use style="stroke:#000000;stroke-width:0.8;" x="610.142599" xlink:href="#mda319bb471" y="620.12"/>
      </g>
     </g>
     <g id="text_6">
      <!-- 0.3 -->
      <defs>
       <path d="M 40.578125 39.3125 
Q 47.65625 37.796875 51.625 33 
Q 55.609375 28.21875 55.609375 21.1875 
Q 55.609375 10.40625 48.1875 4.484375 
Q 40.765625 -1.421875 27.09375 -1.421875 
Q 22.515625 -1.421875 17.65625 -0.515625 
Q 12.796875 0.390625 7.625 2.203125 
L 7.625 11.71875 
Q 11.71875 9.328125 16.59375 8.109375 
Q 21.484375 6.890625 26.8125 6.890625 
Q 36.078125 6.890625 40.9375 10.546875 
Q 45.796875 14.203125 45.796875 21.1875 
Q 45.796875 27.640625 41.28125 31.265625 
Q 36.765625 34.90625 28.71875 34.90625 
L 20.21875 34.90625 
L 20.21875 43.015625 
L 29.109375 43.015625 
Q 36.375 43.015625 40.234375 45.921875 
Q 44.09375 48.828125 44.09375 54.296875 
Q 44.09375 59.90625 40.109375 62.90625 
Q 36.140625 65.921875 28.71875 65.921875 
Q 24.65625 65.921875 20.015625 65.03125 
Q 15.375 64.15625 9.8125 62.3125 
L 9.8125 71.09375 
Q 15.4375 72.65625 20.34375 73.4375 
Q 25.25 74.21875 29.59375 74.21875 
Q 40.828125 74.21875 47.359375 69.109375 
Q 53.90625 64.015625 53.90625 55.328125 
Q 53.90625 49.265625 50.4375 45.09375 
Q 46.96875 40.921875 40.578125 39.3125 
z
" id="DejaVuSans-51"/>
      </defs>
      <g transform="translate(602.191036 634.718438)scale(0.1 -0.1)">
       <use xlink:href="#DejaVuSans-48"/>
       <use x="63.623047" xlink:href="#DejaVuSans-46"/>
       <use x="95.410156" xlink:href="#DejaVuSans-51"/>
      </g>
     </g>
    </g>
   </g>
   <g id="matplotlib.axis_2">
    <g id="ytick_1">
     <g id="line2d_7">
      <defs>
       <path d="M 0 0 
L -3.5 0 
" id="m2fb8184637" style="stroke:#000000;stroke-width:0.8;"/>
      </defs>
      <g>
       <use style="stroke:#000000;stroke-width:0.8;" x="48.49" xlink:href="#m2fb8184637" y="584.416233"/>
      </g>
     </g>
     <g id="text_7">
      <!-- −0.10 -->
      <g transform="translate(10.844688 588.215452)scale(0.1 -0.1)">
       <use xlink:href="#DejaVuSans-8722"/>
       <use x="83.789062" xlink:href="#DejaVuSans-48"/>
       <use x="147.412109" xlink:href="#DejaVuSans-46"/>
       <use x="179.199219" xlink:href="#DejaVuSans-49"/>
       <use x="242.822266" xlink:href="#DejaVuSans-48"/>
      </g>
     </g>
    </g>
    <g id="ytick_2">
     <g id="line2d_8">
      <g>
       <use style="stroke:#000000;stroke-width:0.8;" x="48.49" xlink:href="#m2fb8184637" y="496.016378"/>
      </g>
     </g>
     <g id="text_8">
      <!-- −0.05 -->
      <defs>
       <path d="M 10.796875 72.90625 
L 49.515625 72.90625 
L 49.515625 64.59375 
L 19.828125 64.59375 
L 19.828125 46.734375 
Q 21.96875 47.46875 24.109375 47.828125 
Q 26.265625 48.1875 28.421875 48.1875 
Q 40.625 48.1875 47.75 41.5 
Q 54.890625 34.8125 54.890625 23.390625 
Q 54.890625 11.625 47.5625 5.09375 
Q 40.234375 -1.421875 26.90625 -1.421875 
Q 22.3125 -1.421875 17.546875 -0.640625 
Q 12.796875 0.140625 7.71875 1.703125 
L 7.71875 11.625 
Q 12.109375 9.234375 16.796875 8.0625 
Q 21.484375 6.890625 26.703125 6.890625 
Q 35.15625 6.890625 40.078125 11.328125 
Q 45.015625 15.765625 45.015625 23.390625 
Q 45.015625 31 40.078125 35.4375 
Q 35.15625 39.890625 26.703125 39.890625 
Q 22.75 39.890625 18.8125 39.015625 
Q 14.890625 38.140625 10.796875 36.28125 
z
" id="DejaVuSans-53"/>
      </defs>
      <g transform="translate(10.844688 499.815597)scale(0.1 -0.1)">
       <use xlink:href="#DejaVuSans-8722"/>
       <use x="83.789062" xlink:href="#DejaVuSans-48"/>
       <use x="147.412109" xlink:href="#DejaVuSans-46"/>
       <use x="179.199219" xlink:href="#DejaVuSans-48"/>
       <use x="242.822266" xlink:href="#DejaVuSans-53"/>
      </g>
     </g>
    </g>
    <g id="ytick_3">
     <g id="line2d_9">
      <g>
       <use style="stroke:#000000;stroke-width:0.8;" x="48.49" xlink:href="#m2fb8184637" y="407.616524"/>
      </g>
     </g>
     <g id="text_9">
      <!-- 0.00 -->
      <g transform="translate(19.224375 411.415742)scale(0.1 -0.1)">
       <use xlink:href="#DejaVuSans-48"/>
       <use x="63.623047" xlink:href="#DejaVuSans-46"/>
       <use x="95.410156" xlink:href="#DejaVuSans-48"/>
       <use x="159.033203" xlink:href="#DejaVuSans-48"/>
      </g>
     </g>
    </g>
    <g id="ytick_4">
     <g id="line2d_10">
      <g>
       <use style="stroke:#000000;stroke-width:0.8;" x="48.49" xlink:href="#m2fb8184637" y="319.216669"/>
      </g>
     </g>
     <g id="text_10">
      <!-- 0.05 -->
      <g transform="translate(19.224375 323.015887)scale(0.1 -0.1)">
       <use xlink:href="#DejaVuSans-48"/>
       <use x="63.623047" xlink:href="#DejaVuSans-46"/>
       <use x="95.410156" xlink:href="#DejaVuSans-48"/>
       <use x="159.033203" xlink:href="#DejaVuSans-53"/>
      </g>
     </g>
    </g>
    <g id="ytick_5">
     <g id="line2d_11">
      <g>
       <use style="stroke:#000000;stroke-width:0.8;" x="48.49" xlink:href="#m2fb8184637" y="230.816814"/>
      </g>
     </g>
     <g id="text_11">
      <!-- 0.10 -->
      <g transform="translate(19.224375 234.616033)scale(0.1 -0.1)">
       <use xlink:href="#DejaVuSans-48"/>
       <use x="63.623047" xlink:href="#DejaVuSans-46"/>
       <use x="95.410156" xlink:href="#DejaVuSans-49"/>
       <use x="159.033203" xlink:href="#DejaVuSans-48"/>
      </g>
     </g>
    </g>
    <g id="ytick_6">
     <g id="line2d_12">
      <g>
       <use style="stroke:#000000;stroke-width:0.8;" x="48.49" xlink:href="#m2fb8184637" y="142.416959"/>
      </g>
     </g>
     <g id="text_12">
      <!-- 0.15 -->
      <g transform="translate(19.224375 146.216178)scale(0.1 -0.1)">
       <use xlink:href="#DejaVuSans-48"/>
       <use x="63.623047" xlink:href="#DejaVuSans-46"/>
       <use x="95.410156" xlink:href="#DejaVuSans-49"/>
       <use x="159.033203" xlink:href="#DejaVuSans-53"/>
      </g>
     </g>
    </g>
    <g id="ytick_7">
     <g id="line2d_13">
      <g>
       <use style="stroke:#000000;stroke-width:0.8;" x="48.49" xlink:href="#m2fb8184637" y="54.017104"/>
      </g>
     </g>
     <g id="text_13">
      <!-- 0.20 -->
      <g transform="translate(19.224375 57.816323)scale(0.1 -0.1)">
       <use xlink:href="#DejaVuSans-48"/>
       <use x="63.623047" xlink:href="#DejaVuSans-46"/>
       <use x="95.410156" xlink:href="#DejaVuSans-50"/>
       <use x="159.033203" xlink:href="#DejaVuSans-48"/>
      </g>
     </g>
    </g>
   </g>
   <g id="patch_3">
    <path d="M 48.49 620.12 
L 48.49 25.44 
" style="fill:none;stroke:#000000;stroke-linecap:square;stroke-linejoin:miter;stroke-width:0.8;"/>
   </g>
   <g id="patch_4">
    <path d="M 620.697273 620.12 
L 620.697273 25.44 
" style="fill:none;stroke:#000000;stroke-linecap:square;stroke-linejoin:miter;stroke-width:0.8;"/>
   </g>
   <g id="patch_5">
    <path d="M 48.49 620.12 
L 620.697273 620.12 
" style="fill:none;stroke:#000000;stroke-linecap:square;stroke-linejoin:miter;stroke-width:0.8;"/>
   </g>
   <g id="patch_6">
    <path d="M 48.49 25.44 
L 620.697273 25.44 
" style="fill:none;stroke:#000000;stroke-linecap:square;stroke-linejoin:miter;stroke-width:0.8;"/>
   </g>
   <g id="text_14">
    <!-- SH0002 -->
    <defs>
     <path d="M 53.515625 70.515625 
L 53.515625 60.890625 
Q 47.90625 63.578125 42.921875 64.890625 
Q 37.9375 66.21875 33.296875 66.21875 
Q 25.25 66.21875 20.875 63.09375 
Q 16.5 59.96875 16.5 54.203125 
Q 16.5 49.359375 19.40625 46.890625 
Q 22.3125 44.4375 30.421875 42.921875 
L 36.375 41.703125 
Q 47.40625 39.59375 52.65625 34.296875 
Q 57.90625 29 57.90625 20.125 
Q 57.90625 9.515625 50.796875 4.046875 
Q 43.703125 -1.421875 29.984375 -1.421875 
Q 24.8125 -1.421875 18.96875 -0.25 
Q 13.140625 0.921875 6.890625 3.21875 
L 6.890625 13.375 
Q 12.890625 10.015625 18.65625 8.296875 
Q 24.421875 6.59375 29.984375 6.59375 
Q 38.421875 6.59375 43.015625 9.90625 
Q 47.609375 13.234375 47.609375 19.390625 
Q 47.609375 24.75 44.3125 27.78125 
Q 41.015625 30.8125 33.5 32.328125 
L 27.484375 33.5 
Q 16.453125 35.6875 11.515625 40.375 
Q 6.59375 45.0625 6.59375 53.421875 
Q 6.59375 63.09375 13.40625 68.65625 
Q 20.21875 74.21875 32.171875 74.21875 
Q 37.3125 74.21875 42.625 73.28125 
Q 47.953125 72.359375 53.515625 70.515625 
z
" id="DejaVuSans-83"/>
     <path d="M 9.8125 72.90625 
L 19.671875 72.90625 
L 19.671875 43.015625 
L 55.515625 43.015625 
L 55.515625 72.90625 
L 65.375 72.90625 
L 65.375 0 
L 55.515625 0 
L 55.515625 34.71875 
L 19.671875 34.71875 
L 19.671875 0 
L 9.8125 0 
z
" id="DejaVuSans-72"/>
    </defs>
    <g transform="translate(98.458066 580.611001)scale(0.1 -0.1)">
     <use xlink:href="#DejaVuSans-83"/>
     <use x="63.476562" xlink:href="#DejaVuSans-72"/>
     <use x="138.671875" xlink:href="#DejaVuSans-48"/>
     <use x="202.294922" xlink:href="#DejaVuSans-48"/>
     <use x="265.917969" xlink:href="#DejaVuSans-48"/>
     <use x="329.541016" xlink:href="#DejaVuSans-50"/>
    </g>
   </g>
   <g id="text_15">
    <!-- SH0008 -->
    <defs>
     <path d="M 31.78125 34.625 
Q 24.75 34.625 20.71875 30.859375 
Q 16.703125 27.09375 16.703125 20.515625 
Q 16.703125 13.921875 20.71875 10.15625 
Q 24.75 6.390625 31.78125 6.390625 
Q 38.8125 6.390625 42.859375 10.171875 
Q 46.921875 13.96875 46.921875 20.515625 
Q 46.921875 27.09375 42.890625 30.859375 
Q 38.875 34.625 31.78125 34.625 
z
M 21.921875 38.8125 
Q 15.578125 40.375 12.03125 44.71875 
Q 8.5 49.078125 8.5 55.328125 
Q 8.5 64.0625 14.71875 69.140625 
Q 20.953125 74.21875 31.78125 74.21875 
Q 42.671875 74.21875 48.875 69.140625 
Q 55.078125 64.0625 55.078125 55.328125 
Q 55.078125 49.078125 51.53125 44.71875 
Q 48 40.375 41.703125 38.8125 
Q 48.828125 37.15625 52.796875 32.3125 
Q 56.78125 27.484375 56.78125 20.515625 
Q 56.78125 9.90625 50.3125 4.234375 
Q 43.84375 -1.421875 31.78125 -1.421875 
Q 19.734375 -1.421875 13.25 4.234375 
Q 6.78125 9.90625 6.78125 20.515625 
Q 6.78125 27.484375 10.78125 32.3125 
Q 14.796875 37.15625 21.921875 38.8125 
z
M 18.3125 54.390625 
Q 18.3125 48.734375 21.84375 45.5625 
Q 25.390625 42.390625 31.78125 42.390625 
Q 38.140625 42.390625 41.71875 45.5625 
Q 45.3125 48.734375 45.3125 54.390625 
Q 45.3125 60.0625 41.71875 63.234375 
Q 38.140625 66.40625 31.78125 66.40625 
Q 25.390625 66.40625 21.84375 63.234375 
Q 18.3125 60.0625 18.3125 54.390625 
z
" id="DejaVuSans-56"/>
    </defs>
    <g transform="translate(97.842276 578.589477)scale(0.1 -0.1)">
     <use xlink:href="#DejaVuSans-83"/>
     <use x="63.476562" xlink:href="#DejaVuSans-72"/>
     <use x="138.671875" xlink:href="#DejaVuSans-48"/>
     <use x="202.294922" xlink:href="#DejaVuSans-48"/>
     <use x="265.917969" xlink:href="#DejaVuSans-48"/>
     <use x="329.541016" xlink:href="#DejaVuSans-56"/>
    </g>
   </g>
   <g id="text_16">
    <!-- SH0009 -->
    <defs>
     <path d="M 10.984375 1.515625 
L 10.984375 10.5 
Q 14.703125 8.734375 18.5 7.8125 
Q 22.3125 6.890625 25.984375 6.890625 
Q 35.75 6.890625 40.890625 13.453125 
Q 46.046875 20.015625 46.78125 33.40625 
Q 43.953125 29.203125 39.59375 26.953125 
Q 35.25 24.703125 29.984375 24.703125 
Q 19.046875 24.703125 12.671875 31.3125 
Q 6.296875 37.9375 6.296875 49.421875 
Q 6.296875 60.640625 12.9375 67.421875 
Q 19.578125 74.21875 30.609375 74.21875 
Q 43.265625 74.21875 49.921875 64.515625 
Q 56.59375 54.828125 56.59375 36.375 
Q 56.59375 19.140625 48.40625 8.859375 
Q 40.234375 -1.421875 26.421875 -1.421875 
Q 22.703125 -1.421875 18.890625 -0.6875 
Q 15.09375 0.046875 10.984375 1.515625 
z
M 30.609375 32.421875 
Q 37.25 32.421875 41.125 36.953125 
Q 45.015625 41.5 45.015625 49.421875 
Q 45.015625 57.28125 41.125 61.84375 
Q 37.25 66.40625 30.609375 66.40625 
Q 23.96875 66.40625 20.09375 61.84375 
Q 16.21875 57.28125 16.21875 49.421875 
Q 16.21875 41.5 20.09375 36.953125 
Q 23.96875 32.421875 30.609375 32.421875 
z
" id="DejaVuSans-57"/>
    </defs>
    <g transform="translate(92.879308 584.91681)scale(0.1 -0.1)">
     <use xlink:href="#DejaVuSans-83"/>
     <use x="63.476562" xlink:href="#DejaVuSans-72"/>
     <use x="138.671875" xlink:href="#DejaVuSans-48"/>
     <use x="202.294922" xlink:href="#DejaVuSans-48"/>
     <use x="265.917969" xlink:href="#DejaVuSans-48"/>
     <use x="329.541016" xlink:href="#DejaVuSans-57"/>
    </g>
   </g>
   <g id="text_17">
    <!-- SH0036 -->
    <defs>
     <path d="M 33.015625 40.375 
Q 26.375 40.375 22.484375 35.828125 
Q 18.609375 31.296875 18.609375 23.390625 
Q 18.609375 15.53125 22.484375 10.953125 
Q 26.375 6.390625 33.015625 6.390625 
Q 39.65625 6.390625 43.53125 10.953125 
Q 47.40625 15.53125 47.40625 23.390625 
Q 47.40625 31.296875 43.53125 35.828125 
Q 39.65625 40.375 33.015625 40.375 
z
M 52.59375 71.296875 
L 52.59375 62.3125 
Q 48.875 64.0625 45.09375 64.984375 
Q 41.3125 65.921875 37.59375 65.921875 
Q 27.828125 65.921875 22.671875 59.328125 
Q 17.53125 52.734375 16.796875 39.40625 
Q 19.671875 43.65625 24.015625 45.921875 
Q 28.375 48.1875 33.59375 48.1875 
Q 44.578125 48.1875 50.953125 41.515625 
Q 57.328125 34.859375 57.328125 23.390625 
Q 57.328125 12.15625 50.6875 5.359375 
Q 44.046875 -1.421875 33.015625 -1.421875 
Q 20.359375 -1.421875 13.671875 8.265625 
Q 6.984375 17.96875 6.984375 36.375 
Q 6.984375 53.65625 15.1875 63.9375 
Q 23.390625 74.21875 37.203125 74.21875 
Q 40.921875 74.21875 44.703125 73.484375 
Q 48.484375 72.75 52.59375 71.296875 
z
" id="DejaVuSans-54"/>
    </defs>
    <g transform="translate(98.241123 585.064227)scale(0.1 -0.1)">
     <use xlink:href="#DejaVuSans-83"/>
     <use x="63.476562" xlink:href="#DejaVuSans-72"/>
     <use x="138.671875" xlink:href="#DejaVuSans-48"/>
     <use x="202.294922" xlink:href="#DejaVuSans-48"/>
     <use x="265.917969" xlink:href="#DejaVuSans-51"/>
     <use x="329.541016" xlink:href="#DejaVuSans-54"/>
    </g>
   </g>
   <g id="text_18">
    <!-- SH0038 -->
    <g transform="translate(263.827804 437.215471)scale(0.1 -0.1)">
     <use xlink:href="#DejaVuSans-83"/>
     <use x="63.476562" xlink:href="#DejaVuSans-72"/>
     <use x="138.671875" xlink:href="#DejaVuSans-48"/>
     <use x="202.294922" xlink:href="#DejaVuSans-48"/>
     <use x="265.917969" xlink:href="#DejaVuSans-51"/>
     <use x="329.541016" xlink:href="#DejaVuSans-56"/>
    </g>
   </g>
   <g id="text_19">
    <!-- SH0041 -->
    <defs>
     <path d="M 37.796875 64.3125 
L 12.890625 25.390625 
L 37.796875 25.390625 
z
M 35.203125 72.90625 
L 47.609375 72.90625 
L 47.609375 25.390625 
L 58.015625 25.390625 
L 58.015625 17.1875 
L 47.609375 17.1875 
L 47.609375 0 
L 37.796875 0 
L 37.796875 17.1875 
L 4.890625 17.1875 
L 4.890625 26.703125 
z
" id="DejaVuSans-52"/>
    </defs>
    <g transform="translate(85.67237 592.983624)scale(0.1 -0.1)">
     <use xlink:href="#DejaVuSans-83"/>
     <use x="63.476562" xlink:href="#DejaVuSans-72"/>
     <use x="138.671875" xlink:href="#DejaVuSans-48"/>
     <use x="202.294922" xlink:href="#DejaVuSans-48"/>
     <use x="265.917969" xlink:href="#DejaVuSans-52"/>
     <use x="329.541016" xlink:href="#DejaVuSans-49"/>
    </g>
   </g>
   <g id="text_20">
    <!-- SH0053 -->
    <g transform="translate(161.520716 523.016697)scale(0.1 -0.1)">
     <use xlink:href="#DejaVuSans-83"/>
     <use x="63.476562" xlink:href="#DejaVuSans-72"/>
     <use x="138.671875" xlink:href="#DejaVuSans-48"/>
     <use x="202.294922" xlink:href="#DejaVuSans-48"/>
     <use x="265.917969" xlink:href="#DejaVuSans-53"/>
     <use x="329.541016" xlink:href="#DejaVuSans-51"/>
    </g>
   </g>
   <g id="text_21">
    <!-- SH0067 -->
    <defs>
     <path d="M 8.203125 72.90625 
L 55.078125 72.90625 
L 55.078125 68.703125 
L 28.609375 0 
L 18.3125 0 
L 43.21875 64.59375 
L 8.203125 64.59375 
z
" id="DejaVuSans-55"/>
    </defs>
    <g transform="translate(273.140986 417.229972)scale(0.1 -0.1)">
     <use xlink:href="#DejaVuSans-83"/>
     <use x="63.476562" xlink:href="#DejaVuSans-72"/>
     <use x="138.671875" xlink:href="#DejaVuSans-48"/>
     <use x="202.294922" xlink:href="#DejaVuSans-48"/>
     <use x="265.917969" xlink:href="#DejaVuSans-54"/>
     <use x="329.541016" xlink:href="#DejaVuSans-55"/>
    </g>
   </g>
   <g id="text_22">
    <!-- SH0103 -->
    <g transform="translate(113.340827 569.551538)scale(0.1 -0.1)">
     <use xlink:href="#DejaVuSans-83"/>
     <use x="63.476562" xlink:href="#DejaVuSans-72"/>
     <use x="138.671875" xlink:href="#DejaVuSans-48"/>
     <use x="202.294922" xlink:href="#DejaVuSans-49"/>
     <use x="265.917969" xlink:href="#DejaVuSans-48"/>
     <use x="329.541016" xlink:href="#DejaVuSans-51"/>
    </g>
   </g>
   <g id="text_23">
    <!-- SH0104 -->
    <g transform="translate(143.157429 534.651381)scale(0.1 -0.1)">
     <use xlink:href="#DejaVuSans-83"/>
     <use x="63.476562" xlink:href="#DejaVuSans-72"/>
     <use x="138.671875" xlink:href="#DejaVuSans-48"/>
     <use x="202.294922" xlink:href="#DejaVuSans-49"/>
     <use x="265.917969" xlink:href="#DejaVuSans-48"/>
     <use x="329.541016" xlink:href="#DejaVuSans-52"/>
    </g>
   </g>
   <g id="text_24">
    <!-- SH0140 -->
    <g transform="translate(93.748666 586.501619)scale(0.1 -0.1)">
     <use xlink:href="#DejaVuSans-83"/>
     <use x="63.476562" xlink:href="#DejaVuSans-72"/>
     <use x="138.671875" xlink:href="#DejaVuSans-48"/>
     <use x="202.294922" xlink:href="#DejaVuSans-49"/>
     <use x="265.917969" xlink:href="#DejaVuSans-52"/>
     <use x="329.541016" xlink:href="#DejaVuSans-48"/>
    </g>
   </g>
   <g id="text_25">
    <!-- SH0010 -->
    <g transform="translate(252.504381 440.421049)scale(0.1 -0.1)">
     <use xlink:href="#DejaVuSans-83"/>
     <use x="63.476562" xlink:href="#DejaVuSans-72"/>
     <use x="138.671875" xlink:href="#DejaVuSans-48"/>
     <use x="202.294922" xlink:href="#DejaVuSans-48"/>
     <use x="265.917969" xlink:href="#DejaVuSans-49"/>
     <use x="329.541016" xlink:href="#DejaVuSans-48"/>
    </g>
   </g>
   <g id="text_26">
    <!-- SH0015 -->
    <g transform="translate(245.837486 437.097354)scale(0.1 -0.1)">
     <use xlink:href="#DejaVuSans-83"/>
     <use x="63.476562" xlink:href="#DejaVuSans-72"/>
     <use x="138.671875" xlink:href="#DejaVuSans-48"/>
     <use x="202.294922" xlink:href="#DejaVuSans-48"/>
     <use x="265.917969" xlink:href="#DejaVuSans-49"/>
     <use x="329.541016" xlink:href="#DejaVuSans-53"/>
    </g>
   </g>
   <g id="text_27">
    <!-- SH0021 -->
    <g transform="translate(264.247752 427.402102)scale(0.1 -0.1)">
     <use xlink:href="#DejaVuSans-83"/>
     <use x="63.476562" xlink:href="#DejaVuSans-72"/>
     <use x="138.671875" xlink:href="#DejaVuSans-48"/>
     <use x="202.294922" xlink:href="#DejaVuSans-48"/>
     <use x="265.917969" xlink:href="#DejaVuSans-50"/>
     <use x="329.541016" xlink:href="#DejaVuSans-49"/>
    </g>
   </g>
   <g id="text_28">
    <!-- SH0023 -->
    <g transform="translate(260.822083 428.608565)scale(0.1 -0.1)">
     <use xlink:href="#DejaVuSans-83"/>
     <use x="63.476562" xlink:href="#DejaVuSans-72"/>
     <use x="138.671875" xlink:href="#DejaVuSans-48"/>
     <use x="202.294922" xlink:href="#DejaVuSans-48"/>
     <use x="265.917969" xlink:href="#DejaVuSans-50"/>
     <use x="329.541016" xlink:href="#DejaVuSans-51"/>
    </g>
   </g>
   <g id="text_29">
    <!-- SH0032 -->
    <g transform="translate(257.492157 432.8755)scale(0.1 -0.1)">
     <use xlink:href="#DejaVuSans-83"/>
     <use x="63.476562" xlink:href="#DejaVuSans-72"/>
     <use x="138.671875" xlink:href="#DejaVuSans-48"/>
     <use x="202.294922" xlink:href="#DejaVuSans-48"/>
     <use x="265.917969" xlink:href="#DejaVuSans-51"/>
     <use x="329.541016" xlink:href="#DejaVuSans-50"/>
    </g>
   </g>
   <g id="text_30">
    <!-- SH0033 -->
    <g transform="translate(225.081919 436.886059)scale(0.1 -0.1)">
     <use xlink:href="#DejaVuSans-83"/>
     <use x="63.476562" xlink:href="#DejaVuSans-72"/>
     <use x="138.671875" xlink:href="#DejaVuSans-48"/>
     <use x="202.294922" xlink:href="#DejaVuSans-48"/>
     <use x="265.917969" xlink:href="#DejaVuSans-51"/>
     <use x="329.541016" xlink:href="#DejaVuSans-51"/>
    </g>
   </g>
   <g id="text_31">
    <!-- SH0050 -->
    <g transform="translate(255.838862 425.768509)scale(0.1 -0.1)">
     <use xlink:href="#DejaVuSans-83"/>
     <use x="63.476562" xlink:href="#DejaVuSans-72"/>
     <use x="138.671875" xlink:href="#DejaVuSans-48"/>
     <use x="202.294922" xlink:href="#DejaVuSans-48"/>
     <use x="265.917969" xlink:href="#DejaVuSans-53"/>
     <use x="329.541016" xlink:href="#DejaVuSans-48"/>
    </g>
   </g>
   <g id="text_32">
    <!-- SH0065 -->
    <g transform="translate(261.367645 423.41823)scale(0.1 -0.1)">
     <use xlink:href="#DejaVuSans-83"/>
     <use x="63.476562" xlink:href="#DejaVuSans-72"/>
     <use x="138.671875" xlink:href="#DejaVuSans-48"/>
     <use x="202.294922" xlink:href="#DejaVuSans-48"/>
     <use x="265.917969" xlink:href="#DejaVuSans-54"/>
     <use x="329.541016" xlink:href="#DejaVuSans-53"/>
    </g>
   </g>
   <g id="text_33">
    <!-- SH0066 -->
    <g transform="translate(240.879724 436.294414)scale(0.1 -0.1)">
     <use xlink:href="#DejaVuSans-83"/>
     <use x="63.476562" xlink:href="#DejaVuSans-72"/>
     <use x="138.671875" xlink:href="#DejaVuSans-48"/>
     <use x="202.294922" xlink:href="#DejaVuSans-48"/>
     <use x="265.917969" xlink:href="#DejaVuSans-54"/>
     <use x="329.541016" xlink:href="#DejaVuSans-54"/>
    </g>
   </g>
   <g id="text_34">
    <!-- SH0069 -->
    <g transform="translate(243.138892 436.584814)scale(0.1 -0.1)">
     <use xlink:href="#DejaVuSans-83"/>
     <use x="63.476562" xlink:href="#DejaVuSans-72"/>
     <use x="138.671875" xlink:href="#DejaVuSans-48"/>
     <use x="202.294922" xlink:href="#DejaVuSans-48"/>
     <use x="265.917969" xlink:href="#DejaVuSans-54"/>
     <use x="329.541016" xlink:href="#DejaVuSans-57"/>
    </g>
   </g>
   <g id="text_35">
    <!-- SH0073 -->
    <g transform="translate(255.748637 430.857002)scale(0.1 -0.1)">
     <use xlink:href="#DejaVuSans-83"/>
     <use x="63.476562" xlink:href="#DejaVuSans-72"/>
     <use x="138.671875" xlink:href="#DejaVuSans-48"/>
     <use x="202.294922" xlink:href="#DejaVuSans-48"/>
     <use x="265.917969" xlink:href="#DejaVuSans-55"/>
     <use x="329.541016" xlink:href="#DejaVuSans-51"/>
    </g>
   </g>
   <g id="text_36">
    <!-- SH0074 -->
    <g transform="translate(254.798298 436.138532)scale(0.1 -0.1)">
     <use xlink:href="#DejaVuSans-83"/>
     <use x="63.476562" xlink:href="#DejaVuSans-72"/>
     <use x="138.671875" xlink:href="#DejaVuSans-48"/>
     <use x="202.294922" xlink:href="#DejaVuSans-48"/>
     <use x="265.917969" xlink:href="#DejaVuSans-55"/>
     <use x="329.541016" xlink:href="#DejaVuSans-52"/>
    </g>
   </g>
   <g id="text_37">
    <!-- SH0105 -->
    <g transform="translate(253.928898 436.472066)scale(0.1 -0.1)">
     <use xlink:href="#DejaVuSans-83"/>
     <use x="63.476562" xlink:href="#DejaVuSans-72"/>
     <use x="138.671875" xlink:href="#DejaVuSans-48"/>
     <use x="202.294922" xlink:href="#DejaVuSans-49"/>
     <use x="265.917969" xlink:href="#DejaVuSans-48"/>
     <use x="329.541016" xlink:href="#DejaVuSans-53"/>
    </g>
   </g>
   <g id="text_38">
    <!-- SH0114 -->
    <g transform="translate(267.350913 426.568741)scale(0.1 -0.1)">
     <use xlink:href="#DejaVuSans-83"/>
     <use x="63.476562" xlink:href="#DejaVuSans-72"/>
     <use x="138.671875" xlink:href="#DejaVuSans-48"/>
     <use x="202.294922" xlink:href="#DejaVuSans-49"/>
     <use x="265.917969" xlink:href="#DejaVuSans-49"/>
     <use x="329.541016" xlink:href="#DejaVuSans-52"/>
    </g>
   </g>
   <g id="text_39">
    <!-- SH0132 -->
    <g transform="translate(257.230855 372.358831)scale(0.1 -0.1)">
     <use xlink:href="#DejaVuSans-83"/>
     <use x="63.476562" xlink:href="#DejaVuSans-72"/>
     <use x="138.671875" xlink:href="#DejaVuSans-48"/>
     <use x="202.294922" xlink:href="#DejaVuSans-49"/>
     <use x="265.917969" xlink:href="#DejaVuSans-51"/>
     <use x="329.541016" xlink:href="#DejaVuSans-50"/>
    </g>
   </g>
   <g id="text_40">
    <!-- SH0147 -->
    <g transform="translate(254.69517 435.511086)scale(0.1 -0.1)">
     <use xlink:href="#DejaVuSans-83"/>
     <use x="63.476562" xlink:href="#DejaVuSans-72"/>
     <use x="138.671875" xlink:href="#DejaVuSans-48"/>
     <use x="202.294922" xlink:href="#DejaVuSans-49"/>
     <use x="265.917969" xlink:href="#DejaVuSans-52"/>
     <use x="329.541016" xlink:href="#DejaVuSans-55"/>
    </g>
   </g>
   <g id="text_41">
    <!-- SH0157 -->
    <g transform="translate(336.678103 234.275465)scale(0.1 -0.1)">
     <use xlink:href="#DejaVuSans-83"/>
     <use x="63.476562" xlink:href="#DejaVuSans-72"/>
     <use x="138.671875" xlink:href="#DejaVuSans-48"/>
     <use x="202.294922" xlink:href="#DejaVuSans-49"/>
     <use x="265.917969" xlink:href="#DejaVuSans-53"/>
     <use x="329.541016" xlink:href="#DejaVuSans-55"/>
    </g>
   </g>
   <g id="text_42">
    <!-- SH0159 -->
    <g transform="translate(257.267063 430.607175)scale(0.1 -0.1)">
     <use xlink:href="#DejaVuSans-83"/>
     <use x="63.476562" xlink:href="#DejaVuSans-72"/>
     <use x="138.671875" xlink:href="#DejaVuSans-48"/>
     <use x="202.294922" xlink:href="#DejaVuSans-49"/>
     <use x="265.917969" xlink:href="#DejaVuSans-53"/>
     <use x="329.541016" xlink:href="#DejaVuSans-57"/>
    </g>
   </g>
   <g id="text_43">
    <!-- SH0162 -->
    <g transform="translate(276.921721 416.839684)scale(0.1 -0.1)">
     <use xlink:href="#DejaVuSans-83"/>
     <use x="63.476562" xlink:href="#DejaVuSans-72"/>
     <use x="138.671875" xlink:href="#DejaVuSans-48"/>
     <use x="202.294922" xlink:href="#DejaVuSans-49"/>
     <use x="265.917969" xlink:href="#DejaVuSans-54"/>
     <use x="329.541016" xlink:href="#DejaVuSans-50"/>
    </g>
   </g>
   <g id="text_44">
    <!-- SH0001 -->
    <g transform="translate(258.962993 429.902459)scale(0.1 -0.1)">
     <use xlink:href="#DejaVuSans-83"/>
     <use x="63.476562" xlink:href="#DejaVuSans-72"/>
     <use x="138.671875" xlink:href="#DejaVuSans-48"/>
     <use x="202.294922" xlink:href="#DejaVuSans-48"/>
     <use x="265.917969" xlink:href="#DejaVuSans-48"/>
     <use x="329.541016" xlink:href="#DejaVuSans-49"/>
    </g>
   </g>
   <g id="text_45">
    <!-- SH0011 -->
    <g transform="translate(235.550118 358.293073)scale(0.1 -0.1)">
     <use xlink:href="#DejaVuSans-83"/>
     <use x="63.476562" xlink:href="#DejaVuSans-72"/>
     <use x="138.671875" xlink:href="#DejaVuSans-48"/>
     <use x="202.294922" xlink:href="#DejaVuSans-48"/>
     <use x="265.917969" xlink:href="#DejaVuSans-49"/>
     <use x="329.541016" xlink:href="#DejaVuSans-49"/>
    </g>
   </g>
   <g id="text_46">
    <!-- SH0035 -->
    <g transform="translate(210.039833 460.909932)scale(0.1 -0.1)">
     <use xlink:href="#DejaVuSans-83"/>
     <use x="63.476562" xlink:href="#DejaVuSans-72"/>
     <use x="138.671875" xlink:href="#DejaVuSans-48"/>
     <use x="202.294922" xlink:href="#DejaVuSans-48"/>
     <use x="265.917969" xlink:href="#DejaVuSans-51"/>
     <use x="329.541016" xlink:href="#DejaVuSans-53"/>
    </g>
   </g>
   <g id="text_47">
    <!-- SH0039B -->
    <defs>
     <path d="M 19.671875 34.8125 
L 19.671875 8.109375 
L 35.5 8.109375 
Q 43.453125 8.109375 47.28125 11.40625 
Q 51.125 14.703125 51.125 21.484375 
Q 51.125 28.328125 47.28125 31.5625 
Q 43.453125 34.8125 35.5 34.8125 
z
M 19.671875 64.796875 
L 19.671875 42.828125 
L 34.28125 42.828125 
Q 41.5 42.828125 45.03125 45.53125 
Q 48.578125 48.25 48.578125 53.8125 
Q 48.578125 59.328125 45.03125 62.0625 
Q 41.5 64.796875 34.28125 64.796875 
z
M 9.8125 72.90625 
L 35.015625 72.90625 
Q 46.296875 72.90625 52.390625 68.21875 
Q 58.5 63.53125 58.5 54.890625 
Q 58.5 48.1875 55.375 44.234375 
Q 52.25 40.28125 46.1875 39.3125 
Q 53.46875 37.75 57.5 32.78125 
Q 61.53125 27.828125 61.53125 20.40625 
Q 61.53125 10.640625 54.890625 5.3125 
Q 48.25 0 35.984375 0 
L 9.8125 0 
z
" id="DejaVuSans-66"/>
    </defs>
    <g transform="translate(232.622615 449.456729)scale(0.1 -0.1)">
     <use xlink:href="#DejaVuSans-83"/>
     <use x="63.476562" xlink:href="#DejaVuSans-72"/>
     <use x="138.671875" xlink:href="#DejaVuSans-48"/>
     <use x="202.294922" xlink:href="#DejaVuSans-48"/>
     <use x="265.917969" xlink:href="#DejaVuSans-51"/>
     <use x="329.541016" xlink:href="#DejaVuSans-57"/>
     <use x="393.164062" xlink:href="#DejaVuSans-66"/>
    </g>
   </g>
   <g id="text_48">
    <!-- SH0040 -->
    <g transform="translate(254.937246 435.217816)scale(0.1 -0.1)">
     <use xlink:href="#DejaVuSans-83"/>
     <use x="63.476562" xlink:href="#DejaVuSans-72"/>
     <use x="138.671875" xlink:href="#DejaVuSans-48"/>
     <use x="202.294922" xlink:href="#DejaVuSans-48"/>
     <use x="265.917969" xlink:href="#DejaVuSans-52"/>
     <use x="329.541016" xlink:href="#DejaVuSans-48"/>
    </g>
   </g>
   <g id="text_49">
    <!-- SH0042 -->
    <g transform="translate(242.58693 364.410741)scale(0.1 -0.1)">
     <use xlink:href="#DejaVuSans-83"/>
     <use x="63.476562" xlink:href="#DejaVuSans-72"/>
     <use x="138.671875" xlink:href="#DejaVuSans-48"/>
     <use x="202.294922" xlink:href="#DejaVuSans-48"/>
     <use x="265.917969" xlink:href="#DejaVuSans-52"/>
     <use x="329.541016" xlink:href="#DejaVuSans-50"/>
    </g>
   </g>
   <g id="text_50">
    <!-- SH0043 -->
    <g transform="translate(148.84568 400.731489)scale(0.1 -0.1)">
     <use xlink:href="#DejaVuSans-83"/>
     <use x="63.476562" xlink:href="#DejaVuSans-72"/>
     <use x="138.671875" xlink:href="#DejaVuSans-48"/>
     <use x="202.294922" xlink:href="#DejaVuSans-48"/>
     <use x="265.917969" xlink:href="#DejaVuSans-52"/>
     <use x="329.541016" xlink:href="#DejaVuSans-51"/>
    </g>
   </g>
   <g id="text_51">
    <!-- SH0049 -->
    <g transform="translate(247.328981 429.40523)scale(0.1 -0.1)">
     <use xlink:href="#DejaVuSans-83"/>
     <use x="63.476562" xlink:href="#DejaVuSans-72"/>
     <use x="138.671875" xlink:href="#DejaVuSans-48"/>
     <use x="202.294922" xlink:href="#DejaVuSans-48"/>
     <use x="265.917969" xlink:href="#DejaVuSans-52"/>
     <use x="329.541016" xlink:href="#DejaVuSans-57"/>
    </g>
   </g>
   <g id="text_52">
    <!-- SH0051 -->
    <g transform="translate(259.801265 426.866754)scale(0.1 -0.1)">
     <use xlink:href="#DejaVuSans-83"/>
     <use x="63.476562" xlink:href="#DejaVuSans-72"/>
     <use x="138.671875" xlink:href="#DejaVuSans-48"/>
     <use x="202.294922" xlink:href="#DejaVuSans-48"/>
     <use x="265.917969" xlink:href="#DejaVuSans-53"/>
     <use x="329.541016" xlink:href="#DejaVuSans-49"/>
    </g>
   </g>
   <g id="text_53">
    <!-- SH0057 -->
    <g transform="translate(254.210242 434.554701)scale(0.1 -0.1)">
     <use xlink:href="#DejaVuSans-83"/>
     <use x="63.476562" xlink:href="#DejaVuSans-72"/>
     <use x="138.671875" xlink:href="#DejaVuSans-48"/>
     <use x="202.294922" xlink:href="#DejaVuSans-48"/>
     <use x="265.917969" xlink:href="#DejaVuSans-53"/>
     <use x="329.541016" xlink:href="#DejaVuSans-55"/>
    </g>
   </g>
   <g id="text_54">
    <!-- SH0121 -->
    <g transform="translate(274.364922 415.881967)scale(0.1 -0.1)">
     <use xlink:href="#DejaVuSans-83"/>
     <use x="63.476562" xlink:href="#DejaVuSans-72"/>
     <use x="138.671875" xlink:href="#DejaVuSans-48"/>
     <use x="202.294922" xlink:href="#DejaVuSans-49"/>
     <use x="265.917969" xlink:href="#DejaVuSans-50"/>
     <use x="329.541016" xlink:href="#DejaVuSans-49"/>
    </g>
   </g>
   <g id="text_55">
    <!-- SH0122 -->
    <g transform="translate(274.796793 414.45915)scale(0.1 -0.1)">
     <use xlink:href="#DejaVuSans-83"/>
     <use x="63.476562" xlink:href="#DejaVuSans-72"/>
     <use x="138.671875" xlink:href="#DejaVuSans-48"/>
     <use x="202.294922" xlink:href="#DejaVuSans-49"/>
     <use x="265.917969" xlink:href="#DejaVuSans-50"/>
     <use x="329.541016" xlink:href="#DejaVuSans-50"/>
    </g>
   </g>
   <g id="text_56">
    <!-- SH0123 -->
    <g transform="translate(233.742081 356.160914)scale(0.1 -0.1)">
     <use xlink:href="#DejaVuSans-83"/>
     <use x="63.476562" xlink:href="#DejaVuSans-72"/>
     <use x="138.671875" xlink:href="#DejaVuSans-48"/>
     <use x="202.294922" xlink:href="#DejaVuSans-49"/>
     <use x="265.917969" xlink:href="#DejaVuSans-50"/>
     <use x="329.541016" xlink:href="#DejaVuSans-51"/>
    </g>
   </g>
   <g id="text_57">
    <!-- SH0141 -->
    <g transform="translate(139.691963 403.741944)scale(0.1 -0.1)">
     <use xlink:href="#DejaVuSans-83"/>
     <use x="63.476562" xlink:href="#DejaVuSans-72"/>
     <use x="138.671875" xlink:href="#DejaVuSans-48"/>
     <use x="202.294922" xlink:href="#DejaVuSans-49"/>
     <use x="265.917969" xlink:href="#DejaVuSans-52"/>
     <use x="329.541016" xlink:href="#DejaVuSans-49"/>
    </g>
   </g>
   <g id="text_58">
    <!-- SH0161 -->
    <g transform="translate(342.279351 305.084815)scale(0.1 -0.1)">
     <use xlink:href="#DejaVuSans-83"/>
     <use x="63.476562" xlink:href="#DejaVuSans-72"/>
     <use x="138.671875" xlink:href="#DejaVuSans-48"/>
     <use x="202.294922" xlink:href="#DejaVuSans-49"/>
     <use x="265.917969" xlink:href="#DejaVuSans-54"/>
     <use x="329.541016" xlink:href="#DejaVuSans-49"/>
    </g>
   </g>
   <g id="text_59">
    <!-- SH0007 -->
    <g transform="translate(74.499421 593.089091)scale(0.1 -0.1)">
     <use xlink:href="#DejaVuSans-83"/>
     <use x="63.476562" xlink:href="#DejaVuSans-72"/>
     <use x="138.671875" xlink:href="#DejaVuSans-48"/>
     <use x="202.294922" xlink:href="#DejaVuSans-48"/>
     <use x="265.917969" xlink:href="#DejaVuSans-48"/>
     <use x="329.541016" xlink:href="#DejaVuSans-55"/>
    </g>
   </g>
   <g id="text_60">
    <!-- SH0006 -->
    <g transform="translate(97.366692 579.680933)scale(0.1 -0.1)">
     <use xlink:href="#DejaVuSans-83"/>
     <use x="63.476562" xlink:href="#DejaVuSans-72"/>
     <use x="138.671875" xlink:href="#DejaVuSans-48"/>
     <use x="202.294922" xlink:href="#DejaVuSans-48"/>
     <use x="265.917969" xlink:href="#DejaVuSans-48"/>
     <use x="329.541016" xlink:href="#DejaVuSans-54"/>
    </g>
   </g>
   <g id="text_61">
    <!-- SH0045 -->
    <g transform="translate(255.007103 371.889352)scale(0.1 -0.1)">
     <use xlink:href="#DejaVuSans-83"/>
     <use x="63.476562" xlink:href="#DejaVuSans-72"/>
     <use x="138.671875" xlink:href="#DejaVuSans-48"/>
     <use x="202.294922" xlink:href="#DejaVuSans-48"/>
     <use x="265.917969" xlink:href="#DejaVuSans-52"/>
     <use x="329.541016" xlink:href="#DejaVuSans-53"/>
    </g>
   </g>
   <g id="text_62">
    <!-- SH0046 -->
    <g transform="translate(293.777732 320.805603)scale(0.1 -0.1)">
     <use xlink:href="#DejaVuSans-83"/>
     <use x="63.476562" xlink:href="#DejaVuSans-72"/>
     <use x="138.671875" xlink:href="#DejaVuSans-48"/>
     <use x="202.294922" xlink:href="#DejaVuSans-48"/>
     <use x="265.917969" xlink:href="#DejaVuSans-52"/>
     <use x="329.541016" xlink:href="#DejaVuSans-54"/>
    </g>
   </g>
   <g id="text_63">
    <!-- SH0063 -->
    <g transform="translate(318.420722 302.251328)scale(0.1 -0.1)">
     <use xlink:href="#DejaVuSans-83"/>
     <use x="63.476562" xlink:href="#DejaVuSans-72"/>
     <use x="138.671875" xlink:href="#DejaVuSans-48"/>
     <use x="202.294922" xlink:href="#DejaVuSans-48"/>
     <use x="265.917969" xlink:href="#DejaVuSans-54"/>
     <use x="329.541016" xlink:href="#DejaVuSans-51"/>
    </g>
   </g>
   <g id="text_64">
    <!-- SH0068 -->
    <g transform="translate(259.438542 410.098016)scale(0.1 -0.1)">
     <use xlink:href="#DejaVuSans-83"/>
     <use x="63.476562" xlink:href="#DejaVuSans-72"/>
     <use x="138.671875" xlink:href="#DejaVuSans-48"/>
     <use x="202.294922" xlink:href="#DejaVuSans-48"/>
     <use x="265.917969" xlink:href="#DejaVuSans-54"/>
     <use x="329.541016" xlink:href="#DejaVuSans-56"/>
    </g>
   </g>
   <g id="text_65">
    <!-- SH0115 -->
    <g transform="translate(261.625289 353.516059)scale(0.1 -0.1)">
     <use xlink:href="#DejaVuSans-83"/>
     <use x="63.476562" xlink:href="#DejaVuSans-72"/>
     <use x="138.671875" xlink:href="#DejaVuSans-48"/>
     <use x="202.294922" xlink:href="#DejaVuSans-49"/>
     <use x="265.917969" xlink:href="#DejaVuSans-49"/>
     <use x="329.541016" xlink:href="#DejaVuSans-53"/>
    </g>
   </g>
   <g id="text_66">
    <!-- SH0012 -->
    <g transform="translate(579.3746 568.084421)scale(0.1 -0.1)">
     <use xlink:href="#DejaVuSans-83"/>
     <use x="63.476562" xlink:href="#DejaVuSans-72"/>
     <use x="138.671875" xlink:href="#DejaVuSans-48"/>
     <use x="202.294922" xlink:href="#DejaVuSans-48"/>
     <use x="265.917969" xlink:href="#DejaVuSans-49"/>
     <use x="329.541016" xlink:href="#DejaVuSans-50"/>
    </g>
   </g>
   <g id="text_67">
    <!-- SH0014 -->
    <g transform="translate(594.687851 570.722559)scale(0.1 -0.1)">
     <use xlink:href="#DejaVuSans-83"/>
     <use x="63.476562" xlink:href="#DejaVuSans-72"/>
     <use x="138.671875" xlink:href="#DejaVuSans-48"/>
     <use x="202.294922" xlink:href="#DejaVuSans-48"/>
     <use x="265.917969" xlink:href="#DejaVuSans-49"/>
     <use x="329.541016" xlink:href="#DejaVuSans-52"/>
    </g>
   </g>
   <g id="text_68">
    <!-- SH0018 -->
    <g transform="translate(263.661611 425.21642)scale(0.1 -0.1)">
     <use xlink:href="#DejaVuSans-83"/>
     <use x="63.476562" xlink:href="#DejaVuSans-72"/>
     <use x="138.671875" xlink:href="#DejaVuSans-48"/>
     <use x="202.294922" xlink:href="#DejaVuSans-48"/>
     <use x="265.917969" xlink:href="#DejaVuSans-49"/>
     <use x="329.541016" xlink:href="#DejaVuSans-56"/>
    </g>
   </g>
   <g id="text_69">
    <!-- SH0020 -->
    <g transform="translate(268.652314 424.300744)scale(0.1 -0.1)">
     <use xlink:href="#DejaVuSans-83"/>
     <use x="63.476562" xlink:href="#DejaVuSans-72"/>
     <use x="138.671875" xlink:href="#DejaVuSans-48"/>
     <use x="202.294922" xlink:href="#DejaVuSans-48"/>
     <use x="265.917969" xlink:href="#DejaVuSans-50"/>
     <use x="329.541016" xlink:href="#DejaVuSans-48"/>
    </g>
   </g>
   <g id="text_70">
    <!-- SH0025 -->
    <g transform="translate(331.736766 251.234128)scale(0.1 -0.1)">
     <use xlink:href="#DejaVuSans-83"/>
     <use x="63.476562" xlink:href="#DejaVuSans-72"/>
     <use x="138.671875" xlink:href="#DejaVuSans-48"/>
     <use x="202.294922" xlink:href="#DejaVuSans-48"/>
     <use x="265.917969" xlink:href="#DejaVuSans-50"/>
     <use x="329.541016" xlink:href="#DejaVuSans-53"/>
    </g>
   </g>
   <g id="text_71">
    <!-- SH0030 -->
    <g transform="translate(345.42894 56.936136)scale(0.1 -0.1)">
     <use xlink:href="#DejaVuSans-83"/>
     <use x="63.476562" xlink:href="#DejaVuSans-72"/>
     <use x="138.671875" xlink:href="#DejaVuSans-48"/>
     <use x="202.294922" xlink:href="#DejaVuSans-48"/>
     <use x="265.917969" xlink:href="#DejaVuSans-51"/>
     <use x="329.541016" xlink:href="#DejaVuSans-48"/>
    </g>
   </g>
   <g id="text_72">
    <!-- SH0031 -->
    <g transform="translate(593.923783 576.604065)scale(0.1 -0.1)">
     <use xlink:href="#DejaVuSans-83"/>
     <use x="63.476562" xlink:href="#DejaVuSans-72"/>
     <use x="138.671875" xlink:href="#DejaVuSans-48"/>
     <use x="202.294922" xlink:href="#DejaVuSans-48"/>
     <use x="265.917969" xlink:href="#DejaVuSans-51"/>
     <use x="329.541016" xlink:href="#DejaVuSans-49"/>
    </g>
   </g>
   <g id="text_73">
    <!-- SH0044 -->
    <g transform="translate(246.644909 359.041691)scale(0.1 -0.1)">
     <use xlink:href="#DejaVuSans-83"/>
     <use x="63.476562" xlink:href="#DejaVuSans-72"/>
     <use x="138.671875" xlink:href="#DejaVuSans-48"/>
     <use x="202.294922" xlink:href="#DejaVuSans-48"/>
     <use x="265.917969" xlink:href="#DejaVuSans-52"/>
     <use x="329.541016" xlink:href="#DejaVuSans-52"/>
    </g>
   </g>
   <g id="text_74">
    <!-- SH0052 -->
    <g transform="translate(149.261239 532.393991)scale(0.1 -0.1)">
     <use xlink:href="#DejaVuSans-83"/>
     <use x="63.476562" xlink:href="#DejaVuSans-72"/>
     <use x="138.671875" xlink:href="#DejaVuSans-48"/>
     <use x="202.294922" xlink:href="#DejaVuSans-48"/>
     <use x="265.917969" xlink:href="#DejaVuSans-53"/>
     <use x="329.541016" xlink:href="#DejaVuSans-50"/>
    </g>
   </g>
   <g id="text_75">
    <!-- SH0058 -->
    <g transform="translate(278.483469 350.365028)scale(0.1 -0.1)">
     <use xlink:href="#DejaVuSans-83"/>
     <use x="63.476562" xlink:href="#DejaVuSans-72"/>
     <use x="138.671875" xlink:href="#DejaVuSans-48"/>
     <use x="202.294922" xlink:href="#DejaVuSans-48"/>
     <use x="265.917969" xlink:href="#DejaVuSans-53"/>
     <use x="329.541016" xlink:href="#DejaVuSans-56"/>
    </g>
   </g>
   <g id="text_76">
    <!-- SH0061 -->
    <g transform="translate(256.300319 388.382852)scale(0.1 -0.1)">
     <use xlink:href="#DejaVuSans-83"/>
     <use x="63.476562" xlink:href="#DejaVuSans-72"/>
     <use x="138.671875" xlink:href="#DejaVuSans-48"/>
     <use x="202.294922" xlink:href="#DejaVuSans-48"/>
     <use x="265.917969" xlink:href="#DejaVuSans-54"/>
     <use x="329.541016" xlink:href="#DejaVuSans-49"/>
    </g>
   </g>
   <g id="text_77">
    <!-- SH0106 -->
    <g transform="translate(586.864262 572.762782)scale(0.1 -0.1)">
     <use xlink:href="#DejaVuSans-83"/>
     <use x="63.476562" xlink:href="#DejaVuSans-72"/>
     <use x="138.671875" xlink:href="#DejaVuSans-48"/>
     <use x="202.294922" xlink:href="#DejaVuSans-49"/>
     <use x="265.917969" xlink:href="#DejaVuSans-48"/>
     <use x="329.541016" xlink:href="#DejaVuSans-54"/>
    </g>
   </g>
   <g id="text_78">
    <!-- SH0110 -->
    <g transform="translate(575.918889 550.260471)scale(0.1 -0.1)">
     <use xlink:href="#DejaVuSans-83"/>
     <use x="63.476562" xlink:href="#DejaVuSans-72"/>
     <use x="138.671875" xlink:href="#DejaVuSans-48"/>
     <use x="202.294922" xlink:href="#DejaVuSans-49"/>
     <use x="265.917969" xlink:href="#DejaVuSans-49"/>
     <use x="329.541016" xlink:href="#DejaVuSans-48"/>
    </g>
   </g>
   <g id="text_79">
    <!-- SH0111 -->
    <g transform="translate(342.028507 71.047909)scale(0.1 -0.1)">
     <use xlink:href="#DejaVuSans-83"/>
     <use x="63.476562" xlink:href="#DejaVuSans-72"/>
     <use x="138.671875" xlink:href="#DejaVuSans-48"/>
     <use x="202.294922" xlink:href="#DejaVuSans-49"/>
     <use x="265.917969" xlink:href="#DejaVuSans-49"/>
     <use x="329.541016" xlink:href="#DejaVuSans-49"/>
    </g>
   </g>
   <g id="text_80">
    <!-- SH0112 -->
    <g transform="translate(257.03281 384.393116)scale(0.1 -0.1)">
     <use xlink:href="#DejaVuSans-83"/>
     <use x="63.476562" xlink:href="#DejaVuSans-72"/>
     <use x="138.671875" xlink:href="#DejaVuSans-48"/>
     <use x="202.294922" xlink:href="#DejaVuSans-49"/>
     <use x="265.917969" xlink:href="#DejaVuSans-49"/>
     <use x="329.541016" xlink:href="#DejaVuSans-50"/>
    </g>
   </g>
   <g id="text_81">
    <!-- SH0133 -->
    <g transform="translate(343.448391 215.172086)scale(0.1 -0.1)">
     <use xlink:href="#DejaVuSans-83"/>
     <use x="63.476562" xlink:href="#DejaVuSans-72"/>
     <use x="138.671875" xlink:href="#DejaVuSans-48"/>
     <use x="202.294922" xlink:href="#DejaVuSans-49"/>
     <use x="265.917969" xlink:href="#DejaVuSans-51"/>
     <use x="329.541016" xlink:href="#DejaVuSans-51"/>
    </g>
   </g>
   <g id="text_82">
    <!-- SH0136 -->
    <g transform="translate(336.55221 240.229647)scale(0.1 -0.1)">
     <use xlink:href="#DejaVuSans-83"/>
     <use x="63.476562" xlink:href="#DejaVuSans-72"/>
     <use x="138.671875" xlink:href="#DejaVuSans-48"/>
     <use x="202.294922" xlink:href="#DejaVuSans-49"/>
     <use x="265.917969" xlink:href="#DejaVuSans-51"/>
     <use x="329.541016" xlink:href="#DejaVuSans-54"/>
    </g>
   </g>
   <g id="text_83">
    <!-- SH0142 -->
    <g transform="translate(576.783392 555.945231)scale(0.1 -0.1)">
     <use xlink:href="#DejaVuSans-83"/>
     <use x="63.476562" xlink:href="#DejaVuSans-72"/>
     <use x="138.671875" xlink:href="#DejaVuSans-48"/>
     <use x="202.294922" xlink:href="#DejaVuSans-49"/>
     <use x="265.917969" xlink:href="#DejaVuSans-52"/>
     <use x="329.541016" xlink:href="#DejaVuSans-50"/>
    </g>
   </g>
   <g id="text_84">
    <!-- SH0143 -->
    <g transform="translate(576.718652 565.770258)scale(0.1 -0.1)">
     <use xlink:href="#DejaVuSans-83"/>
     <use x="63.476562" xlink:href="#DejaVuSans-72"/>
     <use x="138.671875" xlink:href="#DejaVuSans-48"/>
     <use x="202.294922" xlink:href="#DejaVuSans-49"/>
     <use x="265.917969" xlink:href="#DejaVuSans-52"/>
     <use x="329.541016" xlink:href="#DejaVuSans-51"/>
    </g>
   </g>
   <g id="text_85">
    <!-- SH0144 -->
    <g transform="translate(329.314594 239.936927)scale(0.1 -0.1)">
     <use xlink:href="#DejaVuSans-83"/>
     <use x="63.476562" xlink:href="#DejaVuSans-72"/>
     <use x="138.671875" xlink:href="#DejaVuSans-48"/>
     <use x="202.294922" xlink:href="#DejaVuSans-49"/>
     <use x="265.917969" xlink:href="#DejaVuSans-52"/>
     <use x="329.541016" xlink:href="#DejaVuSans-52"/>
    </g>
   </g>
   <g id="text_86">
    <!-- SH0149 -->
    <g transform="translate(345.413882 265.191345)scale(0.1 -0.1)">
     <use xlink:href="#DejaVuSans-83"/>
     <use x="63.476562" xlink:href="#DejaVuSans-72"/>
     <use x="138.671875" xlink:href="#DejaVuSans-48"/>
     <use x="202.294922" xlink:href="#DejaVuSans-49"/>
     <use x="265.917969" xlink:href="#DejaVuSans-52"/>
     <use x="329.541016" xlink:href="#DejaVuSans-57"/>
    </g>
   </g>
   <g id="text_87">
    <!-- SH0150 -->
    <g transform="translate(336.143605 52.470909)scale(0.1 -0.1)">
     <use xlink:href="#DejaVuSans-83"/>
     <use x="63.476562" xlink:href="#DejaVuSans-72"/>
     <use x="138.671875" xlink:href="#DejaVuSans-48"/>
     <use x="202.294922" xlink:href="#DejaVuSans-49"/>
     <use x="265.917969" xlink:href="#DejaVuSans-53"/>
     <use x="329.541016" xlink:href="#DejaVuSans-48"/>
    </g>
   </g>
   <g id="text_88">
    <!-- SH0160 -->
    <g transform="translate(344.020255 62.020126)scale(0.1 -0.1)">
     <use xlink:href="#DejaVuSans-83"/>
     <use x="63.476562" xlink:href="#DejaVuSans-72"/>
     <use x="138.671875" xlink:href="#DejaVuSans-48"/>
     <use x="202.294922" xlink:href="#DejaVuSans-49"/>
     <use x="265.917969" xlink:href="#DejaVuSans-54"/>
     <use x="329.541016" xlink:href="#DejaVuSans-48"/>
    </g>
   </g>
   <g id="text_89">
    <!-- SH0165 -->
    <g transform="translate(331.812891 232.753757)scale(0.1 -0.1)">
     <use xlink:href="#DejaVuSans-83"/>
     <use x="63.476562" xlink:href="#DejaVuSans-72"/>
     <use x="138.671875" xlink:href="#DejaVuSans-48"/>
     <use x="202.294922" xlink:href="#DejaVuSans-49"/>
     <use x="265.917969" xlink:href="#DejaVuSans-54"/>
     <use x="329.541016" xlink:href="#DejaVuSans-53"/>
    </g>
   </g>
   <g id="text_90">
    <!-- SH0004 -->
    <g transform="translate(285.207389 422.44702)scale(0.1 -0.1)">
     <use xlink:href="#DejaVuSans-83"/>
     <use x="63.476562" xlink:href="#DejaVuSans-72"/>
     <use x="138.671875" xlink:href="#DejaVuSans-48"/>
     <use x="202.294922" xlink:href="#DejaVuSans-48"/>
     <use x="265.917969" xlink:href="#DejaVuSans-48"/>
     <use x="329.541016" xlink:href="#DejaVuSans-52"/>
    </g>
   </g>
   <g id="text_91">
    <!-- SH0016 -->
    <g transform="translate(330.38423 310.98693)scale(0.1 -0.1)">
     <use xlink:href="#DejaVuSans-83"/>
     <use x="63.476562" xlink:href="#DejaVuSans-72"/>
     <use x="138.671875" xlink:href="#DejaVuSans-48"/>
     <use x="202.294922" xlink:href="#DejaVuSans-48"/>
     <use x="265.917969" xlink:href="#DejaVuSans-49"/>
     <use x="329.541016" xlink:href="#DejaVuSans-54"/>
    </g>
   </g>
   <g id="text_92">
    <!-- SH0017 -->
    <g transform="translate(329.179823 301.606864)scale(0.1 -0.1)">
     <use xlink:href="#DejaVuSans-83"/>
     <use x="63.476562" xlink:href="#DejaVuSans-72"/>
     <use x="138.671875" xlink:href="#DejaVuSans-48"/>
     <use x="202.294922" xlink:href="#DejaVuSans-48"/>
     <use x="265.917969" xlink:href="#DejaVuSans-49"/>
     <use x="329.541016" xlink:href="#DejaVuSans-55"/>
    </g>
   </g>
   <g id="text_93">
    <!-- SH0026 -->
    <g transform="translate(338.667102 237.898767)scale(0.1 -0.1)">
     <use xlink:href="#DejaVuSans-83"/>
     <use x="63.476562" xlink:href="#DejaVuSans-72"/>
     <use x="138.671875" xlink:href="#DejaVuSans-48"/>
     <use x="202.294922" xlink:href="#DejaVuSans-48"/>
     <use x="265.917969" xlink:href="#DejaVuSans-50"/>
     <use x="329.541016" xlink:href="#DejaVuSans-54"/>
    </g>
   </g>
   <g id="text_94">
    <!-- SH0027 -->
    <g transform="translate(338.564982 230.644671)scale(0.1 -0.1)">
     <use xlink:href="#DejaVuSans-83"/>
     <use x="63.476562" xlink:href="#DejaVuSans-72"/>
     <use x="138.671875" xlink:href="#DejaVuSans-48"/>
     <use x="202.294922" xlink:href="#DejaVuSans-48"/>
     <use x="265.917969" xlink:href="#DejaVuSans-50"/>
     <use x="329.541016" xlink:href="#DejaVuSans-55"/>
    </g>
   </g>
   <g id="text_95">
    <!-- SH0047 -->
    <g transform="translate(342.280127 303.008057)scale(0.1 -0.1)">
     <use xlink:href="#DejaVuSans-83"/>
     <use x="63.476562" xlink:href="#DejaVuSans-72"/>
     <use x="138.671875" xlink:href="#DejaVuSans-48"/>
     <use x="202.294922" xlink:href="#DejaVuSans-48"/>
     <use x="265.917969" xlink:href="#DejaVuSans-52"/>
     <use x="329.541016" xlink:href="#DejaVuSans-55"/>
    </g>
   </g>
   <g id="text_96">
    <!-- SH0048 -->
    <g transform="translate(325.368068 303.902973)scale(0.1 -0.1)">
     <use xlink:href="#DejaVuSans-83"/>
     <use x="63.476562" xlink:href="#DejaVuSans-72"/>
     <use x="138.671875" xlink:href="#DejaVuSans-48"/>
     <use x="202.294922" xlink:href="#DejaVuSans-48"/>
     <use x="265.917969" xlink:href="#DejaVuSans-52"/>
     <use x="329.541016" xlink:href="#DejaVuSans-56"/>
    </g>
   </g>
   <g id="text_97">
    <!-- SH0054 -->
    <g transform="translate(322.262383 315.929393)scale(0.1 -0.1)">
     <use xlink:href="#DejaVuSans-83"/>
     <use x="63.476562" xlink:href="#DejaVuSans-72"/>
     <use x="138.671875" xlink:href="#DejaVuSans-48"/>
     <use x="202.294922" xlink:href="#DejaVuSans-48"/>
     <use x="265.917969" xlink:href="#DejaVuSans-53"/>
     <use x="329.541016" xlink:href="#DejaVuSans-52"/>
    </g>
   </g>
   <g id="text_98">
    <!-- SH0127 -->
    <g transform="translate(248.323126 404.265084)scale(0.1 -0.1)">
     <use xlink:href="#DejaVuSans-83"/>
     <use x="63.476562" xlink:href="#DejaVuSans-72"/>
     <use x="138.671875" xlink:href="#DejaVuSans-48"/>
     <use x="202.294922" xlink:href="#DejaVuSans-49"/>
     <use x="265.917969" xlink:href="#DejaVuSans-50"/>
     <use x="329.541016" xlink:href="#DejaVuSans-55"/>
    </g>
   </g>
   <g id="text_99">
    <!-- SH0134 -->
    <g transform="translate(255.91337 386.421329)scale(0.1 -0.1)">
     <use xlink:href="#DejaVuSans-83"/>
     <use x="63.476562" xlink:href="#DejaVuSans-72"/>
     <use x="138.671875" xlink:href="#DejaVuSans-48"/>
     <use x="202.294922" xlink:href="#DejaVuSans-49"/>
     <use x="265.917969" xlink:href="#DejaVuSans-51"/>
     <use x="329.541016" xlink:href="#DejaVuSans-52"/>
    </g>
   </g>
   <g id="text_100">
    <!-- SH0135 -->
    <g transform="translate(253.191877 389.747057)scale(0.1 -0.1)">
     <use xlink:href="#DejaVuSans-83"/>
     <use x="63.476562" xlink:href="#DejaVuSans-72"/>
     <use x="138.671875" xlink:href="#DejaVuSans-48"/>
     <use x="202.294922" xlink:href="#DejaVuSans-49"/>
     <use x="265.917969" xlink:href="#DejaVuSans-51"/>
     <use x="329.541016" xlink:href="#DejaVuSans-53"/>
    </g>
   </g>
   <g id="text_101">
    <!-- SH0138 -->
    <g transform="translate(329.909001 289.722693)scale(0.1 -0.1)">
     <use xlink:href="#DejaVuSans-83"/>
     <use x="63.476562" xlink:href="#DejaVuSans-72"/>
     <use x="138.671875" xlink:href="#DejaVuSans-48"/>
     <use x="202.294922" xlink:href="#DejaVuSans-49"/>
     <use x="265.917969" xlink:href="#DejaVuSans-51"/>
     <use x="329.541016" xlink:href="#DejaVuSans-56"/>
    </g>
   </g>
   <g id="text_102">
    <!-- SH0139 -->
    <g transform="translate(247.382466 402.837494)scale(0.1 -0.1)">
     <use xlink:href="#DejaVuSans-83"/>
     <use x="63.476562" xlink:href="#DejaVuSans-72"/>
     <use x="138.671875" xlink:href="#DejaVuSans-48"/>
     <use x="202.294922" xlink:href="#DejaVuSans-49"/>
     <use x="265.917969" xlink:href="#DejaVuSans-51"/>
     <use x="329.541016" xlink:href="#DejaVuSans-57"/>
    </g>
   </g>
   <g id="text_103">
    <!-- SH0152 -->
    <g transform="translate(323.663325 280.726297)scale(0.1 -0.1)">
     <use xlink:href="#DejaVuSans-83"/>
     <use x="63.476562" xlink:href="#DejaVuSans-72"/>
     <use x="138.671875" xlink:href="#DejaVuSans-48"/>
     <use x="202.294922" xlink:href="#DejaVuSans-49"/>
     <use x="265.917969" xlink:href="#DejaVuSans-53"/>
     <use x="329.541016" xlink:href="#DejaVuSans-50"/>
    </g>
   </g>
   <g id="text_104">
    <!-- SH0163 -->
    <g transform="translate(270.686832 427.696747)scale(0.1 -0.1)">
     <use xlink:href="#DejaVuSans-83"/>
     <use x="63.476562" xlink:href="#DejaVuSans-72"/>
     <use x="138.671875" xlink:href="#DejaVuSans-48"/>
     <use x="202.294922" xlink:href="#DejaVuSans-49"/>
     <use x="265.917969" xlink:href="#DejaVuSans-54"/>
     <use x="329.541016" xlink:href="#DejaVuSans-51"/>
    </g>
   </g>
   <g id="text_105">
    <!-- SH0164 -->
    <g transform="translate(330.645914 300.065049)scale(0.1 -0.1)">
     <use xlink:href="#DejaVuSans-83"/>
     <use x="63.476562" xlink:href="#DejaVuSans-72"/>
     <use x="138.671875" xlink:href="#DejaVuSans-48"/>
     <use x="202.294922" xlink:href="#DejaVuSans-49"/>
     <use x="265.917969" xlink:href="#DejaVuSans-54"/>
     <use x="329.541016" xlink:href="#DejaVuSans-52"/>
    </g>
   </g>
   <g id="text_106">
    <!-- SH0022 -->
    <g transform="translate(266.157497 425.072948)scale(0.1 -0.1)">
     <use xlink:href="#DejaVuSans-83"/>
     <use x="63.476562" xlink:href="#DejaVuSans-72"/>
     <use x="138.671875" xlink:href="#DejaVuSans-48"/>
     <use x="202.294922" xlink:href="#DejaVuSans-48"/>
     <use x="265.917969" xlink:href="#DejaVuSans-50"/>
     <use x="329.541016" xlink:href="#DejaVuSans-50"/>
    </g>
   </g>
   <g id="text_107">
    <!-- SH0034 -->
    <g transform="translate(216.725723 434.759561)scale(0.1 -0.1)">
     <use xlink:href="#DejaVuSans-83"/>
     <use x="63.476562" xlink:href="#DejaVuSans-72"/>
     <use x="138.671875" xlink:href="#DejaVuSans-48"/>
     <use x="202.294922" xlink:href="#DejaVuSans-48"/>
     <use x="265.917969" xlink:href="#DejaVuSans-51"/>
     <use x="329.541016" xlink:href="#DejaVuSans-52"/>
    </g>
   </g>
   <g id="text_108">
    <!-- SH0037 -->
    <g transform="translate(580.851198 569.915597)scale(0.1 -0.1)">
     <use xlink:href="#DejaVuSans-83"/>
     <use x="63.476562" xlink:href="#DejaVuSans-72"/>
     <use x="138.671875" xlink:href="#DejaVuSans-48"/>
     <use x="202.294922" xlink:href="#DejaVuSans-48"/>
     <use x="265.917969" xlink:href="#DejaVuSans-51"/>
     <use x="329.541016" xlink:href="#DejaVuSans-55"/>
    </g>
   </g>
   <g id="text_109">
    <!-- SH0071 -->
    <g transform="translate(576.516256 566.699856)scale(0.1 -0.1)">
     <use xlink:href="#DejaVuSans-83"/>
     <use x="63.476562" xlink:href="#DejaVuSans-72"/>
     <use x="138.671875" xlink:href="#DejaVuSans-48"/>
     <use x="202.294922" xlink:href="#DejaVuSans-48"/>
     <use x="265.917969" xlink:href="#DejaVuSans-55"/>
     <use x="329.541016" xlink:href="#DejaVuSans-49"/>
    </g>
   </g>
   <g id="text_110">
    <!-- SH0107 -->
    <g transform="translate(580.391464 569.196577)scale(0.1 -0.1)">
     <use xlink:href="#DejaVuSans-83"/>
     <use x="63.476562" xlink:href="#DejaVuSans-72"/>
     <use x="138.671875" xlink:href="#DejaVuSans-48"/>
     <use x="202.294922" xlink:href="#DejaVuSans-49"/>
     <use x="265.917969" xlink:href="#DejaVuSans-48"/>
     <use x="329.541016" xlink:href="#DejaVuSans-55"/>
    </g>
   </g>
   <g id="text_111">
    <!-- SH0108 -->
    <g transform="translate(577.108257 567.540018)scale(0.1 -0.1)">
     <use xlink:href="#DejaVuSans-83"/>
     <use x="63.476562" xlink:href="#DejaVuSans-72"/>
     <use x="138.671875" xlink:href="#DejaVuSans-48"/>
     <use x="202.294922" xlink:href="#DejaVuSans-49"/>
     <use x="265.917969" xlink:href="#DejaVuSans-48"/>
     <use x="329.541016" xlink:href="#DejaVuSans-56"/>
    </g>
   </g>
   <g id="text_112">
    <!-- SH0109 -->
    <g transform="translate(583.880049 572.372655)scale(0.1 -0.1)">
     <use xlink:href="#DejaVuSans-83"/>
     <use x="63.476562" xlink:href="#DejaVuSans-72"/>
     <use x="138.671875" xlink:href="#DejaVuSans-48"/>
     <use x="202.294922" xlink:href="#DejaVuSans-49"/>
     <use x="265.917969" xlink:href="#DejaVuSans-48"/>
     <use x="329.541016" xlink:href="#DejaVuSans-57"/>
    </g>
   </g>
   <g id="text_113">
    <!-- SH0124 -->
    <g transform="translate(262.651288 387.827734)scale(0.1 -0.1)">
     <use xlink:href="#DejaVuSans-83"/>
     <use x="63.476562" xlink:href="#DejaVuSans-72"/>
     <use x="138.671875" xlink:href="#DejaVuSans-48"/>
     <use x="202.294922" xlink:href="#DejaVuSans-49"/>
     <use x="265.917969" xlink:href="#DejaVuSans-50"/>
     <use x="329.541016" xlink:href="#DejaVuSans-52"/>
    </g>
   </g>
   <g id="text_114">
    <!-- SH0151 -->
    <g transform="translate(304.413372 305.015819)scale(0.1 -0.1)">
     <use xlink:href="#DejaVuSans-83"/>
     <use x="63.476562" xlink:href="#DejaVuSans-72"/>
     <use x="138.671875" xlink:href="#DejaVuSans-48"/>
     <use x="202.294922" xlink:href="#DejaVuSans-49"/>
     <use x="265.917969" xlink:href="#DejaVuSans-53"/>
     <use x="329.541016" xlink:href="#DejaVuSans-49"/>
    </g>
   </g>
   <g id="text_115">
    <!-- between sample distances clade C unifrac no_sqrt -->
    <defs>
     <path d="M 48.6875 27.296875 
Q 48.6875 37.203125 44.609375 42.84375 
Q 40.53125 48.484375 33.40625 48.484375 
Q 26.265625 48.484375 22.1875 42.84375 
Q 18.109375 37.203125 18.109375 27.296875 
Q 18.109375 17.390625 22.1875 11.75 
Q 26.265625 6.109375 33.40625 6.109375 
Q 40.53125 6.109375 44.609375 11.75 
Q 48.6875 17.390625 48.6875 27.296875 
z
M 18.109375 46.390625 
Q 20.953125 51.265625 25.265625 53.625 
Q 29.59375 56 35.59375 56 
Q 45.5625 56 51.78125 48.09375 
Q 58.015625 40.1875 58.015625 27.296875 
Q 58.015625 14.40625 51.78125 6.484375 
Q 45.5625 -1.421875 35.59375 -1.421875 
Q 29.59375 -1.421875 25.265625 0.953125 
Q 20.953125 3.328125 18.109375 8.203125 
L 18.109375 0 
L 9.078125 0 
L 9.078125 75.984375 
L 18.109375 75.984375 
z
" id="DejaVuSans-98"/>
     <path d="M 56.203125 29.59375 
L 56.203125 25.203125 
L 14.890625 25.203125 
Q 15.484375 15.921875 20.484375 11.0625 
Q 25.484375 6.203125 34.421875 6.203125 
Q 39.59375 6.203125 44.453125 7.46875 
Q 49.3125 8.734375 54.109375 11.28125 
L 54.109375 2.78125 
Q 49.265625 0.734375 44.1875 -0.34375 
Q 39.109375 -1.421875 33.890625 -1.421875 
Q 20.796875 -1.421875 13.15625 6.1875 
Q 5.515625 13.8125 5.515625 26.8125 
Q 5.515625 40.234375 12.765625 48.109375 
Q 20.015625 56 32.328125 56 
Q 43.359375 56 49.78125 48.890625 
Q 56.203125 41.796875 56.203125 29.59375 
z
M 47.21875 32.234375 
Q 47.125 39.59375 43.09375 43.984375 
Q 39.0625 48.390625 32.421875 48.390625 
Q 24.90625 48.390625 20.390625 44.140625 
Q 15.875 39.890625 15.1875 32.171875 
z
" id="DejaVuSans-101"/>
     <path d="M 18.3125 70.21875 
L 18.3125 54.6875 
L 36.8125 54.6875 
L 36.8125 47.703125 
L 18.3125 47.703125 
L 18.3125 18.015625 
Q 18.3125 11.328125 20.140625 9.421875 
Q 21.96875 7.515625 27.59375 7.515625 
L 36.8125 7.515625 
L 36.8125 0 
L 27.59375 0 
Q 17.1875 0 13.234375 3.875 
Q 9.28125 7.765625 9.28125 18.015625 
L 9.28125 47.703125 
L 2.6875 47.703125 
L 2.6875 54.6875 
L 9.28125 54.6875 
L 9.28125 70.21875 
z
" id="DejaVuSans-116"/>
     <path d="M 4.203125 54.6875 
L 13.1875 54.6875 
L 24.421875 12.015625 
L 35.59375 54.6875 
L 46.1875 54.6875 
L 57.421875 12.015625 
L 68.609375 54.6875 
L 77.59375 54.6875 
L 63.28125 0 
L 52.6875 0 
L 40.921875 44.828125 
L 29.109375 0 
L 18.5 0 
z
" id="DejaVuSans-119"/>
     <path d="M 54.890625 33.015625 
L 54.890625 0 
L 45.90625 0 
L 45.90625 32.71875 
Q 45.90625 40.484375 42.875 44.328125 
Q 39.84375 48.1875 33.796875 48.1875 
Q 26.515625 48.1875 22.3125 43.546875 
Q 18.109375 38.921875 18.109375 30.90625 
L 18.109375 0 
L 9.078125 0 
L 9.078125 54.6875 
L 18.109375 54.6875 
L 18.109375 46.1875 
Q 21.34375 51.125 25.703125 53.5625 
Q 30.078125 56 35.796875 56 
Q 45.21875 56 50.046875 50.171875 
Q 54.890625 44.34375 54.890625 33.015625 
z
" id="DejaVuSans-110"/>
     <path id="DejaVuSans-32"/>
     <path d="M 44.28125 53.078125 
L 44.28125 44.578125 
Q 40.484375 46.53125 36.375 47.5 
Q 32.28125 48.484375 27.875 48.484375 
Q 21.1875 48.484375 17.84375 46.4375 
Q 14.5 44.390625 14.5 40.28125 
Q 14.5 37.15625 16.890625 35.375 
Q 19.28125 33.59375 26.515625 31.984375 
L 29.59375 31.296875 
Q 39.15625 29.25 43.1875 25.515625 
Q 47.21875 21.78125 47.21875 15.09375 
Q 47.21875 7.46875 41.1875 3.015625 
Q 35.15625 -1.421875 24.609375 -1.421875 
Q 20.21875 -1.421875 15.453125 -0.5625 
Q 10.6875 0.296875 5.421875 2 
L 5.421875 11.28125 
Q 10.40625 8.6875 15.234375 7.390625 
Q 20.0625 6.109375 24.8125 6.109375 
Q 31.15625 6.109375 34.5625 8.28125 
Q 37.984375 10.453125 37.984375 14.40625 
Q 37.984375 18.0625 35.515625 20.015625 
Q 33.0625 21.96875 24.703125 23.78125 
L 21.578125 24.515625 
Q 13.234375 26.265625 9.515625 29.90625 
Q 5.8125 33.546875 5.8125 39.890625 
Q 5.8125 47.609375 11.28125 51.796875 
Q 16.75 56 26.8125 56 
Q 31.78125 56 36.171875 55.265625 
Q 40.578125 54.546875 44.28125 53.078125 
z
" id="DejaVuSans-115"/>
     <path d="M 34.28125 27.484375 
Q 23.390625 27.484375 19.1875 25 
Q 14.984375 22.515625 14.984375 16.5 
Q 14.984375 11.71875 18.140625 8.90625 
Q 21.296875 6.109375 26.703125 6.109375 
Q 34.1875 6.109375 38.703125 11.40625 
Q 43.21875 16.703125 43.21875 25.484375 
L 43.21875 27.484375 
z
M 52.203125 31.203125 
L 52.203125 0 
L 43.21875 0 
L 43.21875 8.296875 
Q 40.140625 3.328125 35.546875 0.953125 
Q 30.953125 -1.421875 24.3125 -1.421875 
Q 15.921875 -1.421875 10.953125 3.296875 
Q 6 8.015625 6 15.921875 
Q 6 25.140625 12.171875 29.828125 
Q 18.359375 34.515625 30.609375 34.515625 
L 43.21875 34.515625 
L 43.21875 35.40625 
Q 43.21875 41.609375 39.140625 45 
Q 35.0625 48.390625 27.6875 48.390625 
Q 23 48.390625 18.546875 47.265625 
Q 14.109375 46.140625 10.015625 43.890625 
L 10.015625 52.203125 
Q 14.9375 54.109375 19.578125 55.046875 
Q 24.21875 56 28.609375 56 
Q 40.484375 56 46.34375 49.84375 
Q 52.203125 43.703125 52.203125 31.203125 
z
" id="DejaVuSans-97"/>
     <path d="M 52 44.1875 
Q 55.375 50.25 60.0625 53.125 
Q 64.75 56 71.09375 56 
Q 79.640625 56 84.28125 50.015625 
Q 88.921875 44.046875 88.921875 33.015625 
L 88.921875 0 
L 79.890625 0 
L 79.890625 32.71875 
Q 79.890625 40.578125 77.09375 44.375 
Q 74.3125 48.1875 68.609375 48.1875 
Q 61.625 48.1875 57.5625 43.546875 
Q 53.515625 38.921875 53.515625 30.90625 
L 53.515625 0 
L 44.484375 0 
L 44.484375 32.71875 
Q 44.484375 40.625 41.703125 44.40625 
Q 38.921875 48.1875 33.109375 48.1875 
Q 26.21875 48.1875 22.15625 43.53125 
Q 18.109375 38.875 18.109375 30.90625 
L 18.109375 0 
L 9.078125 0 
L 9.078125 54.6875 
L 18.109375 54.6875 
L 18.109375 46.1875 
Q 21.1875 51.21875 25.484375 53.609375 
Q 29.78125 56 35.6875 56 
Q 41.65625 56 45.828125 52.96875 
Q 50 49.953125 52 44.1875 
z
" id="DejaVuSans-109"/>
     <path d="M 18.109375 8.203125 
L 18.109375 -20.796875 
L 9.078125 -20.796875 
L 9.078125 54.6875 
L 18.109375 54.6875 
L 18.109375 46.390625 
Q 20.953125 51.265625 25.265625 53.625 
Q 29.59375 56 35.59375 56 
Q 45.5625 56 51.78125 48.09375 
Q 58.015625 40.1875 58.015625 27.296875 
Q 58.015625 14.40625 51.78125 6.484375 
Q 45.5625 -1.421875 35.59375 -1.421875 
Q 29.59375 -1.421875 25.265625 0.953125 
Q 20.953125 3.328125 18.109375 8.203125 
z
M 48.6875 27.296875 
Q 48.6875 37.203125 44.609375 42.84375 
Q 40.53125 48.484375 33.40625 48.484375 
Q 26.265625 48.484375 22.1875 42.84375 
Q 18.109375 37.203125 18.109375 27.296875 
Q 18.109375 17.390625 22.1875 11.75 
Q 26.265625 6.109375 33.40625 6.109375 
Q 40.53125 6.109375 44.609375 11.75 
Q 48.6875 17.390625 48.6875 27.296875 
z
" id="DejaVuSans-112"/>
     <path d="M 9.421875 75.984375 
L 18.40625 75.984375 
L 18.40625 0 
L 9.421875 0 
z
" id="DejaVuSans-108"/>
     <path d="M 45.40625 46.390625 
L 45.40625 75.984375 
L 54.390625 75.984375 
L 54.390625 0 
L 45.40625 0 
L 45.40625 8.203125 
Q 42.578125 3.328125 38.25 0.953125 
Q 33.9375 -1.421875 27.875 -1.421875 
Q 17.96875 -1.421875 11.734375 6.484375 
Q 5.515625 14.40625 5.515625 27.296875 
Q 5.515625 40.1875 11.734375 48.09375 
Q 17.96875 56 27.875 56 
Q 33.9375 56 38.25 53.625 
Q 42.578125 51.265625 45.40625 46.390625 
z
M 14.796875 27.296875 
Q 14.796875 17.390625 18.875 11.75 
Q 22.953125 6.109375 30.078125 6.109375 
Q 37.203125 6.109375 41.296875 11.75 
Q 45.40625 17.390625 45.40625 27.296875 
Q 45.40625 37.203125 41.296875 42.84375 
Q 37.203125 48.484375 30.078125 48.484375 
Q 22.953125 48.484375 18.875 42.84375 
Q 14.796875 37.203125 14.796875 27.296875 
z
" id="DejaVuSans-100"/>
     <path d="M 9.421875 54.6875 
L 18.40625 54.6875 
L 18.40625 0 
L 9.421875 0 
z
M 9.421875 75.984375 
L 18.40625 75.984375 
L 18.40625 64.59375 
L 9.421875 64.59375 
z
" id="DejaVuSans-105"/>
     <path d="M 48.78125 52.59375 
L 48.78125 44.1875 
Q 44.96875 46.296875 41.140625 47.34375 
Q 37.3125 48.390625 33.40625 48.390625 
Q 24.65625 48.390625 19.8125 42.84375 
Q 14.984375 37.3125 14.984375 27.296875 
Q 14.984375 17.28125 19.8125 11.734375 
Q 24.65625 6.203125 33.40625 6.203125 
Q 37.3125 6.203125 41.140625 7.25 
Q 44.96875 8.296875 48.78125 10.40625 
L 48.78125 2.09375 
Q 45.015625 0.34375 40.984375 -0.53125 
Q 36.96875 -1.421875 32.421875 -1.421875 
Q 20.0625 -1.421875 12.78125 6.34375 
Q 5.515625 14.109375 5.515625 27.296875 
Q 5.515625 40.671875 12.859375 48.328125 
Q 20.21875 56 33.015625 56 
Q 37.15625 56 41.109375 55.140625 
Q 45.0625 54.296875 48.78125 52.59375 
z
" id="DejaVuSans-99"/>
     <path d="M 64.40625 67.28125 
L 64.40625 56.890625 
Q 59.421875 61.53125 53.78125 63.8125 
Q 48.140625 66.109375 41.796875 66.109375 
Q 29.296875 66.109375 22.65625 58.46875 
Q 16.015625 50.828125 16.015625 36.375 
Q 16.015625 21.96875 22.65625 14.328125 
Q 29.296875 6.6875 41.796875 6.6875 
Q 48.140625 6.6875 53.78125 8.984375 
Q 59.421875 11.28125 64.40625 15.921875 
L 64.40625 5.609375 
Q 59.234375 2.09375 53.4375 0.328125 
Q 47.65625 -1.421875 41.21875 -1.421875 
Q 24.65625 -1.421875 15.125 8.703125 
Q 5.609375 18.84375 5.609375 36.375 
Q 5.609375 53.953125 15.125 64.078125 
Q 24.65625 74.21875 41.21875 74.21875 
Q 47.75 74.21875 53.53125 72.484375 
Q 59.328125 70.75 64.40625 67.28125 
z
" id="DejaVuSans-67"/>
     <path d="M 8.5 21.578125 
L 8.5 54.6875 
L 17.484375 54.6875 
L 17.484375 21.921875 
Q 17.484375 14.15625 20.5 10.265625 
Q 23.53125 6.390625 29.59375 6.390625 
Q 36.859375 6.390625 41.078125 11.03125 
Q 45.3125 15.671875 45.3125 23.6875 
L 45.3125 54.6875 
L 54.296875 54.6875 
L 54.296875 0 
L 45.3125 0 
L 45.3125 8.40625 
Q 42.046875 3.421875 37.71875 1 
Q 33.40625 -1.421875 27.6875 -1.421875 
Q 18.265625 -1.421875 13.375 4.4375 
Q 8.5 10.296875 8.5 21.578125 
z
M 31.109375 56 
z
" id="DejaVuSans-117"/>
     <path d="M 37.109375 75.984375 
L 37.109375 68.5 
L 28.515625 68.5 
Q 23.6875 68.5 21.796875 66.546875 
Q 19.921875 64.59375 19.921875 59.515625 
L 19.921875 54.6875 
L 34.71875 54.6875 
L 34.71875 47.703125 
L 19.921875 47.703125 
L 19.921875 0 
L 10.890625 0 
L 10.890625 47.703125 
L 2.296875 47.703125 
L 2.296875 54.6875 
L 10.890625 54.6875 
L 10.890625 58.5 
Q 10.890625 67.625 15.140625 71.796875 
Q 19.390625 75.984375 28.609375 75.984375 
z
" id="DejaVuSans-102"/>
     <path d="M 41.109375 46.296875 
Q 39.59375 47.171875 37.8125 47.578125 
Q 36.03125 48 33.890625 48 
Q 26.265625 48 22.1875 43.046875 
Q 18.109375 38.09375 18.109375 28.8125 
L 18.109375 0 
L 9.078125 0 
L 9.078125 54.6875 
L 18.109375 54.6875 
L 18.109375 46.1875 
Q 20.953125 51.171875 25.484375 53.578125 
Q 30.03125 56 36.53125 56 
Q 37.453125 56 38.578125 55.875 
Q 39.703125 55.765625 41.0625 55.515625 
z
" id="DejaVuSans-114"/>
     <path d="M 30.609375 48.390625 
Q 23.390625 48.390625 19.1875 42.75 
Q 14.984375 37.109375 14.984375 27.296875 
Q 14.984375 17.484375 19.15625 11.84375 
Q 23.34375 6.203125 30.609375 6.203125 
Q 37.796875 6.203125 41.984375 11.859375 
Q 46.1875 17.53125 46.1875 27.296875 
Q 46.1875 37.015625 41.984375 42.703125 
Q 37.796875 48.390625 30.609375 48.390625 
z
M 30.609375 56 
Q 42.328125 56 49.015625 48.375 
Q 55.71875 40.765625 55.71875 27.296875 
Q 55.71875 13.875 49.015625 6.21875 
Q 42.328125 -1.421875 30.609375 -1.421875 
Q 18.84375 -1.421875 12.171875 6.21875 
Q 5.515625 13.875 5.515625 27.296875 
Q 5.515625 40.765625 12.171875 48.375 
Q 18.84375 56 30.609375 56 
z
" id="DejaVuSans-111"/>
     <path d="M 50.984375 -16.609375 
L 50.984375 -23.578125 
L -0.984375 -23.578125 
L -0.984375 -16.609375 
z
" id="DejaVuSans-95"/>
     <path d="M 14.796875 27.296875 
Q 14.796875 17.390625 18.875 11.75 
Q 22.953125 6.109375 30.078125 6.109375 
Q 37.203125 6.109375 41.296875 11.75 
Q 45.40625 17.390625 45.40625 27.296875 
Q 45.40625 37.203125 41.296875 42.84375 
Q 37.203125 48.484375 30.078125 48.484375 
Q 22.953125 48.484375 18.875 42.84375 
Q 14.796875 37.203125 14.796875 27.296875 
z
M 45.40625 8.203125 
Q 42.578125 3.328125 38.25 0.953125 
Q 33.9375 -1.421875 27.875 -1.421875 
Q 17.96875 -1.421875 11.734375 6.484375 
Q 5.515625 14.40625 5.515625 27.296875 
Q 5.515625 40.1875 11.734375 48.09375 
Q 17.96875 56 27.875 56 
Q 33.9375 56 38.25 53.625 
Q 42.578125 51.265625 45.40625 46.390625 
L 45.40625 54.6875 
L 54.390625 54.6875 
L 54.390625 -20.796875 
L 45.40625 -20.796875 
z
" id="DejaVuSans-113"/>
    </defs>
    <g transform="translate(183.454574 19.44)scale(0.12 -0.12)">
     <use xlink:href="#DejaVuSans-98"/>
     <use x="63.476562" xlink:href="#DejaVuSans-101"/>
     <use x="125" xlink:href="#DejaVuSans-116"/>
     <use x="164.208984" xlink:href="#DejaVuSans-119"/>
     <use x="245.996094" xlink:href="#DejaVuSans-101"/>
     <use x="307.519531" xlink:href="#DejaVuSans-101"/>
     <use x="369.042969" xlink:href="#DejaVuSans-110"/>
     <use x="432.421875" xlink:href="#DejaVuSans-32"/>
     <use x="464.208984" xlink:href="#DejaVuSans-115"/>
     <use x="516.308594" xlink:href="#DejaVuSans-97"/>
     <use x="577.587891" xlink:href="#DejaVuSans-109"/>
     <use x="675" xlink:href="#DejaVuSans-112"/>
     <use x="738.476562" xlink:href="#DejaVuSans-108"/>
     <use x="766.259766" xlink:href="#DejaVuSans-101"/>
     <use x="827.783203" xlink:href="#DejaVuSans-32"/>
     <use x="859.570312" xlink:href="#DejaVuSans-100"/>
     <use x="923.046875" xlink:href="#DejaVuSans-105"/>
     <use x="950.830078" xlink:href="#DejaVuSans-115"/>
     <use x="1002.929688" xlink:href="#DejaVuSans-116"/>
     <use x="1042.138672" xlink:href="#DejaVuSans-97"/>
     <use x="1103.417969" xlink:href="#DejaVuSans-110"/>
     <use x="1166.796875" xlink:href="#DejaVuSans-99"/>
     <use x="1221.777344" xlink:href="#DejaVuSans-101"/>
     <use x="1283.300781" xlink:href="#DejaVuSans-115"/>
     <use x="1335.400391" xlink:href="#DejaVuSans-32"/>
     <use x="1367.1875" xlink:href="#DejaVuSans-99"/>
     <use x="1422.167969" xlink:href="#DejaVuSans-108"/>
     <use x="1449.951172" xlink:href="#DejaVuSans-97"/>
     <use x="1511.230469" xlink:href="#DejaVuSans-100"/>
     <use x="1574.707031" xlink:href="#DejaVuSans-101"/>
     <use x="1636.230469" xlink:href="#DejaVuSans-32"/>
     <use x="1668.017578" xlink:href="#DejaVuSans-67"/>
     <use x="1737.841797" xlink:href="#DejaVuSans-32"/>
     <use x="1769.628906" xlink:href="#DejaVuSans-117"/>
     <use x="1833.007812" xlink:href="#DejaVuSans-110"/>
     <use x="1896.386719" xlink:href="#DejaVuSans-105"/>
     <use x="1924.169922" xlink:href="#DejaVuSans-102"/>
     <use x="1959.375" xlink:href="#DejaVuSans-114"/>
     <use x="2000.488281" xlink:href="#DejaVuSans-97"/>
     <use x="2061.767578" xlink:href="#DejaVuSans-99"/>
     <use x="2116.748047" xlink:href="#DejaVuSans-32"/>
     <use x="2148.535156" xlink:href="#DejaVuSans-110"/>
     <use x="2211.914062" xlink:href="#DejaVuSans-111"/>
     <use x="2273.095703" xlink:href="#DejaVuSans-95"/>
     <use x="2323.095703" xlink:href="#DejaVuSans-115"/>
     <use x="2375.195312" xlink:href="#DejaVuSans-113"/>
     <use x="2438.671875" xlink:href="#DejaVuSans-114"/>
     <use x="2479.785156" xlink:href="#DejaVuSans-116"/>
    </g>
   </g>
  </g>
 </g>
 <defs>
  <clipPath id="p3d74a78e62">
   <rect height="594.68" width="572.207273" x="48.49" y="25.44"/>
  </clipPath>
 </defs>
</svg>
